<svg width="24" height="24" viewBox="0 0 24 24" fill="none" xmlns="http://www.w3.org/2000/svg">
<path d="M11 13H7V11H11V7H13V11H17V13H13V17H11V13Z" fill="black"/>
<path fill-rule="evenodd" clip-rule="evenodd" d="M2 12C2 3.5 3.5 2 12 2C20.5 2 22 3.5 22 12C22 20.5 20.5 22 12 22C3.5 22 2 20.5 2 12ZM4.32657 7.2526C4.09521 8.38296 4 9.90466 4 12C4 14.0953 4.09521 15.617 4.32657 16.7474C4.55348 17.856 4.87973 18.4263 5.22671 18.7733C5.5737 19.1203 6.14397 19.4465 7.2526 19.6734C8.38296 19.9048 9.90466 20 12 20C14.0953 20 15.617 19.9048 16.7474 19.6734C17.856 19.4465 18.4263 19.1203 18.7733 18.7733C19.1203 18.4263 19.4465 17.856 19.6734 16.7474C19.9048 15.617 20 14.0953 20 12C20 9.90466 19.9048 8.38296 19.6734 7.2526C19.4465 6.14397 19.1203 5.5737 18.7733 5.22671C18.4263 4.87973 17.856 4.55348 16.7474 4.32657C15.617 4.09521 14.0953 4 12 4C9.90466 4 8.38296 4.09521 7.2526 4.32657C6.14397 4.55348 5.5737 4.87973 5.22671 5.22671C4.87973 5.5737 4.55348 6.14397 4.32657 7.2526Z" fill="black"/>
</svg>
