<svg width="24" height="24" viewBox="0 0 24 24" fill="none" xmlns="http://www.w3.org/2000/svg">
<path d="M15 5C14.9977 4.85542 15.0949 4.72575 15.1978 4.62675C15.6726 4.16874 16.3475 3.90147 16.9822 3.6501C17.1549 3.58173 17.3246 3.51453 17.4864 3.44499C17.5859 3.24068 17.6797 3.01362 17.7761 2.78022C18.0189 2.19224 18.2783 1.56401 18.6878 1.15778C18.7699 1.07615 18.8764 1.00175 19 1.00004C19.1446 0.997725 19.2743 1.09493 19.3733 1.19779C19.8313 1.67265 20.0985 2.34752 20.3499 2.98224C20.4183 3.15489 20.4855 3.32456 20.555 3.48643C20.7593 3.58592 20.9864 3.67968 21.2197 3.77606C21.8077 4.01887 22.436 4.27832 22.8422 4.68775C22.9238 4.76993 22.9983 4.87636 23 5C23.0023 5.14458 22.9051 5.27425 22.8022 5.37325C22.3274 5.83125 21.6525 6.09853 21.0178 6.34989C20.8451 6.41827 20.6754 6.48547 20.5136 6.555C20.4141 6.75932 20.3203 6.98638 20.2239 7.21978C19.9811 7.80776 19.7217 8.43598 19.3123 8.84222C19.2301 8.92385 19.1236 8.99825 19 8.99996C18.8554 9.00227 18.7258 8.90507 18.6268 8.80221C18.1688 8.32736 17.9015 7.65248 17.6501 7.01777C17.5817 6.84512 17.5145 6.67544 17.445 6.51357C17.2407 6.41408 17.0136 6.32031 16.7802 6.22393C16.1922 5.98112 15.564 5.72168 15.1578 5.31225C15.0762 5.23007 15.0017 5.12364 15 5Z" fill="black"/>
<path d="M16 19C15.9983 18.8916 16.0712 18.7943 16.1483 18.7201C16.5045 18.3766 17.0106 18.1761 17.4867 17.9876C17.6161 17.9363 17.7434 17.8859 17.8648 17.8337C17.9394 17.6805 18.0098 17.5102 18.0821 17.3352C18.2642 16.8942 18.4587 16.423 18.7658 16.1183C18.8274 16.0571 18.9073 16.0013 19 16C19.1084 15.9983 19.2057 16.0712 19.2799 16.1483C19.6234 16.5045 19.8239 17.0106 20.0124 17.4867C20.0637 17.6162 20.1141 17.7434 20.1663 17.8648C20.3195 17.9394 20.4898 18.0098 20.6648 18.0821C21.1058 18.2642 21.577 18.4587 21.8817 18.7658C21.9429 18.8274 21.9987 18.9073 22 19C22.0017 19.1084 21.9288 19.2057 21.8517 19.2799C21.4955 19.6234 20.9894 19.8239 20.5133 20.0124C20.3838 20.0637 20.2566 20.1141 20.1352 20.1663C20.0606 20.3195 19.9902 20.4898 19.9179 20.6648C19.7358 21.1058 19.5413 21.577 19.2342 21.8817C19.1726 21.9429 19.0927 21.9987 19 22C18.8916 22.0017 18.7943 21.9288 18.7201 21.8517C18.3766 21.4955 18.1761 20.9894 17.9876 20.5133C17.9363 20.3838 17.8859 20.2566 17.8338 20.1352C17.6805 20.0606 17.5102 19.9902 17.3352 19.9179C16.8942 19.7358 16.423 19.5413 16.1183 19.2342C16.0571 19.1726 16.0013 19.0927 16 19Z" fill="black"/>
<path fill-rule="evenodd" clip-rule="evenodd" d="M2.00007 12.0001C1.99602 11.7471 2.16614 11.5201 2.34614 11.3469C3.17714 10.5454 4.35819 10.0776 5.46896 9.63773C5.77109 9.51808 6.06806 9.40047 6.35132 9.27878C6.52543 8.92122 6.68952 8.52387 6.8582 8.11542C7.28312 7.08644 7.73713 5.98703 8.45364 5.27613C8.59746 5.13327 8.78371 5.00306 9.00009 5.00007C9.2531 4.99602 9.48003 5.16614 9.65328 5.34614C10.4548 6.17714 10.9225 7.35819 11.3624 8.46895C11.4821 8.77109 11.5997 9.06803 11.7214 9.35131C12.0789 9.5254 12.4762 9.68949 12.8847 9.85815C13.9137 10.2831 15.0131 10.7371 15.724 11.4536C15.8669 11.5974 15.9971 11.7837 16.0001 12.0001C16.0041 12.2531 15.834 12.48 15.654 12.6533C14.823 13.4548 13.642 13.9225 12.5312 14.3624C12.2291 14.4821 11.9321 14.5997 11.6489 14.7214C11.4748 15.0789 11.3107 15.4762 11.142 15.8847C10.7171 16.9136 10.263 18.0131 9.54653 18.724C9.40271 18.8669 9.21646 18.9971 9.00009 19.0001C8.74707 19.0041 8.52014 18.834 8.34689 18.654C7.54538 17.823 7.07765 16.642 6.63775 15.5312C6.51809 15.2291 6.4005 14.9321 6.2788 14.6488C5.92128 14.4748 5.52396 14.3107 5.11554 14.142C4.08656 13.7171 2.98704 13.263 2.27613 12.5465C2.13327 12.4027 2.00306 12.2164 2.00007 12.0001ZM5.14999 11.9702C5.25315 12.0217 5.3646 12.0743 5.48478 12.1285C5.72769 12.2378 5.97509 12.34 6.2424 12.4504L6.37183 12.5039C6.67644 12.63 7.01095 12.7703 7.32624 12.9238C7.64968 13.0813 7.90575 13.3498 8.04775 13.6803C8.16131 13.9447 8.27111 14.222 8.37319 14.4798L8.42359 14.607C8.54374 14.9097 8.65695 15.1898 8.77761 15.4564C8.84222 15.5991 8.9062 15.7315 8.97017 15.8541C9.02167 15.7509 9.07434 15.6395 9.12845 15.5193C9.23784 15.2764 9.34003 15.029 9.45045 14.7617L9.50394 14.6323C9.63002 14.3276 9.77025 13.9931 9.92378 13.6778C10.0813 13.3544 10.3498 13.0983 10.6803 12.9563C10.9446 12.8428 11.2219 12.733 11.4796 12.631L11.607 12.5805C11.9097 12.4603 12.1898 12.3471 12.4564 12.2265C12.5991 12.1619 12.7315 12.0979 12.8541 12.0339C12.7509 11.9824 12.6395 11.9297 12.5193 11.8756C12.2764 11.7662 12.029 11.6641 11.7617 11.5536L11.6323 11.5001C11.3276 11.3741 10.9931 11.2338 10.6779 11.0803C10.3544 10.9228 10.0983 10.6543 9.95634 10.3238C9.8428 10.0595 9.73302 9.78219 9.63096 9.52442L9.58049 9.39707C9.46035 9.09438 9.34714 8.81428 9.22648 8.54769C9.16187 8.40494 9.09789 8.27255 9.03392 8.15C8.98242 8.25316 8.92975 8.3646 8.87563 8.48477C8.76626 8.72766 8.66406 8.97506 8.55365 9.24236L8.50015 9.37181C8.37407 9.67642 8.23384 10.0109 8.08031 10.3262C7.92281 10.6497 7.65431 10.9057 7.32377 11.0477C7.05945 11.1613 6.78211 11.2711 6.52433 11.3732L6.39708 11.4236C6.09439 11.5437 5.81429 11.6569 5.54769 11.7776C5.40494 11.8422 5.27254 11.9062 5.14999 11.9702Z" fill="black"/>
</svg>
