<svg width="24" height="24" viewBox="0 0 24 24" fill="none" xmlns="http://www.w3.org/2000/svg">
<path d="M15 5C14.9977 4.85542 15.0949 4.72575 15.1978 4.62675C15.6726 4.16874 16.3475 3.90147 16.9822 3.6501C17.1549 3.58173 17.3246 3.51453 17.4864 3.44499C17.5859 3.24069 17.6797 3.01365 17.7761 2.78026C18.0189 2.19228 18.2783 1.56401 18.6878 1.15778C18.7699 1.07615 18.8764 1.00175 19 1.00004C19.1446 0.997725 19.2743 1.09493 19.3733 1.19779C19.8313 1.67265 20.0985 2.34752 20.3499 2.98224C20.4183 3.15489 20.4855 3.32456 20.555 3.48643C20.7593 3.58592 20.9864 3.67968 21.2197 3.77606C21.8077 4.01888 22.436 4.27832 22.8422 4.68775C22.9238 4.76993 22.9983 4.87636 23 5C23.0023 5.14458 22.9051 5.27425 22.8022 5.37325C22.3274 5.83125 21.6525 6.09853 21.0178 6.34989C20.8451 6.41827 20.6754 6.48547 20.5136 6.555C20.4141 6.75932 20.3203 6.98638 20.2239 7.21978C19.9811 7.80776 19.7217 8.43599 19.3123 8.84222C19.2301 8.92385 19.1236 8.99825 19 8.99996C18.8554 9.00227 18.7258 8.90507 18.6268 8.80221C18.1688 8.32736 17.9015 7.65248 17.6501 7.01777C17.5817 6.84512 17.5145 6.67544 17.445 6.51357C17.2407 6.41408 17.0136 6.32031 16.7802 6.22393C16.1922 5.98112 15.564 5.72168 15.1578 5.31225C15.0762 5.23007 15.0017 5.12364 15 5Z" fill="black"/>
<path d="M2.34614 11.3469C2.16614 11.5201 1.99602 11.7471 2.00007 12.0001C2.00306 12.2164 2.13327 12.4027 2.27613 12.5465C2.98704 13.263 4.08645 13.717 5.11544 14.142C5.52389 14.3106 5.92125 14.4747 6.2788 14.6488C6.4005 14.9321 6.51809 15.2291 6.63775 15.5312C7.07765 16.642 7.54538 17.823 8.34689 18.654C8.52014 18.834 8.74707 19.0041 9.00009 19.0001C9.21646 18.9971 9.40271 18.8669 9.54653 18.724C10.263 18.0131 10.7171 16.9137 11.142 15.8847C11.3107 15.4763 11.4747 15.0789 11.6489 14.7214C11.9321 14.5997 12.2291 14.4821 12.5312 14.3624C13.642 13.9225 14.823 13.4548 15.654 12.6533C15.834 12.48 16.0041 12.2531 16.0001 12.0001C15.9971 11.7837 15.8669 11.5974 15.724 11.4536C15.0131 10.7371 13.9137 10.2831 12.8847 9.85818C12.4763 9.68951 12.0789 9.52541 11.7214 9.3513C11.5997 9.06804 11.4821 8.77111 11.3624 8.46899C10.9225 7.35823 10.4548 6.17714 9.65328 5.34614C9.48003 5.16614 9.2531 4.99602 9.00009 5.00007C8.78371 5.00306 8.59746 5.13327 8.45364 5.27613C7.73713 5.98703 7.28312 7.08644 6.8582 8.11542C6.68953 8.52386 6.52543 8.92123 6.35132 9.27878C6.06805 9.40047 5.77112 9.51806 5.46899 9.63772C4.35823 10.0776 3.17714 10.5454 2.34614 11.3469Z" fill="black"/>
<path d="M16.1483 18.7201C16.0712 18.7943 15.9983 18.8916 16 19C16.0013 19.0927 16.0571 19.1726 16.1183 19.2342C16.423 19.5413 16.8942 19.7358 17.3352 19.9179C17.5102 19.9902 17.6805 20.0606 17.8338 20.1352C17.8859 20.2566 17.9363 20.3838 17.9876 20.5133C18.1761 20.9894 18.3766 21.4955 18.7201 21.8517C18.7943 21.9288 18.8916 22.0017 19 22C19.0927 21.9987 19.1726 21.9429 19.2342 21.8817C19.5413 21.577 19.7358 21.1058 19.9179 20.6648C19.9902 20.4898 20.0606 20.3195 20.1352 20.1663C20.2566 20.1141 20.3838 20.0637 20.5133 20.0124C20.9894 19.8239 21.4955 19.6234 21.8517 19.2799C21.9288 19.2057 22.0017 19.1084 22 19C21.9987 18.9073 21.9429 18.8274 21.8817 18.7658C21.577 18.4587 21.1058 18.2642 20.6648 18.0821C20.4898 18.0098 20.3195 17.9394 20.1663 17.8648C20.1141 17.7434 20.0637 17.6162 20.0124 17.4867C19.8239 17.0106 19.6234 16.5045 19.2799 16.1483C19.2057 16.0712 19.1084 15.9983 19 16C18.9073 16.0013 18.8274 16.0571 18.7658 16.1183C18.4587 16.423 18.2642 16.8942 18.0821 17.3352C18.0098 17.5102 17.9394 17.6805 17.8648 17.8337C17.7434 17.8859 17.6162 17.9363 17.4867 17.9876C17.0106 18.1761 16.5045 18.3766 16.1483 18.7201Z" fill="black"/>
</svg>
