<svg width="24" height="24" viewBox="0 0 24 24" fill="none" xmlns="http://www.w3.org/2000/svg">
<path fill-rule="evenodd" clip-rule="evenodd" d="M3 8.48682C3 10.3488 4.28 11.9004 6 12.3509V13.9926C6 19.9489 6.825 21 11.5 21C14.3268 21 15.7459 20.6157 16.4262 18.9951C20.3007 18.9421 21 18.1008 21 13.9926C21 10.2971 20.4341 9.24509 17.5 9.03248V8.98736C17.85 8.39674 18 7.71601 18 6.98524C18 4.77292 16.21 2.98103 14 2.98103C13.66 2.98103 13.34 3.03109 13.02 3.11117C12.2 2.43045 11.16 2 10 2C8.11 2 6.49 3.11117 5.73 4.71285C4.15 5.24341 3 6.72497 3 8.48682ZM10.7648 10.3745C10.1055 11.0944 9.2567 12.0214 8 12.3609V13.9926C8 15.459 8.05255 16.5104 8.17658 17.2824C8.30109 18.0575 8.47112 18.3676 8.56951 18.493C8.69471 18.6525 9.07554 18.9979 11.5 18.9979C13.9245 18.9979 14.3053 18.6525 14.4305 18.493C14.5289 18.3676 14.6989 18.0575 14.8234 17.2824C14.9474 16.5104 15 15.459 15 13.9926V8.98735H13C12.08 8.98735 11.6 9.45785 10.77 10.3688L10.7648 10.3745ZM5 8.48682C5 9.58798 5.9 10.4889 7 10.4889C7.95869 10.4889 8.59328 9.7923 9.29654 9.0203C10.1705 8.06097 11.1504 6.98524 12.99 6.98524H15.99C15.99 5.88409 15.09 4.98314 13.99 4.98314C13.16 4.98314 12.52 5.30348 12.52 5.30348L11.74 4.65279C11.39 4.35248 10.79 4.00211 10 4.00211C8.94 4.00211 8 4.60274 7.53 5.57376L7.17 6.33456L6.37 6.60485C5.55 6.88514 5 7.63593 5 8.48682ZM16.8797 16.9813C17.441 16.9604 17.8574 16.9174 18.1732 16.8527C18.185 16.8502 18.1974 16.8478 18.2103 16.8453C18.219 16.8437 18.2278 16.842 18.2368 16.8403C18.3837 16.8124 18.5795 16.7752 18.6795 16.675C18.7796 16.5748 18.8168 16.3789 18.8447 16.2318C18.8489 16.2092 18.853 16.1878 18.857 16.1681C18.9517 15.7052 19 15.0266 19 13.9926C19 12.9587 18.9517 12.28 18.857 11.8172C18.853 11.7974 18.8489 11.776 18.8447 11.7534C18.8168 11.6064 18.7796 11.4104 18.6795 11.3103C18.5795 11.2101 18.3832 11.1728 18.2365 11.1449C18.2141 11.1407 18.1927 11.1366 18.1732 11.1326C17.8804 11.0726 17.5011 11.0312 17 11.0089V13.9926C17 15.1708 16.9677 16.1571 16.8797 16.9813Z" fill="black"/>
</svg>
