<svg width="24" height="24" viewBox="0 0 24 24" fill="none" xmlns="http://www.w3.org/2000/svg">
<path d="M10.5 6.5C10.5 5.225 10.725 5 12 5C13.275 5 13.5 5.225 13.5 6.5V17.5C13.5 18.775 13.275 19 12 19C10.725 19 10.5 18.775 10.5 17.5V6.5Z" fill="black"/>
<path d="M6.5 8C5.225 8 5 8.225 5 9.5V17.5C5 18.775 5.225 19 6.5 19C7.775 19 8 18.775 8 17.5V9.5C8 8.225 7.775 8 6.5 8Z" fill="black"/>
<path d="M16 13.5C16 12.225 16.225 12 17.5 12C18.775 12 19 12.225 19 13.5V17.5C19 18.775 18.775 19 17.5 19C16.225 19 16 18.775 16 17.5V13.5Z" fill="black"/>
</svg>
