<svg width="24" height="24" viewBox="0 0 24 24" fill="none" xmlns="http://www.w3.org/2000/svg">
<path fill-rule="evenodd" clip-rule="evenodd" d="M18.696 5.30397C14.2908 0.898678 9.70925 0.898678 5.30397 5.30397C0.898678 9.70925 0.898678 14.2908 5.30397 18.696C9.70925 23.1013 14.2908 23.1013 18.696 18.696C23.1013 14.2908 23.1013 9.70925 18.696 5.30397ZM6.71818 6.71818C8.68877 4.74759 10.4566 4 12 4C13.3502 4 14.8721 4.5721 16.5512 6.03456L6.03456 16.5512C4.5721 14.8721 4 13.3502 4 12C4 10.4566 4.74759 8.68877 6.71818 6.71818ZM7.44877 17.9654C9.12792 19.4279 10.6498 20 12 20C13.5434 20 15.3112 19.2524 17.2818 17.2818C19.2524 15.3112 20 13.5434 20 12C20 10.6498 19.4279 9.12792 17.9654 7.44877L7.44877 17.9654Z" fill="black"/>
</svg>
