<svg width="24" height="24" viewBox="0 0 24 24" fill="none" xmlns="http://www.w3.org/2000/svg">
<path d="M12 3C6.05 3 5 4.05 5 10C5 10.3359 5.00335 10.6562 5.01073 10.9615C5.00304 11.1319 5.00034 11.3025 5.00003 11.4731L5.00012 18.4227L5.00012 18.5595C5.00208 19.095 5.02922 19.6303 5.16201 20.1586C5.23039 20.4303 5.34716 20.7894 5.75014 20.9413L5.75139 20.9418C6.06437 21.0592 6.42567 20.9782 6.72438 20.8821C8.53646 20.2995 10.0792 19.0985 11.4467 18.0337C11.6344 17.8876 11.8187 17.7441 12 17.6051C12.1812 17.7441 12.3655 17.8875 12.5531 18.0336C13.9207 19.0983 15.4635 20.2995 17.2756 20.8821C17.5743 20.9782 17.9356 21.0592 18.2486 20.9418L18.2499 20.9413C18.6528 20.7894 18.7696 20.4303 18.838 20.1586C18.9735 19.6195 18.999 19.0734 19 18.5269L18.9999 11.5773L18.9999 11.4405C18.9993 11.2808 18.9965 11.121 18.9893 10.9615C18.9967 10.6562 19 10.3359 19 10C19 4.05 17.95 3 12 3Z" fill="black"/>
</svg>
