<svg width="24" height="24" viewBox="0 0 24 24" fill="none" xmlns="http://www.w3.org/2000/svg">
<path fill-rule="evenodd" clip-rule="evenodd" d="M5.00012 18.5595C5.00134 18.893 5.01233 19.2264 5.05251 19.5581C5.07686 19.759 5.11192 19.9593 5.16201 20.1586C5.23039 20.4303 5.34716 20.7894 5.75014 20.9413L5.75139 20.9418C6.06437 21.0592 6.42567 20.9782 6.72438 20.8821C8.53646 20.2995 10.0792 19.0985 11.4467 18.0337C11.6344 17.8876 11.8187 17.7441 12 17.6051C12.1812 17.744 12.3654 17.8874 12.5529 18.0334C13.9205 19.0982 15.4635 20.2995 17.2756 20.8821C17.5743 20.9782 17.9356 21.0592 18.2486 20.9418L18.2499 20.9413C18.6528 20.7894 18.7696 20.4303 18.838 20.1586C18.9735 19.6195 18.999 19.0734 19 18.5269L18.9999 11.4405C18.9993 11.2808 18.9965 11.121 18.9893 10.9615C18.9934 10.7925 18.9962 10.6188 18.9979 10.4405C18.9993 10.2968 19 10.1499 19 10C19 4.05 17.95 3 12 3C6.05 3 5 4.05 5 10C5 10.3359 5.00335 10.6562 5.01073 10.9615C5.00304 11.1319 5.00034 11.3025 5.00003 11.4731L5.00012 18.5595ZM7.00003 11.4749L7.00012 18.5557C7.00021 18.5779 7.00035 18.5999 7.00054 18.6216C8.07874 18.1055 9.10345 17.3234 10.2181 16.4556L10.2212 16.4532C10.4067 16.3087 10.5959 16.1614 10.783 16.018C11.501 15.4675 12.499 15.4675 13.217 16.018C13.404 16.1614 13.5931 16.3086 13.7785 16.453L13.7818 16.4555C14.8964 17.3233 15.9212 18.1055 16.9994 18.6216C16.9997 18.59 16.9999 18.5577 17 18.5248L16.9999 11.4443C16.9993 11.3039 16.9968 11.1744 16.9913 11.0517C16.9892 11.0055 16.9887 10.9593 16.9899 10.9131C16.9968 10.6267 17 10.3229 17 10C17 8.54217 16.9329 7.52671 16.7836 6.79714C16.6387 6.08928 16.4484 5.81433 16.317 5.68296C16.1857 5.5516 15.9107 5.36129 15.2029 5.21641C14.4733 5.06708 13.4578 5 12 5C10.5422 5 9.52671 5.06708 8.79714 5.21641C8.08928 5.36129 7.81433 5.5516 7.68296 5.68296C7.5516 5.81433 7.36129 6.08928 7.21641 6.79714C7.06708 7.52671 7 8.54217 7 10C7 10.3229 7.00322 10.6267 7.01015 10.9131C7.01126 10.9593 7.01078 11.0055 7.0087 11.0517C7.00275 11.1834 7.00032 11.3228 7.00003 11.4749Z" fill="black"/>
</svg>
