<svg width="24" height="24" viewBox="0 0 24 24" fill="none" xmlns="http://www.w3.org/2000/svg">
<path fill-rule="evenodd" clip-rule="evenodd" d="M7 1H5V3.97157C2.57026 5.17934 2 7.75907 2 13C2 21.5 3.5 23 12 23C20.5 23 22 21.5 22 13C22 7.75907 21.4297 5.17934 19 3.97157V1H17V3.33782C15.6881 3.087 14.0471 3 12 3C9.95295 3 8.31189 3.087 7 3.33782V1ZM4.20091 9C4.06012 10.0321 4 11.3349 4 13C4 15.0953 4.09521 16.617 4.32657 17.7474C4.55348 18.856 4.87973 19.4263 5.22671 19.7733C5.5737 20.1203 6.14397 20.4465 7.2526 20.6734C8.38296 20.9048 9.90466 21 12 21C14.0953 21 15.617 20.9048 16.7474 20.6734C17.856 20.4465 18.4263 20.1203 18.7733 19.7733C19.1203 19.4263 19.4465 18.856 19.6734 17.7474C19.9048 16.617 20 15.0953 20 13C20 11.3349 19.9399 10.0321 19.7991 9H4.20091Z" fill="black"/>
</svg>
