<svg width="24" height="24" viewBox="0 0 24 24" fill="none" xmlns="http://www.w3.org/2000/svg">
<path fill-rule="evenodd" clip-rule="evenodd" d="M14.6784 10.3216C12.9163 8.55947 11.0837 8.55947 9.32159 10.3216C7.55947 12.0837 7.55947 13.9163 9.32159 15.6784C11.0837 17.4405 12.9163 17.4405 14.6784 15.6784C16.4405 13.9163 16.4405 12.0837 14.6784 10.3216ZM10.7358 11.7358C11.3848 11.0868 11.8046 11 12 11C12.1954 11 12.6152 11.0868 13.2642 11.7358C13.9132 12.3848 14 12.8046 14 13C14 13.1954 13.9132 13.6152 13.2642 14.2642C12.6152 14.9132 12.1954 15 12 15C11.8046 15 11.3848 14.9132 10.7358 14.2642C10.0868 13.6152 10 13.1954 10 13C10 12.8046 10.0868 12.3848 10.7358 11.7358Z" fill="black"/>
<path fill-rule="evenodd" clip-rule="evenodd" d="M22 13C22 7.90542 21.158 5.95415 17.1612 5.29585C16.3504 3.45699 14.815 3 12 3C9.18501 3 7.64959 3.45699 6.83881 5.29584C2.84196 5.95414 2 7.90541 2 13C2 19.8 3.5 21 12 21C20.5 21 22 19.8 22 13ZM16.8253 7.26747C15.6561 7.07602 14.1019 7 12 7C9.89811 7 8.34394 7.07602 7.17474 7.26747C6.00403 7.45916 5.40214 7.73954 5.06189 8.01174C4.45878 8.49423 4 9.50713 4 13C4 16.4929 4.45878 17.5058 5.06189 17.9883C5.40214 18.2605 6.00403 18.5408 7.17474 18.7325C8.34394 18.924 9.89811 19 12 19C14.1019 19 15.6561 18.924 16.8253 18.7325C17.996 18.5408 18.5979 18.2605 18.9381 17.9883C19.5412 17.5058 20 16.4929 20 13C20 9.50713 19.5412 8.49423 18.9381 8.01174C18.5979 7.73954 17.996 7.45916 16.8253 7.26747Z" fill="black"/>
</svg>
