<svg width="24" height="24" viewBox="0 0 24 24" fill="none" xmlns="http://www.w3.org/2000/svg">
<path d="M3 3C3 2.15 3.15 2 4 2C4.85 2 5 2.15 5 3V5H7C7.47518 5 7.7316 5.04688 7.86534 5.23673L7.86781 5.24027C7.97129 5.39023 8 5.62812 8 6C8 6.85 7.85 7 7 7H5V9C5 9.85 4.85 10 4 10C3.57563 10 3.32574 9.96261 3.18188 9.81938C3.03761 9.67573 3 9.42563 3 9V7H1C0.15 7 0 6.85 0 6C0 5.15 0.15 5 1 5H3V3Z" fill="black"/>
<path d="M13 11C12.8046 11 12.3848 11.0868 11.7358 11.7358C11.0868 12.3848 11 12.8046 11 13C11 13.1954 11.0868 13.6152 11.7358 14.2642C12.3848 14.9132 12.8046 15 13 15C13.1954 15 13.6152 14.9132 14.2642 14.2642C14.9132 13.6152 15 13.1954 15 13C15 12.8046 14.9132 12.3848 14.2642 11.7358C13.6152 11.0868 13.1954 11 13 11Z" fill="black"/>
<path fill-rule="evenodd" clip-rule="evenodd" d="M3 13C3 12.2244 3.01952 11.5216 3.06671 10.8852C3.14234 10.9103 3.21575 10.9289 3.28464 10.943C3.52102 10.9914 3.77267 11 4 11C4.22733 11 4.47898 10.9914 4.71536 10.943C4.96261 10.8924 5.2681 10.7836 5.52586 10.5259C5.78361 10.2681 5.89237 9.96261 5.94297 9.71536C5.99135 9.47898 6 9.22733 6 9V8H7C7.22733 8 7.47898 7.99135 7.71536 7.94297C7.96261 7.89237 8.2681 7.78361 8.52586 7.52586C8.78361 7.2681 8.89237 6.96261 8.94297 6.71536C8.99135 6.47898 9 6.22733 9 6C9 5.77267 8.99135 5.52102 8.94297 5.28464C8.89237 5.03739 8.78361 4.7319 8.52586 4.47414C8.48631 4.4346 8.44564 4.39856 8.40423 4.3657C9.30169 3.29519 10.7376 3 13 3C15.815 3 17.3504 3.45699 18.1612 5.29585C22.158 5.95415 23 7.90542 23 13C23 19.8 21.5 21 13 21C4.5 21 3 19.8 3 13ZM10.3216 10.3216C12.0837 8.55947 13.9163 8.55947 15.6784 10.3216C17.4405 12.0837 17.4405 13.9163 15.6784 15.6784C13.9163 17.4405 12.0837 17.4405 10.3216 15.6784C8.55947 13.9163 8.55947 12.0837 10.3216 10.3216Z" fill="black"/>
</svg>
