<svg width="24" height="24" viewBox="0 0 24 24" fill="none" xmlns="http://www.w3.org/2000/svg">
<path d="M3 3C3 2.15 3.15 2 4 2C4.85 2 5 2.15 5 3V5H7C7.47518 5 7.7316 5.04688 7.86534 5.23673L7.86781 5.24027C7.97129 5.39023 8 5.62812 8 6C8 6.85 7.85 7 7 7H5V9C5 9.85 4.85 10 4 10C3.57562 10 3.32574 9.96261 3.18188 9.81938C3.03761 9.67573 3 9.42562 3 9V7H1C0.15 7 0 6.85 0 6C0 5.15 0.15 5 1 5H3V3Z" fill="black"/>
<path d="M3 13C3 12.2244 3.01952 11.5216 3.06671 10.8852C3.14234 10.9103 3.21575 10.9289 3.28464 10.943C3.52102 10.9914 3.77267 11 4 11C4.22733 11 4.47898 10.9914 4.71536 10.943C4.82811 10.9199 4.95296 10.8847 5.07988 10.8289C5.02823 11.4198 5 12.1336 5 13C5 16.4929 5.45878 17.5058 6.06189 17.9883C6.40214 18.2605 7.00403 18.5408 8.17474 18.7325C9.34394 18.924 10.8981 19 13 19C15.1019 19 16.6561 18.924 17.8253 18.7325C18.996 18.5408 19.5979 18.2605 19.9381 17.9883C20.5412 17.5058 21 16.4929 21 13C21 9.50713 20.5412 8.49423 19.9381 8.01174C19.5979 7.73954 18.996 7.45916 17.8253 7.26747C16.6561 7.07602 15.1019 7 13 7C11.2413 7 9.86611 7.05322 8.779 7.18274C8.8649 7.02114 8.91368 6.85849 8.94297 6.71536C8.99135 6.47898 9 6.22733 9 6C9 5.77267 8.99135 5.52102 8.94297 5.28464C8.89237 5.03739 8.78361 4.7319 8.52586 4.47414C8.48631 4.4346 8.44564 4.39856 8.40423 4.3657C9.30169 3.29519 10.7376 3 13 3C15.815 3 17.3504 3.45699 18.1612 5.29585C22.158 5.95415 23 7.90542 23 13C23 19.8 21.5 21 13 21C4.5 21 3 19.8 3 13Z" fill="black"/>
<path d="M6.06189 8.01174C6.04108 8.02838 6.02045 8.04566 6 8.06364V8H6.07672L6.06189 8.01174Z" fill="black"/>
<path fill-rule="evenodd" clip-rule="evenodd" d="M15.6784 10.3216C13.9163 8.55947 12.0837 8.55947 10.3216 10.3216C8.55947 12.0837 8.55947 13.9163 10.3216 15.6784C12.0837 17.4405 13.9163 17.4405 15.6784 15.6784C17.4405 13.9163 17.4405 12.0837 15.6784 10.3216ZM11.7358 11.7358C12.3848 11.0868 12.8046 11 13 11C13.1954 11 13.6152 11.0868 14.2642 11.7358C14.9132 12.3848 15 12.8046 15 13C15 13.1954 14.9132 13.6152 14.2642 14.2642C13.6152 14.9132 13.1954 15 13 15C12.8046 15 12.3848 14.9132 11.7358 14.2642C11.0868 13.6152 11 13.1954 11 13C11 12.8046 11.0868 12.3848 11.7358 11.7358Z" fill="black"/>
</svg>
