<svg width="24" height="24" viewBox="0 0 24 24" fill="none" xmlns="http://www.w3.org/2000/svg">
<path d="M12 11C11.8046 11 11.3848 11.0868 10.7358 11.7358C10.0868 12.3848 10 12.8046 10 13C10 13.1954 10.0868 13.6152 10.7358 14.2642C11.3848 14.9132 11.8046 15 12 15C12.1954 15 12.6152 14.9132 13.2642 14.2642C13.9132 13.6152 14 13.1954 14 13C14 12.8046 13.9132 12.3848 13.2642 11.7358C12.6152 11.0868 12.1954 11 12 11Z" fill="black"/>
<path fill-rule="evenodd" clip-rule="evenodd" d="M17.1612 5.29585C21.158 5.95415 22 7.90542 22 13C22 19.8 20.5 21 12 21C3.5 21 2 19.8 2 13C2 7.90542 2.84196 5.95415 6.83881 5.29585C7.64959 3.45699 9.18501 3 12 3C14.815 3 16.3504 3.45699 17.1612 5.29585ZM9.32159 10.3216C11.0837 8.55947 12.9163 8.55947 14.6784 10.3216C16.4405 12.0837 16.4405 13.9163 14.6784 15.6784C12.9163 17.4405 11.0837 17.4405 9.32159 15.6784C7.55947 13.9163 7.55947 12.0837 9.32159 10.3216Z" fill="black"/>
</svg>
