<svg width="24" height="24" viewBox="0 0 24 24" fill="none" xmlns="http://www.w3.org/2000/svg">
<path fill-rule="evenodd" clip-rule="evenodd" d="M2 2V4H3.45563L5.78166 8.08662C5.92138 8.34233 6.06844 8.59438 6.21531 8.84609C6.35168 9.0798 6.48727 9.31382 6.62134 9.54813C6.89542 10.0271 7.17073 10.5082 7.48519 10.9614C7.50261 10.9865 7.52015 11.0116 7.53781 11.0365C7.79753 11.403 8.09024 11.7452 8.43301 12.0333C8.28461 12.2797 8.13293 12.5337 7.99117 12.7838C7.93091 12.8901 7.86962 12.9967 7.8075 13.1035C7.66264 13.3527 7.53188 13.6035 7.41179 13.8531C7.29435 14.0972 7.17699 14.3741 7.093 14.6779C7.05693 14.8083 7.02119 14.9677 7.00661 15.1455C6.99358 15.3045 6.99741 15.4875 7.04023 15.6838C7.12574 16.0757 7.35332 16.3967 7.68093 16.6163C8.01105 16.8376 8.3644 16.8984 8.53864 16.9275L9.16043 16.9839L9.70431 16.9959L10.9651 16.9998L10.9696 16.9998L11.6856 17H20V15H11.6824C11.4453 15.0001 11.2095 15.0002 10.973 14.9998L10.9705 14.9998C10.5506 14.9991 10.1332 14.9984 9.71613 14.9959C9.55424 14.995 9.39755 14.9921 9.24432 14.9857C9.19114 14.9835 9.14334 14.9812 9.09973 14.9785C9.13183 14.8976 9.16987 14.812 9.214 14.7203C9.31523 14.51 9.42186 14.306 9.53658 14.1087C9.60176 13.9966 9.66674 13.8836 9.73115 13.7699C9.88872 13.4919 10.0492 13.226 10.2176 12.9471L10.2645 12.8693C10.3232 12.8803 10.382 12.8903 10.4409 12.8993C11.1204 13.0033 11.8092 13.001 12.4959 12.9987C12.8078 12.9977 13.119 12.9977 13.431 12.9987C14.1177 13.001 14.8067 13.0033 15.4862 12.8993C16.0749 12.8092 16.66 12.6193 17.1573 12.2867C17.6505 11.9569 18.0483 11.5176 18.3892 11.0365C18.7258 10.5616 19.016 10.0545 19.3052 9.54905C19.4397 9.31397 19.575 9.07922 19.7116 8.84514C20.0569 8.25338 20.4033 7.65966 20.6527 7.02094C20.7806 6.69348 20.8775 6.34962 20.9269 6H20.93C20.93 6 21.0072 5.51484 20.9908 5.27163C20.9612 4.83237 20.8527 4.40843 20.6974 4H19V4.00174H5.75537L5 2.67492L4.61033 2H2ZM6.89202 5.99828L7.59985 7.24158L7.65967 7.34742C7.73757 7.48431 7.82109 7.62785 7.91064 7.78175C8.05392 8.02798 8.22329 8.32069 8.37145 8.57927C8.65942 9.08186 8.8938 9.4909 9.16962 9.88013C9.4232 10.238 9.65606 10.4734 9.88153 10.6242C10.0739 10.7529 10.361 10.8638 10.7434 10.9223C11.2559 11.0008 11.7567 10.9997 12.4244 10.9983C12.7607 10.9976 13.1665 10.9976 13.5028 10.9983C14.1705 10.9997 14.6711 11.0008 15.1836 10.9223C15.566 10.8638 15.8531 10.7529 16.0455 10.6242C16.271 10.4734 16.5038 10.238 16.7574 9.88013C17.0333 9.49087 17.268 9.08122 17.556 8.57858C17.7049 8.31859 17.8737 8.0258 18.0165 7.78036C18.1608 7.53237 18.2705 7.35323 18.3807 7.17317C18.5265 6.93522 18.6732 6.69566 18.902 6.29346C18.9451 6.21764 18.9652 6.13718 18.9842 6.06112C18.9894 6.04036 18.9945 6.01992 19 6V5.99828H6.89202Z" fill="black"/>
<path d="M16.6608 18.6608C17.5419 17.7797 18.4581 17.7797 19.3392 18.6608C20.2203 19.5419 20.2203 20.4581 19.3392 21.3392C18.4581 22.2203 17.5419 22.2203 16.6608 21.3392C15.7797 20.4581 15.7797 19.5419 16.6608 18.6608Z" fill="black"/>
<path d="M9.33921 18.6608C8.45815 17.7797 7.54185 17.7797 6.66079 18.6608C5.77974 19.5419 5.77974 20.4581 6.66079 21.3392C7.54185 22.2203 8.45815 22.2203 9.33921 21.3392C10.2203 20.4581 10.2203 19.5419 9.33921 18.6608Z" fill="black"/>
</svg>
