<svg width="24" height="24" viewBox="0 0 24 24" fill="none" xmlns="http://www.w3.org/2000/svg">
<path d="M12.0017 1V4.00173H9L9 5.99827L12.0017 5.99827V8.5H13.9983V5.99827L17 5.99827V4.00173H13.9983V1H12.0017Z" fill="black"/>
<path d="M20.699 4H18.4973C18.5718 4.14081 18.6417 4.28019 18.7074 4.42238C18.8914 4.82024 18.9791 5.1381 18.9972 5.40637C19.0126 5.63444 18.9659 5.93552 18.8261 6.29346C18.6385 6.77406 18.3879 7.20462 18.053 7.7803C17.9677 7.9268 17.8767 8.08328 17.7801 8.25179C17.7146 8.36539 17.6522 8.47425 17.5921 8.57904C17.3041 9.08168 17.0697 9.49087 16.7938 9.88013C16.5403 10.238 16.3074 10.4734 16.0819 10.6242C15.8895 10.7529 15.6025 10.8638 15.22 10.9223C14.7075 11.0008 14.207 10.9997 13.5392 10.9983C13.3711 10.9979 13.1922 10.9976 13 10.9984C12.8024 10.9984 12.6036 10.9979 12.4244 10.9983C11.7567 10.9997 11.2559 11.0008 10.7434 10.9223C10.361 10.8638 10.0739 10.7529 9.88153 10.6242C9.65606 10.4734 9.4232 10.238 9.16962 9.88013C8.89378 9.49087 8.65945 9.08189 8.37145 8.57927C8.22329 8.32069 8.05392 8.02798 7.91064 7.78175C7.82109 7.62784 7.73757 7.48431 7.65967 7.34742L7.59985 7.24158L5 2.67492L4.61033 2H2V4H3.45563L5.78166 8.08661C5.92146 8.34248 6.06862 8.59468 6.21557 8.84653C6.35194 9.08024 6.48727 9.31382 6.62134 9.54813C6.89542 10.0271 7.17073 10.5082 7.48519 10.9614C7.50261 10.9865 7.52014 11.0116 7.53781 11.0365C7.79753 11.403 8.09024 11.7452 8.43301 12.0333C8.28461 12.2797 8.13293 12.5337 7.99116 12.7838C7.93091 12.8901 7.86962 12.9967 7.8075 13.1035C7.66264 13.3527 7.53188 13.6035 7.41179 13.8531C7.29435 14.0972 7.17699 14.3741 7.093 14.6779C7.05694 14.8083 7.02119 14.9677 7.00661 15.1455C6.99358 15.3045 6.99741 15.4875 7.04023 15.6838C7.12573 16.0757 7.35332 16.3967 7.68093 16.6163C8.01105 16.8376 8.3644 16.8984 8.53864 16.9275L9.16043 16.9839L9.70431 16.9959L10.9651 16.9998L10.9696 16.9998L11.6856 17H20V15L11.6824 15C11.4453 15.0001 11.2095 15.0002 10.973 14.9998L10.9705 14.9998C10.5508 14.9991 10.133 14.9984 9.71612 14.9959C9.55424 14.995 9.39755 14.9921 9.24432 14.9857C9.19113 14.9835 9.14334 14.9812 9.09973 14.9785C9.13183 14.8976 9.16987 14.812 9.214 14.7203C9.31523 14.51 9.42185 14.306 9.53658 14.1087C9.60176 13.9966 9.66674 13.8836 9.73115 13.7699C9.88871 13.4919 10.0492 13.226 10.2175 12.9471C10.2331 12.9213 10.2488 12.8953 10.2645 12.8692C10.3232 12.8803 10.382 12.8903 10.4409 12.8993C11.1204 13.0033 11.8092 13.001 12.4959 12.9987C12.6641 12.9982 12.832 12.9979 13 12.998C13.1555 12.9972 13.3113 12.9982 13.4671 12.9987C14.1538 13.001 14.8431 13.0033 15.5226 12.8993C16.1113 12.8092 16.6964 12.6193 17.1938 12.2867C17.687 11.9569 18.0847 11.5176 18.4256 11.0365C18.7623 10.5615 19.0525 10.0543 19.3417 9.54879C19.399 9.44875 19.4564 9.34841 19.5139 9.24876C19.5911 9.11399 19.6695 8.97963 19.748 8.84517C20.0933 8.2534 20.4397 7.65967 20.6891 7.02094C20.9052 6.46756 21.0329 5.86738 20.9926 5.27163C20.963 4.83237 20.8544 4.40843 20.699 4Z" fill="black"/>
<path d="M16.6608 18.6608C17.5419 17.7797 18.4581 17.7797 19.3392 18.6608C20.2203 19.5419 20.2203 20.4581 19.3392 21.3392C18.4581 22.2203 17.5419 22.2203 16.6608 21.3392C15.7797 20.4581 15.7797 19.5419 16.6608 18.6608Z" fill="black"/>
<path d="M9.33921 18.6608C8.45815 17.7797 7.54185 17.7797 6.66079 18.6608C5.77974 19.5419 5.77974 20.4581 6.66079 21.3392C7.54185 22.2203 8.45815 22.2203 9.33921 21.3392C10.2203 20.4581 10.2203 19.5419 9.33921 18.6608Z" fill="black"/>
</svg>
