<svg width="24" height="24" viewBox="0 0 24 24" fill="none" xmlns="http://www.w3.org/2000/svg">
<path fill-rule="evenodd" clip-rule="evenodd" d="M7 4C1.9 4 1 4.9 1 10C1 15.1 1.9 16 7 16H13C18.1 16 19 15.1 19 10C19 4.9 18.1 4 13 4H7ZM12.0088 7.99119C10.6872 6.66961 9.31277 6.66961 7.99119 7.99119C6.6696 9.31277 6.6696 10.6872 7.99119 12.0088C9.31277 13.3304 10.6872 13.3304 12.0088 12.0088C13.3304 10.6872 13.3304 9.31277 12.0088 7.99119Z" fill="black"/>
<path d="M4.33334 18C4.22041 18 4.10931 17.9997 4 17.9991V19.9991C4.10981 19.9997 4.22092 20 4.33334 20H13.6667C21.6 20 23 18.575 23 10.5C23 9.15754 22.9613 7.99887 22.8603 7H20.849C20.9542 7.92705 21 9.07199 21 10.5C21 12.4897 20.9111 13.9298 20.6965 14.9967C20.4859 16.0441 20.1857 16.567 19.8817 16.8765C19.5809 17.1826 19.0779 17.482 18.064 17.6932C17.0261 17.9094 15.6197 18 13.6667 18H4.33334Z" fill="black"/>
</svg>
