<svg width="24" height="24" viewBox="0 0 24 24" fill="none" xmlns="http://www.w3.org/2000/svg">
<path d="M12.0088 7.99119C10.6872 6.66961 9.31277 6.66961 7.99119 7.99119C6.6696 9.31277 6.6696 10.6872 7.99119 12.0088C9.31277 13.3304 10.6872 13.3304 12.0088 12.0088C13.3304 10.6872 13.3304 9.31277 12.0088 7.99119Z" fill="black"/>
<path fill-rule="evenodd" clip-rule="evenodd" d="M1 10C1 4.9 1.9 4 7 4H13C18.1 4 19 4.9 19 10C19 15.1 18.1 16 13 16H7C1.9 16 1 15.1 1 10ZM3.17969 7.31198C3.05771 7.90796 3 8.75467 3 10C3 11.2453 3.05771 12.092 3.17969 12.688C3.29723 13.2623 3.44223 13.4388 3.50171 13.4983C3.5612 13.5578 3.73772 13.7028 4.31198 13.8203C4.90796 13.9423 5.75467 14 7 14H13C14.2453 14 15.092 13.9423 15.688 13.8203C16.2623 13.7028 16.4388 13.5578 16.4983 13.4983C16.5578 13.4388 16.7028 13.2623 16.8203 12.688C16.9423 12.092 17 11.2453 17 10C17 8.75467 16.9423 7.90796 16.8203 7.31198C16.7028 6.73772 16.5578 6.5612 16.4983 6.50171C16.4388 6.44223 16.2623 6.29723 15.688 6.17969C15.092 6.05771 14.2453 6 13 6H7C5.75467 6 4.90796 6.05771 4.31198 6.17969C3.73772 6.29723 3.5612 6.44223 3.50171 6.50171C3.44223 6.5612 3.29723 6.73772 3.17969 7.31198Z" fill="black"/>
<path d="M4.33333 18C4.22041 18 4.10931 17.9997 4 17.9991V19.9991C4.10981 19.9997 4.22092 20 4.33333 20H13.6667C21.6 20 23 18.575 23 10.5C23 9.15754 22.9613 7.99887 22.8603 7H20.849C20.9542 7.92705 21 9.07199 21 10.5C21 12.4897 20.9111 13.9298 20.6965 14.9967C20.4859 16.0441 20.1857 16.567 19.8817 16.8765C19.5809 17.1826 19.0779 17.482 18.064 17.6932C17.0261 17.9094 15.6197 18 13.6667 18H4.33333Z" fill="black"/>
</svg>
