<svg width="24" height="24" viewBox="0 0 24 24" fill="none" xmlns="http://www.w3.org/2000/svg">
<path d="M17.09 7.58L10.5 14.17L6.91 10.59L5.5 12L10.5 17L18.5 9L17.09 7.58Z" fill="black"/>
<path fill-rule="evenodd" clip-rule="evenodd" d="M12 2C3.5 2 2 3.5 2 12C2 20.5 3.5 22 12 22C20.5 22 22 20.5 22 12C22 3.5 20.5 2 12 2ZM4 12C4 9.90466 4.09521 8.38296 4.32656 7.25261C4.55348 6.14397 4.87973 5.5737 5.22672 5.22671C5.5737 4.87973 6.14397 4.55348 7.25261 4.32657C8.38296 4.09521 9.90466 4 12 4C14.0953 4 15.617 4.09521 16.7474 4.32657C17.856 4.55348 18.4263 4.87973 18.7733 5.22671C19.1203 5.5737 19.4465 6.14397 19.6734 7.25261C19.9048 8.38296 20 9.90466 20 12C20 14.0953 19.9048 15.617 19.6734 16.7474C19.4465 17.856 19.1203 18.4263 18.7733 18.7733C18.4263 19.1203 17.856 19.4465 16.7474 19.6734C15.617 19.9048 14.0953 20 12 20C9.90466 20 8.38296 19.9048 7.25261 19.6734C6.14397 19.4465 5.5737 19.1203 5.22672 18.7733C4.87973 18.4263 4.55348 17.856 4.32656 16.7474C4.09521 15.617 4 14.0953 4 12Z" fill="black"/>
</svg>
