<svg width="24" height="24" viewBox="0 0 24 24" fill="none" xmlns="http://www.w3.org/2000/svg">
<path fill-rule="evenodd" clip-rule="evenodd" d="M12 4C10.4566 4 8.68877 4.74759 6.71818 6.71818C4.74759 8.68877 4 10.4566 4 12C4 13.5434 4.74759 15.3112 6.71818 17.2818C8.68877 19.2524 10.4566 20 12 20C13.5434 20 15.3112 19.2524 17.2818 17.2818C19.2524 15.3112 20 13.5434 20 12C20 10.4566 19.2524 8.68877 17.2818 6.71818C15.3112 4.74759 13.5434 4 12 4ZM5.30397 5.30397C9.70925 0.898678 14.2907 0.898678 18.696 5.30397C23.1013 9.70925 23.1013 14.2907 18.696 18.696C14.2907 23.1013 9.70925 23.1013 5.30397 18.696C0.898678 14.2907 0.898678 9.70925 5.30397 5.30397Z" fill="black"/>
</svg>
