<svg width="24" height="24" viewBox="0 0 24 24" fill="none" xmlns="http://www.w3.org/2000/svg">
<path fill-rule="evenodd" clip-rule="evenodd" d="M6.70229 18.709C10.4418 21.9764 14.304 21.7489 18.0264 18.0264C20.0102 16.0427 21.0014 14.0192 21 11.9958V3H12C9.97797 3 7.95595 3.99119 5.97357 5.97357C2.25218 9.69495 2.02375 13.5561 5.28828 17.2946L3.45078 19.1321C2.84974 19.7331 2.84974 19.9453 3.45078 20.5463C4.05182 21.1474 4.26395 21.1474 4.86499 20.5463L6.70229 18.709ZM10.67 16.89L15.83 12.26C16.16 11.96 15.98 11.41 15.53 11.37L11.48 10.97L13.92 7.64001C14.04 7.48 14.02 7.26 13.88 7.12C13.73 6.97001 13.48 6.96001 13.32 7.11001L8.15999 11.74C7.82999 12.04 8.01999 12.59 8.45999 12.63L12.51 13.03L10.07 16.36C9.94999 16.52 9.96999 16.74 10.11 16.88C10.26 17.03 10.51 17.04 10.67 16.89Z" fill="black"/>
</svg>
