<svg width="24" height="24" viewBox="0 0 24 24" fill="none" xmlns="http://www.w3.org/2000/svg">
<path d="M11.3304 11.3304C11.7709 10.8899 12.2291 10.8899 12.6696 11.3304C13.1101 11.7709 13.1101 12.2291 12.6696 12.6696C12.2291 13.1101 11.7709 13.1101 11.3304 12.6696C10.8899 12.2291 10.8899 11.7709 11.3304 11.3304Z" fill="black"/>
<path fill-rule="evenodd" clip-rule="evenodd" d="M18.696 5.30397C14.2907 0.898678 9.70925 0.898678 5.30397 5.30397C0.898678 9.70925 0.898678 14.2907 5.30397 18.696C9.70925 23.1013 14.2907 23.1013 18.696 18.696C23.1013 14.2907 23.1013 9.70925 18.696 5.30397ZM15.0132 8.98678C13.0308 7.00441 10.9692 7.00441 8.98678 8.98678C7.00441 10.9692 7.00441 13.0308 8.98678 15.0132C10.9692 16.9956 13.0308 16.9956 15.0132 15.0132C16.9956 13.0308 16.9956 10.9692 15.0132 8.98678Z" fill="black"/>
</svg>
