<svg width="24" height="24" viewBox="0 0 24 24" fill="none" xmlns="http://www.w3.org/2000/svg">
<path fill-rule="evenodd" clip-rule="evenodd" d="M22 10C22 3.2 20.5 2 12 2C3.5 2 2 3.2 2 10C2 14.7164 2.72161 16.7389 6 17.5354V22L11.4569 17.9983C11.6347 17.9994 11.8157 18 12 18C20.5 18 22 16.8 22 10ZM12 4C14.1019 4 15.6561 4.07602 16.8253 4.26747C17.996 4.45916 18.5979 4.73954 18.9381 5.01174C19.5412 5.49423 20 6.50713 20 10C20 13.4929 19.5412 14.5058 18.9381 14.9883C18.5979 15.2605 17.996 15.5408 16.8253 15.7325C15.6561 15.924 14.1019 16 12 16C9.89811 16 8.34394 15.924 7.17474 15.7325C6.00403 15.5408 5.40214 15.2605 5.06189 14.9883C4.45878 14.5058 4 13.4929 4 10C4 6.50713 4.45878 5.49423 5.06189 5.01174C5.40214 4.73954 6.00403 4.45916 7.17474 4.26747C8.34394 4.07602 9.89811 4 12 4Z" fill="black"/>
</svg>
