<svg width="24" height="24" viewBox="0 0 24 24" fill="none" xmlns="http://www.w3.org/2000/svg">
<path fill-rule="evenodd" clip-rule="evenodd" d="M22 12C22 5.2 20.5 4 12 4C3.5 4 2 5.2 2 12C2 18.8 3.5 20 12 20C20.5 20 22 18.8 22 12ZM12 6C14.1019 6 15.6561 6.07602 16.8253 6.26747C17.996 6.45916 18.5979 6.73954 18.9381 7.01174C19.1842 7.20865 19.4063 7.4939 19.583 8H4.41698C4.59366 7.4939 4.81575 7.20865 5.06189 7.01174C5.40214 6.73954 6.00403 6.45916 7.17474 6.26747C8.34394 6.07602 9.89811 6 12 6ZM20 12L4 12C4 15.4929 4.45878 16.5058 5.06189 16.9883C5.40214 17.2605 6.00403 17.5408 7.17474 17.7325C8.34394 17.924 9.89811 18 12 18C14.1019 18 15.6561 17.924 16.8253 17.7325C17.996 17.5408 18.5979 17.2605 18.9381 16.9883C19.5412 16.5058 20 15.4929 20 12Z" fill="black"/>
</svg>
