<svg width="24" height="24" viewBox="0 0 24 24" fill="none" xmlns="http://www.w3.org/2000/svg">
<path d="M7.75 11H9.25V15.0507C9.87032 15.1693 10 15.5321 10 16.5C10 17.4679 9.87032 17.8307 9.25 17.9493V19H7.75V17.9493C7.12968 17.8307 7 17.4679 7 16.5C7 15.5321 7.12968 15.1693 7.75 15.0507V11Z" fill="black"/>
<path d="M14.75 19V14.9493C14.1297 14.8307 14 14.4679 14 13.5C14 12.5321 14.1297 12.1693 14.75 12.0507V11H16.25V12.0507C16.8703 12.1693 17 12.5321 17 13.5C17 14.4679 16.8703 14.8307 16.25 14.9493L16.25 19H14.75Z" fill="black"/>
<path fill-rule="evenodd" clip-rule="evenodd" d="M5 1H7V3.33782C8.31189 3.087 9.95295 3 12 3C14.0471 3 15.6881 3.087 17 3.33782V1H19V3.97157C21.4297 5.17934 22 7.75907 22 13C22 21.5 20.5 23 12 23C3.5 23 2 21.5 2 13C2 7.75907 2.57026 5.17934 5 3.97157V1ZM4 13C4 11.8324 4.02956 10.8429 4.09578 10H19.9042C19.9704 10.8429 20 11.8324 20 13C20 15.0953 19.9048 16.617 19.6734 17.7474C19.4465 18.856 19.1203 19.4263 18.7733 19.7733C18.4263 20.1203 17.856 20.4465 16.7474 20.6734C15.617 20.9048 14.0953 21 12 21C9.90466 21 8.38296 20.9048 7.2526 20.6734C6.14397 20.4465 5.5737 20.1203 5.22671 19.7733C4.87973 19.4263 4.55348 18.856 4.32657 17.7474C4.09521 16.617 4 15.0953 4 13ZM18.7733 6.22671C19.0929 6.54631 19.3949 7.05534 19.6179 8H4.38211C4.60511 7.05534 4.90711 6.54631 5.22671 6.22671C5.5737 5.87973 6.14397 5.55348 7.2526 5.32657C8.38296 5.09521 9.90466 5 12 5C14.0953 5 15.617 5.09521 16.7474 5.32657C17.856 5.55348 18.4263 5.87973 18.7733 6.22671Z" fill="black"/>
</svg>
