<svg width="24" height="24" viewBox="0 0 24 24" fill="none" xmlns="http://www.w3.org/2000/svg">
<path d="M14 12V14.5L17.5 11L14 7.5V10H9C8.45 10 8 10.45 8 11V15H10V12H14Z" fill="black"/>
<path fill-rule="evenodd" clip-rule="evenodd" d="M18.1069 5.89313C12.916 0.70229 11.084 0.70229 5.89313 5.89313C0.70229 11.084 0.70229 12.916 5.89313 18.1069C11.084 23.2977 12.916 23.2977 18.1069 18.1069C23.2977 12.916 23.2977 11.084 18.1069 5.89313ZM7.30734 7.30734C8.58408 6.03061 9.55566 5.17559 10.3634 4.64235C11.1526 4.12133 11.6479 4 12 4C12.3521 4 12.8474 4.12133 13.6366 4.64235C14.4443 5.17559 15.4159 6.03061 16.6927 7.30734C17.9694 8.58408 18.8244 9.55566 19.3576 10.3634C19.8787 11.1526 20 11.6479 20 12C20 12.3521 19.8787 12.8474 19.3576 13.6366C18.8244 14.4443 17.9694 15.4159 16.6927 16.6927C15.4159 17.9694 14.4443 18.8244 13.6366 19.3576C12.8474 19.8787 12.3521 20 12 20C11.6479 20 11.1526 19.8787 10.3634 19.3576C9.55566 18.8244 8.58408 17.9694 7.30734 16.6927C6.03061 15.4159 5.17559 14.4443 4.64235 13.6366C4.12133 12.8474 4 12.3521 4 12C4 11.6479 4.12133 11.1526 4.64235 10.3634C5.17559 9.55566 6.03061 8.58408 7.30734 7.30734Z" fill="black"/>
</svg>
