<svg width="24" height="24" viewBox="0 0 24 24" fill="none" xmlns="http://www.w3.org/2000/svg">
<path d="M10.0341 6.61367C10.0341 5.67917 9.54817 5.19323 8.61367 5.19323C7.67917 5.19323 7.19323 5.67917 7.19323 6.61367C7.19323 7.54817 7.67917 8.03412 8.61367 8.03412C9.54817 8.03412 10.0341 7.54817 10.0341 6.61367Z" fill="black"/>
<path fill-rule="evenodd" clip-rule="evenodd" d="M13.2092 2.01685L16.7454 5.55301C20.6522 9.45978 20.6522 10.8386 16.7454 14.7454C12.8386 18.6522 11.4598 18.6522 7.55301 14.7454L4.01685 11.2092C3.2104 10.4022 3 8.99886 3 6.61367C3 1.84205 3.84205 1 8.61367 1C10.9989 1 12.4022 1.2104 13.2092 2.01685ZM5.16551 4.12455C5.05409 4.66892 5 5.45043 5 6.61367C5 7.77659 5.05405 8.55801 5.16542 9.10239C5.27236 9.62512 5.39985 9.76378 5.43161 9.79557L8.96723 13.3312C9.92294 14.2869 10.6254 14.9012 11.19 15.2739C11.7361 15.6344 12.0143 15.6755 12.1492 15.6755C12.2842 15.6755 12.5623 15.6344 13.1084 15.2739C13.673 14.9012 14.3755 14.2869 15.3312 13.3312C16.2869 12.3755 16.9012 11.673 17.2739 11.1084C17.6344 10.5623 17.6755 10.2842 17.6755 10.1492C17.6755 10.0143 17.6344 9.73609 17.2739 9.19001C16.9012 8.62543 16.2869 7.92294 15.3312 6.96722L11.7956 3.43161C11.7635 3.39962 11.6244 3.27222 11.1024 3.16542C10.558 3.05405 9.77659 3 8.61367 3C7.45043 3 6.66892 3.05409 6.12455 3.16551C5.6019 3.27248 5.46341 3.39997 5.43169 3.43169C5.39997 3.46341 5.27248 3.6019 5.16551 4.12455Z" fill="black"/>
<path d="M4.37103 17.2203C3.53623 16.3848 3.1724 15.0782 3.07453 13.0953L6.92452 16.9453C8.31274 18.3336 9.37586 19.2618 10.2685 19.835C11.1355 20.3916 11.712 20.5288 12.1646 20.5146C12.6339 20.4998 13.2634 20.3127 14.2141 19.6685C15.1769 19.0161 16.323 17.9963 17.8061 16.5132C18.6294 15.6899 19.3099 14.9705 19.8641 14.3286L21.2818 15.7463C20.6969 16.4165 20.0099 17.1378 19.2203 17.9274C13.2099 23.9378 11.1534 24.0027 5.51031 18.3596L4.37103 17.2203Z" fill="black"/>
</svg>
