<svg width="24" height="24" viewBox="0 0 24 24" fill="none" xmlns="http://www.w3.org/2000/svg">
<path d="M4.37103 17.2203C3.53623 16.3848 3.1724 15.0782 3.07453 13.0953L6.92452 16.9453C8.31274 18.3336 9.37586 19.2618 10.2685 19.835C11.1355 20.3916 11.712 20.5288 12.1646 20.5146C12.6339 20.4998 13.2634 20.3127 14.2141 19.6685C15.1769 19.0161 16.323 17.9963 17.8061 16.5132C18.6294 15.6899 19.3099 14.9705 19.8641 14.3286L21.2818 15.7463C20.6969 16.4165 20.0099 17.1378 19.2203 17.9274C13.2099 23.9378 11.1534 24.0027 5.51031 18.3596L4.37103 17.2203Z" fill="black"/>
<path fill-rule="evenodd" clip-rule="evenodd" d="M16.7454 5.55301L13.2092 2.01685C12.4022 1.2104 10.9989 1 8.61367 1C3.84205 1 3 1.84205 3 6.61367C3 8.99886 3.2104 10.4022 4.01685 11.2092L7.55301 14.7454C11.4598 18.6522 12.8386 18.6522 16.7454 14.7454C20.6522 10.8386 20.6522 9.45978 16.7454 5.55301ZM10.0341 6.61367C10.0341 5.67917 9.54817 5.19323 8.61367 5.19323C7.67917 5.19323 7.19323 5.67917 7.19323 6.61367C7.19323 7.54817 7.67917 8.03412 8.61367 8.03412C9.54817 8.03412 10.0341 7.54817 10.0341 6.61367Z" fill="black"/>
</svg>
