<svg width="24" height="24" viewBox="0 0 24 24" fill="none" xmlns="http://www.w3.org/2000/svg">
<path d="M10.9998 13V4H12.9998V13C13.8225 12.2064 14.9507 11.0626 15.5842 10.4202C15.7747 10.2271 15.9205 10.0793 15.9998 10L17.4284 11.4628L14.4998 14.3913C13.4373 15.4538 12.7185 15.9851 11.9998 15.9851C11.281 15.9851 10.5623 15.4538 9.49978 14.3913L6.57121 11.4628L7.99978 10C8.07911 10.0793 8.22487 10.2271 8.41533 10.4202C9.04889 11.0626 10.1771 12.2064 10.9998 13Z" fill="black"/>
<path d="M11.9998 20C6.35393 20 4.56845 19.1728 4.125 15H6.13789C6.1701 15.2615 6.20831 15.4998 6.25291 15.7177C6.42513 16.5592 6.66076 16.9325 6.86399 17.1358C7.06723 17.339 7.44062 17.5746 8.28207 17.7469C9.14524 17.9235 10.3294 18 11.9998 18C13.6701 18 14.8543 17.9235 15.7175 17.7469C16.5589 17.5746 16.9323 17.339 17.1356 17.1358C17.3388 16.9325 17.5744 16.5592 17.7467 15.7177C17.7912 15.4998 17.8295 15.2615 17.8617 15H19.8746C19.4311 19.1728 17.6456 20 11.9998 20Z" fill="black"/>
</svg>
