<svg width="24" height="24" viewBox="0 0 24 24" fill="none" xmlns="http://www.w3.org/2000/svg">
<path d="M13.9682 6.06823L4.59012 15.4463L4.59235 15.4485C4.51537 15.5225 4.43607 15.6004 4.35419 15.6822C2.66967 17.3668 3.033 20.967 3.033 20.967C3.033 20.967 6.63324 21.3303 8.31776 19.6458C8.39964 19.5639 8.47753 19.4846 8.55145 19.4077L8.55368 19.4099L17.9318 10.0318L13.9682 6.06823Z" fill="black"/>
<path d="M18.9934 8.97013L19.8782 8.0854L19.8774 8.08464C21.4197 6.50744 21.3728 5.89959 19.7366 4.26339C18.1004 2.62719 17.4926 2.58026 15.9154 4.12259L15.9146 4.12183L15.0299 5.00656L18.9934 8.97013Z" fill="black"/>
</svg>
