<svg width="24" height="24" viewBox="0 0 24 24" fill="none" xmlns="http://www.w3.org/2000/svg">
<path fill-rule="evenodd" clip-rule="evenodd" d="M17.5792 10.3843L17.9318 10.0318L13.9682 6.06823L4.59235 15.4485C4.52427 15.5139 4.45437 15.5824 4.38248 15.654L4.35419 15.6822L4.34219 15.6943C4.31318 15.7236 4.28479 15.7535 4.25699 15.784C2.68385 17.5072 3.033 20.967 3.033 20.967C3.033 20.967 6.49527 21.3164 8.21787 19.7413L8.45076 19.5115C8.48511 19.4764 8.51867 19.4418 8.55145 19.4077L8.55373 19.4098L17.5792 10.3843ZM5.7684 17.0965C5.459 17.4059 5.20562 18.045 5.08181 18.9182C5.95501 18.7944 6.59414 18.541 6.90354 18.2316C7.45352 17.6816 8.00279 17.1309 8.55353 16.5816L15.1033 10.0318L13.9682 8.89665L7.41873 15.4461C6.86936 15.997 6.3185 16.5464 5.7684 17.0965Z" fill="black"/>
<path d="M18.9934 8.97013L19.2723 8.69129L19.878 8.08554L19.8774 8.08464C20.0713 7.88641 20.24 7.70348 20.3836 7.53191C21.3828 6.33839 21.1672 5.69393 19.7366 4.26339C18.3061 2.83284 17.6616 2.61716 16.4681 3.61635C16.2965 3.75999 16.1136 3.92874 15.9154 4.12259L15.9146 4.12183L15.0299 5.00656L18.9934 8.97013Z" fill="black"/>
</svg>
