<svg width="24" height="24" viewBox="0 0 24 24" fill="none" xmlns="http://www.w3.org/2000/svg">
<path fill-rule="evenodd" clip-rule="evenodd" d="M12 4C3.5 4 2 5.2 2 12C2 18.8 3.5 20 12 20C20.5 20 22 18.8 22 12C22 5.2 20.5 4 12 4ZM4.62678 7.529C4.75841 7.29807 4.90529 7.13702 5.06189 7.01174C5.40214 6.73954 6.00403 6.45916 7.17474 6.26747C8.34394 6.07602 9.89811 6 12 6C14.1019 6 15.6561 6.07602 16.8253 6.26747C17.996 6.45916 18.5979 6.73954 18.9381 7.01174C19.0708 7.11788 19.1965 7.24969 19.3118 7.42792C18.8134 7.8054 18.0878 8.26765 17.0714 8.85447C14.5095 10.3336 13.1664 10.8245 11.9879 10.8322C10.8095 10.84 9.46 10.3666 6.879 8.92118C5.85953 8.35025 5.12986 7.89901 4.62678 7.529ZM4.10226 9.59431C4.03643 10.2283 4 11.0157 4 12C4 15.4929 4.45878 16.5058 5.06189 16.9883C5.40214 17.2605 6.00403 17.5408 7.17474 17.7325C8.34394 17.924 9.89811 18 12 18C14.1019 18 15.6561 17.924 16.8253 17.7325C17.996 17.5408 18.5979 17.2605 18.9381 16.9883C19.5412 16.5058 20 15.4929 20 12C20 10.9517 19.9587 10.1268 19.8845 9.47255C19.3753 9.81453 18.7709 10.1827 18.0714 10.5865C12.9186 13.5615 11.0931 13.5735 5.90176 10.6662C5.20985 10.2787 4.61003 9.9244 4.10226 9.59431Z" fill="black"/>
</svg>
