<svg width="24" height="24" viewBox="0 0 24 24" fill="none" xmlns="http://www.w3.org/2000/svg">
<path fill-rule="evenodd" clip-rule="evenodd" d="M2 12C2 5.2 3.5 4 12 4C20.5 4 22 5.2 22 12C22 18.8 20.5 20 12 20C3.5 20 2 18.8 2 12ZM17.3214 9.28748C18.291 8.72772 19.0166 8.26998 19.5395 7.88206C19.6857 8.25702 19.8043 8.76496 19.8845 9.47255C19.3753 9.81453 18.7709 10.1827 18.0714 10.5865C12.9186 13.5615 11.0931 13.5735 5.90176 10.6662C5.20985 10.2787 4.61004 9.9244 4.10226 9.59431C4.17497 8.89397 4.28355 8.38068 4.4185 7.99565C4.94484 8.37355 5.67026 8.81731 6.63469 9.35743C9.21936 10.8049 10.67 11.3409 11.9912 11.3322C13.3124 11.3236 14.7559 10.7687 17.3214 9.28748Z" fill="black"/>
</svg>
