<svg width="24" height="24" viewBox="0 0 24 24" fill="none" xmlns="http://www.w3.org/2000/svg">
<path d="M12 15.5C12 13.375 12.375 13 14.5 13C16.625 13 17 13.375 17 15.5C17 17.625 16.625 18 14.5 18C12.375 18 12 17.625 12 15.5Z" fill="black"/>
<path fill-rule="evenodd" clip-rule="evenodd" d="M6 2H8V4.2197C9.09053 4.05839 10.409 4 12 4C13.591 4 14.9095 4.05839 16 4.2197V2H18V4.73736C20.4404 5.76076 21 8.07459 21 13C21 20.65 19.65 22 12 22C4.35 22 3 20.65 3 13C3 8.07459 3.55962 5.76076 6 4.73736V2ZM19 13C19 11.2597 18.9267 9.97207 18.7545 9H5.24554C5.07333 9.97207 5 11.2597 5 13C5 14.8828 5.08583 16.2358 5.28985 17.2326C5.48942 18.2076 5.77035 18.6794 6.04546 18.9545C6.32058 19.2296 6.7924 19.5106 7.76745 19.7102C8.76421 19.9142 10.1172 20 12 20C13.8828 20 15.2358 19.9142 16.2326 19.7102C17.2076 19.5106 17.6794 19.2296 17.9545 18.9545C18.2296 18.6794 18.5106 18.2076 18.7102 17.2326C18.9142 16.2358 19 14.8828 19 13Z" fill="black"/>
</svg>
