<svg width="24" height="24" viewBox="0 0 24 24" fill="none" xmlns="http://www.w3.org/2000/svg">
<path fill-rule="evenodd" clip-rule="evenodd" d="M18 13.0234V13H7C3.6 13 3 13.6 3 17C3 20.4 3.6 21 7 21H18V20.9766C20.5218 20.8391 21 20.0354 21 17C21 13.9646 20.5218 13.1609 18 13.0234ZM17.516 19L17.8911 18.9795C18.4587 18.9486 18.7313 18.8838 18.8455 18.8456C18.8637 18.7909 18.8889 18.6983 18.9132 18.5531C18.9698 18.2141 19 17.7263 19 17C19 16.2737 18.9698 15.7859 18.9132 15.4469C18.8889 15.3017 18.8637 15.2091 18.8455 15.1544C18.7313 15.1162 18.4587 15.0514 17.8911 15.0205L17.516 15H7C6.17967 15 5.67046 15.039 5.34167 15.1063C5.25529 15.1239 5.19481 15.1409 5.15438 15.1544C5.14094 15.1948 5.12393 15.2553 5.10625 15.3417C5.03896 15.6705 5 16.1797 5 17C5 17.8203 5.03896 18.3295 5.10625 18.6583C5.12393 18.7447 5.14095 18.8052 5.15439 18.8456C5.19482 18.8591 5.25529 18.8761 5.34167 18.8937C5.67046 18.961 6.17967 19 7 19H17.516ZM7 3C3.6 3 3 3.6 3 7C3 10.4 3.6 11 7 11H18V10.9766C20.5218 10.8391 21 10.0354 21 7C21 3.96463 20.5218 3.1609 18 3.02342V3H7ZM17.516 5H7C6.17967 5 5.67046 5.03896 5.34167 5.10625C5.25528 5.12393 5.19481 5.14094 5.15439 5.15439C5.14094 5.19481 5.12393 5.25528 5.10625 5.34167C5.03896 5.67046 5 6.17967 5 7C5 7.82033 5.03896 8.32954 5.10625 8.65833C5.12393 8.74472 5.14094 8.80519 5.15439 8.84561C5.19481 8.85906 5.25528 8.87607 5.34167 8.89375C5.67046 8.96104 6.17967 9 7 9H17.516L17.8911 8.97955C18.4587 8.94861 18.7313 8.88378 18.8455 8.84559C18.8637 8.7909 18.8889 8.69832 18.9132 8.55308C18.9698 8.2141 19 7.72629 19 7C19 6.27371 18.9698 5.7859 18.9132 5.44692C18.8889 5.30168 18.8637 5.2091 18.8455 5.15441C18.7313 5.11622 18.4587 5.05139 17.8911 5.02045L17.516 5Z" fill="black"/>
</svg>
