<svg width="24" height="24" viewBox="0 0 24 24" fill="none" xmlns="http://www.w3.org/2000/svg">
<path fill-rule="evenodd" clip-rule="evenodd" d="M2.5 4.27L3.77 3L20.5 19.73L19.23 21L16.1358 17.9058C12.1474 20.0238 8.09601 19.067 4.16453 15.0352C3.02402 13.8657 2.13584 12.6857 1.5 11.5C2.13584 10.3143 3.02402 9.13435 4.16453 7.96476C4.50992 7.61056 4.85624 7.28009 5.20336 6.97336L2.5 4.27ZM7.63509 9.40509C6.52099 11.2146 6.85778 13.0603 8.64545 14.848C10.4331 16.6357 12.2788 16.9725 14.0884 15.8584L12.6313 14.4013C11.7463 14.6757 10.854 14.3782 9.98467 13.5088C9.1153 12.6395 8.81782 11.7472 9.09222 10.8622L7.63509 9.40509Z" fill="black"/>
<path d="M8.16855 4.93856L10.1997 6.96975C11.9125 6.0693 13.6529 6.46338 15.3415 8.15198C17.0301 9.84058 17.4242 11.581 16.5237 13.2937L19.0387 15.8087C19.3048 15.5649 19.5704 15.3071 19.8355 15.0352C20.976 13.8657 21.8642 12.6857 22.5 11.5C21.8642 10.3143 20.976 9.13435 19.8355 7.96476C16.004 4.03556 12.0585 3.02683 8.16855 4.93856Z" fill="black"/>
<path d="M11.745 8.515L14.9785 11.7485C15.0697 10.9919 14.7443 10.2332 14.0023 9.49122C13.2603 8.74921 12.5016 8.42381 11.745 8.515Z" fill="black"/>
</svg>
