<svg width="24" height="24" viewBox="0 0 24 24" fill="none" xmlns="http://www.w3.org/2000/svg">
<path d="M9.98467 9.49122C11.3063 8.16963 12.6807 8.16963 14.0023 9.49122C15.3239 10.8128 15.3239 12.1873 14.0023 13.5088C12.6807 14.8304 11.3063 14.8304 9.98467 13.5088C8.66308 12.1873 8.66308 10.8128 9.98467 9.49122Z" fill="black"/>
<path fill-rule="evenodd" clip-rule="evenodd" d="M22.5 11.5C21.8642 10.3143 20.976 9.13435 19.8355 7.96476C14.6806 2.67841 9.31945 2.67841 4.16453 7.96476C3.02402 9.13435 2.13584 10.3143 1.5 11.5C2.13584 12.6857 3.02402 13.8657 4.16453 15.0352C9.31945 20.3216 14.6806 20.3216 19.8355 15.0352C20.976 13.8657 21.8642 12.6857 22.5 11.5ZM15.3415 8.15198C13.1388 5.94934 10.8481 5.94934 8.64545 8.15198C6.44281 10.3546 6.44281 12.6454 8.64545 14.848C10.8481 17.0507 13.1388 17.0507 15.3415 14.848C17.5441 12.6454 17.5441 10.3546 15.3415 8.15198Z" fill="black"/>
</svg>
