<svg width="24" height="24" viewBox="0 0 24 24" fill="none" xmlns="http://www.w3.org/2000/svg">
<path d="M9.98467 9.49122C11.3063 8.16963 12.6807 8.16963 14.0023 9.49122C15.3239 10.8128 15.3239 12.1873 14.0023 13.5088C12.6807 14.8304 11.3063 14.8304 9.98467 13.5088C8.66308 12.1873 8.66308 10.8128 9.98467 9.49122Z" fill="black"/>
<path fill-rule="evenodd" clip-rule="evenodd" d="M19.8355 7.96476C20.976 9.13435 21.8642 10.3143 22.5 11.5C21.8642 12.6857 20.976 13.8657 19.8355 15.0352C14.6806 20.3216 9.31945 20.3216 4.16453 15.0352C3.02402 13.8657 2.13584 12.6857 1.5 11.5C2.13584 10.3143 3.02402 9.13435 4.16453 7.96476C9.31945 2.67841 14.6806 2.67841 19.8355 7.96476ZM20.1661 11.5C19.6979 10.8036 19.114 10.0896 18.4036 9.36106C16.0523 6.94988 13.9072 6 12 6C10.0928 6 7.94767 6.94988 5.59643 9.36106C4.88603 10.0896 4.30209 10.8036 3.8339 11.5C4.30209 12.1964 4.88603 12.9104 5.59643 13.6389C7.94767 16.0501 10.0928 17 12 17C13.9072 17 16.0523 16.0501 18.4036 13.6389C19.114 12.9104 19.6979 12.1964 20.1661 11.5Z" fill="black"/>
</svg>
