<svg width="24" height="24" viewBox="0 0 24 24" fill="none" xmlns="http://www.w3.org/2000/svg">
<path fill-rule="evenodd" clip-rule="evenodd" d="M2.5 4.27L3.77 3L20.5 19.73L19.23 21L16.1358 17.9058C12.1474 20.0238 8.09601 19.067 4.16453 15.0352C3.02402 13.8657 2.13584 12.6857 1.5 11.5C2.13584 10.3143 3.02402 9.13435 4.16453 7.96476C4.50992 7.61056 4.85624 7.28009 5.20336 6.97336L2.5 4.27ZM6.62038 8.39038C6.28359 8.68342 5.94224 9.00643 5.59643 9.36106C4.88603 10.0896 4.30209 10.8036 3.8339 11.5C4.30209 12.1964 4.88603 12.9104 5.59643 13.6389C7.94767 16.0501 10.0928 17 12 17C12.8354 17 13.7164 16.8178 14.6403 16.4103L12.6313 14.4013C11.7463 14.6757 10.854 14.3782 9.98467 13.5088C9.1153 12.6395 8.81782 11.7472 9.09222 10.8622L6.62038 8.39038Z" fill="black"/>
<path d="M8.16854 4.93856L9.68481 6.45483C10.4908 6.14178 11.2632 6 12 6C13.9072 6 16.0523 6.94988 18.4036 9.36106C19.114 10.0896 19.6979 10.8036 20.1661 11.5C19.6979 12.1964 19.114 12.9104 18.4036 13.6389C18.1408 13.9084 17.8807 14.1595 17.6232 14.3932L19.0387 15.8088C19.3048 15.5649 19.5704 15.3071 19.8355 15.0352C20.976 13.8657 21.8642 12.6857 22.5 11.5C21.8642 10.3143 20.976 9.13435 19.8355 7.96476C16.004 4.03556 12.0585 3.02683 8.16854 4.93856Z" fill="black"/>
<path d="M11.745 8.515L14.9785 11.7485C15.0697 10.9919 14.7443 10.2332 14.0023 9.49122C13.2603 8.74921 12.5016 8.42381 11.745 8.515Z" fill="black"/>
</svg>
