<svg width="24" height="24" viewBox="0 0 24 24" fill="none" xmlns="http://www.w3.org/2000/svg">
<path d="M10.0828 8.84946L9.02211 7.7888L10.0828 6.72814L10.0812 6.72657C10.3096 6.48934 10.4509 6.32129 10.5372 6.19781C10.4308 6.04542 10.2404 5.82512 9.90599 5.4907L9.55244 5.13715L10.6131 4.07649L10.9667 4.43004C12.4083 5.8717 12.4668 6.41836 11.1421 7.78743C11.0861 7.8453 11.0276 7.90464 10.9667 7.96558L10.0828 8.84946Z" fill="black"/>
<path d="M12.1157 10.8824L11.0515 9.81819L12.1122 8.75753L12.1157 8.76107L14.9441 5.93264C15.2785 5.59823 15.4689 5.37793 15.5753 5.22554C15.4689 5.07314 15.2785 4.85285 14.9441 4.51843L13.1764 2.75066L14.237 1.69L16.0048 3.45777C17.5074 4.96037 17.5074 5.4907 16.0048 6.9933L12.1157 10.8824Z" fill="black"/>
<path d="M22.1036 8.14235L23.1642 7.08169L22.192 6.10942C22.162 6.07947 22.1325 6.05011 22.1033 6.02136C20.6678 4.60741 20.1291 4.63677 18.6564 6.10942L12.9996 11.7663L14.0602 12.8269L19.7171 7.17008C20.0515 6.83566 20.2718 6.64532 20.4242 6.53891C20.5627 6.6356 20.7572 6.80161 21.0426 7.08206L22.1036 8.14235Z" fill="black"/>
<path d="M18.568 12.4609C18.4157 12.5673 18.1954 12.7577 17.8609 13.0921L16.0932 14.8599L15.0325 13.7992L16.8003 12.0314C18.3029 10.5288 18.8332 10.5288 20.3358 12.0314L22.1036 13.7992L21.0429 14.8599L19.2752 13.0921C18.9407 12.7577 18.7204 12.5673 18.568 12.4609Z" fill="black"/>
<path fill-rule="evenodd" clip-rule="evenodd" d="M6.18386 21.2153L9.69433 19.9233C10.5374 19.6129 11.3853 19.312 12.2137 18.9629C12.7885 18.721 13.4056 18.4442 13.8473 17.9867C14.049 17.7781 14.2041 17.5237 14.2509 17.2321C14.2931 16.9668 14.241 16.6987 14.1471 16.4501C13.922 15.8558 13.4892 15.3577 13.0717 14.8938C12.3993 14.1467 11.6797 13.4416 10.9744 12.7264C10.2692 12.0111 9.57406 11.2812 8.8374 10.5992C8.38011 10.1758 7.88894 9.73683 7.30306 9.50857C7.05795 9.41335 6.79363 9.36053 6.53207 9.40336C6.24462 9.45088 5.99381 9.60821 5.7882 9.81273C5.3372 10.2608 5.06433 10.8869 4.82595 11.4699C4.48178 12.3102 4.18527 13.1702 3.8793 14.0254L2.66594 17.6503C2.36357 18.6438 1.9881 19.6888 2.00029 20.7366C2.00392 21.0797 2.06973 21.4673 2.32318 21.7167C2.53948 21.9305 2.84434 21.9941 3.11907 22.0033C3.44771 22.0146 3.77477 21.9673 4.09633 21.8922C4.80959 21.7255 5.4968 21.4665 6.18386 21.2153ZM4.28859 19.2257C4.37507 18.9104 4.46983 18.5926 4.5713 18.2589ZM4.5713 18.2589L5.76936 14.6797C6.08345 13.8014 6.35707 13.0084 6.67673 12.2279L6.67717 12.2268C6.78733 11.9574 6.87671 11.7574 6.95268 11.6074C7.08805 11.714 7.25693 11.8615 7.47854 12.0667C8.17092 12.7077 8.81222 13.382 9.55027 14.1305C10.2883 14.879 10.953 15.5294 11.5851 16.2318C11.8146 16.4867 11.9723 16.6741 12.0811 16.8225C11.9314 16.9027 11.7256 16.9984 11.438 17.1194L11.4369 17.1199C10.6636 17.4458 9.87793 17.7244 9.00353 18.0464L5.49705 19.3369L5.49505 19.3377C5.04547 19.502 4.59338 19.66 4.13659 19.8033C4.17818 19.6333 4.22904 19.4429 4.28859 19.2257" fill="black"/>
</svg>
