<svg width="24" height="24" viewBox="0 0 24 24" fill="none" xmlns="http://www.w3.org/2000/svg">
<path d="M9.02207 7.7888L10.0827 8.84946C10.4362 8.49598 10.7944 8.14669 11.142 7.78743C12.4667 6.41836 12.4083 5.8717 10.9666 4.43004L10.6131 4.07649L9.5524 5.13715L9.90595 5.4907C10.2404 5.82512 10.4307 6.04541 10.5371 6.19781C10.4509 6.32129 10.3096 6.48935 10.0812 6.72657L10.0827 6.72814L9.02207 7.7888Z" fill="black"/>
<path d="M12.2137 18.9629C12.7884 18.721 13.4056 18.4442 13.8473 17.9867C14.0489 17.7781 14.204 17.5237 14.2508 17.2321C14.293 16.9668 14.2409 16.6987 14.147 16.4501C13.922 15.8558 13.4892 15.3577 13.0717 14.8938C12.5445 14.3081 11.9883 13.7482 11.4328 13.189C11.2797 13.0349 11.1267 12.8809 10.9744 12.7264C10.8221 12.5719 10.6702 12.4167 10.5183 12.2615C9.96695 11.698 9.41492 11.1339 8.83736 10.5992C8.38008 10.1758 7.88891 9.73683 7.30303 9.50857C7.05791 9.41335 6.79359 9.36053 6.53203 9.40336C6.24458 9.45088 5.99377 9.60821 5.78817 9.81273C5.33716 10.2608 5.06429 10.8869 4.82591 11.4699C4.54017 12.1675 4.28728 12.8788 4.03455 13.5896C3.98292 13.7348 3.93116 13.8804 3.87926 14.0254L2.6659 17.6503C2.56012 17.9979 2.45606 18.3457 2.35971 18.6969C2.18109 19.3485 1.99214 20.0389 2.00025 20.7366C2.00389 21.0797 2.06969 21.4673 2.32314 21.7167C2.53945 21.9305 2.8443 21.9941 3.11903 22.0033C3.78157 22.026 4.43774 21.811 5.05527 21.6087L5.06741 21.6047C5.44212 21.482 5.81369 21.3507 6.18383 21.2153L9.69429 19.9233C9.8374 19.8706 9.98065 19.8182 10.1239 19.7658C10.8247 19.5093 11.5259 19.2528 12.2137 18.9629Z" fill="black"/>
<path d="M12.1157 10.8824L11.0515 9.81819L12.1121 8.75753L12.1157 8.76107L14.9441 5.93264C15.2785 5.59823 15.4689 5.37793 15.5753 5.22554C15.4689 5.07314 15.2785 4.85285 14.9441 4.51843L13.1763 2.75066L14.237 1.69L16.0047 3.45777C17.5074 4.96037 17.5074 5.4907 16.0047 6.9933L12.1157 10.8824Z" fill="black"/>
<path d="M22.1035 8.14235L23.1642 7.08169L22.1919 6.10942C22.162 6.07947 22.1324 6.05011 22.1032 6.02136C20.6678 4.60741 20.1291 4.63677 18.6564 6.10942L12.9995 11.7663L14.0602 12.8269L19.7171 7.17008C20.0515 6.83566 20.2718 6.64532 20.4242 6.53891C20.5626 6.6356 20.7572 6.80161 21.0425 7.08206L22.1035 8.14235Z" fill="black"/>
<path d="M18.568 12.4609C18.4156 12.5673 18.1953 12.7577 17.8609 13.0921L16.0931 14.8599L15.0325 13.7992L16.8002 12.0314C18.3028 10.5288 18.8332 10.5288 20.3358 12.0314L22.1035 13.7992L21.0429 14.8599L19.2751 13.0921C18.9407 12.7577 18.7204 12.5673 18.568 12.4609Z" fill="black"/>
</svg>
