<svg width="24" height="24" viewBox="0 0 24 24" fill="none" xmlns="http://www.w3.org/2000/svg">
<path fill-rule="evenodd" clip-rule="evenodd" d="M12 1C7.58793 1 4 4.60067 4 9.02845C4 11.7488 4.91985 14.4835 6.66007 17.1584L6.90001 16.8812C7.27074 16.453 7.65472 16.0459 8.03937 15.6585C6.64122 13.3795 5.96549 11.1557 5.96549 9.02845C5.96549 5.69004 8.67343 2.97247 12 2.97247C13.2573 2.97247 14.5019 3.38127 15.5209 4.1123C14.6494 5.18585 13.372 5.79615 11.9974 5.79615C11.652 5.79615 11.3135 5.74659 10.8928 5.68499C10.8231 5.67479 10.7511 5.66425 10.6765 5.65355L9.80447 5.52857L9.58561 6.38483C9.31616 7.43897 9.16219 8.48523 9.1815 9.61524L9.18172 9.62839L9.18229 9.64153C9.27537 11.7721 9.97478 13.8086 10.9316 15.6178C10.3938 16.115 9.84667 16.6273 9.3159 17.168C9.1156 17.372 8.91764 17.5801 8.7234 17.793C8.60879 17.9186 8.49548 18.0458 8.38375 18.1749L7.83118 18.8131L8.37531 19.4587C9.2844 20.5371 10.2832 21.5503 11.3666 22.4655L11.9993 23L12.6322 22.4656C13.601 21.6475 14.4988 20.7515 15.3275 19.8043L15.8966 19.1538L15.3277 18.5031C14.4273 17.4733 13.6384 16.3879 13.0157 15.3191C12.1748 13.8759 11.5352 12.3186 11.2706 10.7308C11.5082 10.7508 11.7512 10.7632 11.9974 10.7632C13.3548 10.7632 14.6702 10.4803 15.9015 9.9221C16.6667 9.57519 17.3773 9.1312 18.0197 8.6016C18.0296 8.74326 18.0345 8.88561 18.0345 9.02845C18.0345 11.2465 17.3025 13.5647 15.7854 15.94C16.1007 16.364 16.4419 16.7868 16.8051 17.2022L17.0926 17.5311C18.9934 14.7393 20 11.8791 20 9.02845C20 8.09197 19.839 7.16718 19.5227 6.29125C19.5227 6.29125 19.2378 5.45363 18.7546 4.47891C18.7491 4.46782 18.7329 4.46829 18.7274 4.47937C18.2497 5.43812 18.2459 5.44338 17.8372 6.00397C17.094 6.91843 16.1602 7.64044 15.0923 8.12453C14.1172 8.56658 13.0778 8.79076 11.9974 8.79076C11.7258 8.79076 11.4543 8.77089 11.1713 8.73937C11.1968 8.40146 11.2409 8.06642 11.302 7.72876C11.5273 7.75235 11.7618 7.76863 11.9974 7.76863C14.0012 7.76863 15.8675 6.85735 17.1108 5.27549C17.3273 5.00003 17.5213 4.70795 17.6908 4.40245L18.0615 3.73443L17.5092 3.20774C16.0348 1.80168 14.0366 1 12 1ZM10.4433 18.8345C10.9256 18.3261 11.435 17.8392 11.9636 17.3468C12.3658 17.9506 12.8082 18.5484 13.2823 19.1309C12.87 19.5711 12.4424 19.9953 11.9994 20.4003C11.4571 19.905 10.938 19.3813 10.4433 18.8345Z" fill="black"/>
</svg>
