<svg width="24" height="24" viewBox="0 0 24 24" fill="none" xmlns="http://www.w3.org/2000/svg">
<path fill-rule="evenodd" clip-rule="evenodd" d="M10 12.4276C8.92371 11.6248 7.77948 10.3477 6.39461 8.57519C5.42841 7.33851 4.66789 6.27384 4.12024 5.32252C3.76695 4.70882 4.23714 4 4.94527 4H19.0547C19.7629 4 20.233 4.70882 19.8798 5.32252C19.3321 6.27384 18.5716 7.33851 17.6054 8.57518C16.2205 10.3477 15.0763 11.6248 14 12.4276V18C14 19.7 13.7 20 12 20C10.3 20 10 19.7 10 18V12.4276ZM6.97034 6.00709C7.26765 6.41835 7.60217 6.86075 7.97621 7.3395C9.50623 9.29782 10.5721 10.4164 11.4508 10.9952C11.7802 11.2121 12.2197 11.2121 12.5492 10.9952C13.4279 10.4164 14.4938 9.29784 16.0238 7.33949C16.3978 6.86074 16.7323 6.41835 17.0297 6.00709H6.97034Z" fill="black"/>
</svg>
