<svg width="24" height="24" viewBox="0 0 24 24" fill="none" xmlns="http://www.w3.org/2000/svg">
<path d="M16.2182 10.9935C16.3559 10.6649 16.561 10.3568 16.8346 9.95357C17.1358 9.50977 17.4324 9.06044 17.6405 8.5638C17.847 8.07129 17.9359 7.51279 17.9749 7C18.0032 6.62852 18.0054 6.28103 18.0071 6V5C18.0071 2.45 17.5571 2 15.0071 2H9.00708C7.3638 2 6.59261 2.18688 6.25195 3.00219L8.24975 5H15.9647V7H10.2498L14.1608 10.911L16.009 12.7592C16.0114 12.4625 16.0161 12.1657 16.0405 11.8698C16.0714 11.4964 16.13 11.204 16.2182 10.9935Z" fill="black"/>
<path fill-rule="evenodd" clip-rule="evenodd" d="M7.796 10.9935C7.65828 10.6649 7.45321 10.3568 7.17958 9.95357C6.96444 9.63657 6.75165 9.31675 6.57175 8.97889L1.29999 3.70712L2.7142 2.29291L20.8 20.3787L19.3858 21.7929L16.0038 18.4109C15.9522 21.449 15.2653 22 12.0071 22C8.60816 22 8.00747 21.4004 8.00708 18.0032L8.00708 18V13.0049C8.00463 12.6713 8.00112 12.2024 7.97362 11.8698C7.94273 11.4964 7.88421 11.204 7.796 10.9935Z" fill="black"/>
</svg>
