<svg width="24" height="24" viewBox="0 0 24 24" fill="none" xmlns="http://www.w3.org/2000/svg">
<path d="M9 2C6.45 2 6 2.45 6 5H18C18 2.45 17.55 2 15 2H9Z" fill="black"/>
<path fill-rule="evenodd" clip-rule="evenodd" d="M7.1725 9.95357C7.44613 10.3568 7.6512 10.6649 7.78892 10.9935C7.87713 11.204 7.93565 11.4964 7.96654 11.8698C7.99404 12.2024 7.9965 12.5363 7.99895 12.8699L8 13.0049L8 18L8.00001 18.0032C8.00039 21.4004 8.60108 22 12 22C15.3989 22 15.9996 21.4004 16 18.0032L16 18V13.0049L16.0011 12.8699C16.0035 12.5363 16.006 12.2024 16.0335 11.8698C16.0644 11.4964 16.1229 11.204 16.2111 10.9935C16.3488 10.6649 16.5539 10.3568 16.8275 9.95357C17.1287 9.50977 17.4253 9.06044 17.6335 8.5638C17.8399 8.07129 17.9288 7.51279 17.9679 7H6.03214C6.07121 7.51279 6.16012 8.07129 6.36655 8.5638C6.5747 9.06044 6.8713 9.50977 7.1725 9.95357ZM13.0044 12.9956C12.3436 12.3348 11.6564 12.3348 10.9956 12.9956C10.3348 13.6564 10.3348 14.3436 10.9956 15.0044C11.6564 15.6652 12.3436 15.6652 13.0044 15.0044C13.6652 14.3436 13.6652 13.6564 13.0044 12.9956Z" fill="black"/>
</svg>
