<svg width="24" height="24" viewBox="0 0 24 24" fill="none" xmlns="http://www.w3.org/2000/svg">
<path d="M13.0044 12.9956C12.3436 12.3348 11.6564 12.3348 10.9956 12.9956C10.3348 13.6564 10.3348 14.3436 10.9956 15.0044C11.6564 15.6652 12.3436 15.6652 13.0044 15.0044C13.6652 14.3436 13.6652 13.6564 13.0044 12.9956Z" fill="black"/>
<path fill-rule="evenodd" clip-rule="evenodd" d="M6.36655 8.5638C6.16012 8.07129 6.07121 7.51279 6.03214 7C6.00384 6.62852 6.0017 6.28103 6 6V5C6 2.45 6.45 2 9 2H15C17.55 2 18 2.45 18 5V6C17.9983 6.28103 17.9962 6.62852 17.9679 7C17.9288 7.51279 17.8399 8.07129 17.6335 8.5638C17.4253 9.06044 17.1287 9.50977 16.8275 9.95357C16.5539 10.3568 16.3488 10.6649 16.2111 10.9935C16.1229 11.204 16.0644 11.4964 16.0335 11.8698C16.006 12.2024 16.0035 12.5363 16.0011 12.8699L16 13.0049V18L16 18.0032C15.9996 21.4004 15.3989 22 12 22C8.60108 22 8.00039 21.4004 8.00001 18.0032L8 18L8 13.0049L7.99895 12.8699C7.9965 12.5363 7.99404 12.2024 7.96654 11.8698C7.93565 11.4964 7.87713 11.204 7.78892 10.9935C7.6512 10.6649 7.44613 10.3568 7.1725 9.95357C6.8713 9.50977 6.5747 9.06044 6.36655 8.5638ZM8.04077 4.04077C8.01618 4.24721 8 4.55049 8 5H16C16 4.55049 15.9838 4.24721 15.9592 4.04077C15.7528 4.01618 15.4495 4 15 4H9C8.55049 4 8.24721 4.01618 8.04077 4.04077ZM10.3417 19.8937C10.6705 19.961 11.1797 20 12 20C12.8203 20 13.3295 19.961 13.6583 19.8937C13.7447 19.8761 13.8052 19.8591 13.8456 19.8456C13.8591 19.8052 13.8761 19.7447 13.8937 19.6583C13.961 19.3295 14 18.8203 14 18V12.9902C14.0003 12.9606 14.0005 12.9309 14.0007 12.9013C14.0041 12.5022 14.0074 12.1029 14.0403 11.705C14.0784 11.2435 14.1607 10.7116 14.3665 10.2204C14.5883 9.69123 14.9007 9.2311 15.1521 8.86063C15.1685 8.8365 15.1849 8.81236 15.2014 8.78822C15.3784 8.52793 15.5565 8.26619 15.6988 7.98509C15.8456 7.69513 15.9196 7.35112 15.9576 7H8.04239C8.08038 7.35112 8.15439 7.69513 8.30119 7.98509C8.4435 8.26619 8.62155 8.52791 8.79863 8.7882C8.81506 8.81235 8.83148 8.83649 8.84786 8.86063C9.09933 9.2311 9.41167 9.69123 9.63345 10.2204C9.83933 10.7116 9.92156 11.2435 9.95973 11.705C9.99264 12.1029 9.99595 12.5022 9.99925 12.9012C9.9995 12.9309 9.99974 12.9605 10 12.9902L10 18C10 18.8203 10.039 19.3295 10.1063 19.6583C10.1239 19.7447 10.1409 19.8052 10.1544 19.8456C10.1948 19.8591 10.2553 19.8761 10.3417 19.8937ZM10.9956 12.9956C11.6564 12.3348 12.3436 12.3348 13.0044 12.9956C13.6652 13.6564 13.6652 14.3436 13.0044 15.0044C12.3436 15.6652 11.6564 15.6652 10.9956 15.0044C10.3348 14.3436 10.3348 13.6564 10.9956 12.9956Z" fill="black"/>
</svg>
