<svg width="24" height="24" viewBox="0 0 24 24" fill="none" xmlns="http://www.w3.org/2000/svg">
<path d="M8.04785 4.04077C8.25429 4.01618 8.55757 4 9.00708 4H15.0071C15.4566 4 15.7599 4.01618 15.9663 4.04077C15.9909 4.24721 16.0071 4.55049 16.0071 5H8.24975L10.2498 7H15.9647C15.9267 7.35112 15.8527 7.69513 15.7059 7.98509C15.5636 8.26619 15.3855 8.52793 15.2084 8.78822C14.957 9.15869 14.5954 9.69123 14.3736 10.2204C14.2792 10.4456 14.2108 10.6794 14.1608 10.911L16.009 12.7592C16.0114 12.4625 16.0161 12.1657 16.0405 11.8698C16.0714 11.4964 16.13 11.204 16.2182 10.9935C16.3559 10.6649 16.561 10.3568 16.8346 9.95357C17.1358 9.50977 17.4324 9.06044 17.6405 8.5638C17.847 8.07129 17.9359 7.51279 17.9749 7C18.0032 6.62852 18.0054 6.28103 18.0071 6V5C18.0071 2.45 17.5571 2 15.0071 2H9.00708C7.3638 2 6.59261 2.18688 6.25195 3.00219L8.00878 4.75903C8.01354 4.43862 8.02794 4.20794 8.04785 4.04077Z" fill="black"/>
<path fill-rule="evenodd" clip-rule="evenodd" d="M7.796 10.9935C7.65828 10.6649 7.45321 10.3568 7.17958 9.95357C6.96444 9.63657 6.75165 9.31675 6.57175 8.97889L1.29999 3.70712L2.7142 2.29291L20.8 20.5L19.3858 21.9142L16.0038 18.4109C15.9522 21.449 15.2653 22 12.0071 22C8.60816 22 8.00747 21.4004 8.00708 18.0032L8.00708 18V13.0049C8.00463 12.6713 8.00112 12.2024 7.97362 11.8698C7.94273 11.4964 7.88421 11.204 7.796 10.9935ZM10.3487 19.8937C10.6775 19.961 11.1867 20 12.0071 20C12.8274 20 13.3366 19.961 13.6654 19.8937C13.7518 19.8761 13.8123 19.8591 13.8527 19.8456C13.8661 19.8052 13.8831 19.7447 13.9008 19.6583C13.9681 19.3295 14.0071 18.8203 14.0071 18V16.4142L9.99945 12.4066C10.0039 12.6083 10.0056 12.8085 10.0071 12.9902V18C10.0071 18.8203 10.046 19.3295 10.1133 19.6583C10.131 19.7447 10.148 19.8052 10.1615 19.8456C10.2019 19.8591 10.2624 19.8761 10.3487 19.8937Z" fill="black"/>
</svg>
