<svg width="24" height="24" viewBox="0 0 24 24" fill="none" xmlns="http://www.w3.org/2000/svg">
<path d="M7.18572 2.02185C5.7874 2.31908 3.48104 3.83165 4.10477 6.76609C4.49643 8.60867 4.99778 9.61968 5.52147 10.6757C5.57931 10.7924 5.63742 10.9096 5.69568 11.0285L9.96587 10.1208C9.90948 9.96234 9.8618 9.80212 9.82716 9.63912C9.7232 9.15005 9.81181 8.36446 9.90041 7.57887C9.98901 6.79328 10.0776 6.0077 9.97366 5.51862C9.76575 4.54047 8.58403 1.72463 7.18572 2.02185Z" fill="black"/>
<path d="M6.56226 13.4208C6.49937 13.2585 6.46687 13.0866 6.46063 12.9106L10.78 11.9925C10.8385 12.1567 10.8882 12.3234 10.9244 12.4936C10.9767 13.5584 10.0143 14.8915 8.91041 14.9457C7.99681 14.9906 6.89285 14.2737 6.56226 13.4208Z" fill="black"/>
<path d="M16.7407 9.02185C18.139 9.31908 20.4454 10.8316 19.8217 13.7661C19.43 15.6087 18.9286 16.6197 18.405 17.6757L18.4042 17.6773C18.3466 17.7934 18.2888 17.9101 18.2307 18.0285L13.9606 17.1208C14.0169 16.9623 14.0646 16.8021 14.0993 16.6391C14.2032 16.1501 14.1146 15.3645 14.026 14.5789C13.9374 13.7933 13.8488 13.0077 13.9528 12.5186C14.1607 11.5405 15.3424 8.72463 16.7407 9.02185Z" fill="black"/>
<path d="M17.3642 20.4208C17.4271 20.2585 17.4596 20.0866 17.4658 19.9106L13.1465 18.9925C13.0879 19.1567 13.0382 19.3234 13.002 19.4936C12.9497 20.5584 13.9122 21.8915 15.016 21.9457C15.9296 21.9906 17.0336 21.2737 17.3642 20.4208Z" fill="black"/>
</svg>
