<svg width="24" height="24" viewBox="0 0 24 24" fill="none" xmlns="http://www.w3.org/2000/svg">
<path fill-rule="evenodd" clip-rule="evenodd" d="M7.5 3C8.56059 3 9.66347 3.47149 10.6007 4.20655C11.1334 4.62427 11.6125 5.1271 12 5.67689C12.3875 5.1271 12.8666 4.62427 13.3993 4.20655C14.3365 3.47149 15.4394 3 16.5 3C19.1208 3 22 5.87915 22 8.5C22 14 13 21.5 12 21.5C11 21.5 2 14 2 8.5C2 5.87915 4.87915 3 7.5 3ZM11 8C10.1129 6.74144 9.24137 5 7.5 5C6.88156 5 5.98592 5.37687 5.1814 6.1814C4.37687 6.98592 4 7.88156 4 8.5C4 9.36712 4.37046 10.5054 5.15043 11.8455C5.91273 13.1553 6.96734 14.4897 8.09186 15.703C9.21221 16.9118 10.3587 17.954 11.2665 18.6817C11.5452 18.905 11.7917 19.091 12 19.2389C12.2083 19.091 12.4548 18.905 12.7335 18.6817C13.6413 17.954 14.7878 16.9118 15.9081 15.703C17.0327 14.4897 18.0873 13.1553 18.8496 11.8455C19.6295 10.5054 20 9.36712 20 8.5C20 7.88156 19.6231 6.98592 18.8186 6.1814C18.0141 5.37687 17.1184 5 16.5 5C14.7586 5 13.8871 6.74144 13 8H11Z" fill="black"/>
</svg>
