<svg width="24" height="24" viewBox="0 0 24 24" fill="none" xmlns="http://www.w3.org/2000/svg">
<path fill-rule="evenodd" clip-rule="evenodd" d="M12 21.5C5.2 21.5 3.99629 20.2961 3.99629 13.474V10.1717L2.41421 11.7589L1 10.3401C2.14455 9.18784 3.28096 8.02695 4.43976 6.88912L5.06598 6.26087L5.06891 6.26358C7.98876 3.36565 9.98349 1.945 11.9963 2.00163C14.0091 1.945 16.0075 3.36565 18.9274 6.26359L18.9303 6.26087L19.5565 6.88913C20.7153 8.02696 21.8517 9.18784 22.9963 10.3401L21.5821 11.7589L20 10.1717V13.474C20 20.2961 18.8 21.5 12 21.5ZM11.9963 19.4935C10.326 19.4935 9.14175 19.4168 8.27859 19.2395C7.43714 19.0667 7.06375 18.8304 6.86051 18.6265C6.65727 18.4226 6.42165 18.048 6.24942 17.2038C6.07275 16.3378 5.99629 15.1497 5.99629 13.474V8.1678C7.19806 6.9789 8.39616 5.74259 9.81154 4.80512C10.7559 4.17962 11.3898 4.00651 11.8806 4.00651L12.1157 4.00652C12.6064 4.00652 13.2404 4.17963 14.1848 4.80513C15.6001 5.74259 16.7982 6.9789 18 8.16781V13.474C18 15.1497 17.9235 16.3378 17.7469 17.2038C17.5746 18.048 17.339 18.4226 17.1358 18.6265C16.9325 18.8304 16.5592 19.0668 15.7177 19.2395C14.8545 19.4168 13.6666 19.4935 11.9963 19.4935Z" fill="black"/>
</svg>
