<svg width="24" height="24" viewBox="0 0 24 24" fill="none" xmlns="http://www.w3.org/2000/svg">
<path fill-rule="evenodd" clip-rule="evenodd" d="M12 3C4.35 3 3 4.35 3 12C3 19.65 4.35 21 12 21C19.65 21 21 19.65 21 12C21 4.35 19.65 3 12 3ZM5.28985 7.76745C5.08583 8.76421 5 10.1172 5 12C5 15.0585 5.41927 15.8104 5.85913 16.1525C6.12851 16.3621 6.63703 16.6017 7.68084 16.7678C8.38916 16.8806 9.25939 16.9475 10.3395 16.9786C10.6166 16.9866 10.8698 17.2239 11.0451 17.4386C11.1114 17.5199 11.194 17.6082 11.2929 17.7071C11.8939 18.3081 12.1061 18.3081 12.7071 17.7071C12.806 17.6082 12.8886 17.5199 12.9549 17.4386C13.1302 17.2239 13.3834 16.9866 13.6605 16.9786C14.7406 16.9475 15.6108 16.8806 16.3192 16.7678C17.363 16.6017 17.8715 16.3621 18.1409 16.1525C18.5807 15.8104 19 15.0585 19 12C19 10.1172 18.9142 8.76421 18.7102 7.76745C18.5106 6.7924 18.2296 6.32058 17.9545 6.04546C17.6794 5.77035 17.2076 5.48942 16.2326 5.28985C15.2358 5.08583 13.8828 5 12 5C10.1172 5 8.76421 5.08583 7.76745 5.28985C6.7924 5.48942 6.32058 5.77035 6.04546 6.04546C5.77035 6.32058 5.48942 6.7924 5.28985 7.76745Z" fill="black"/>
</svg>
