<svg width="24" height="24" viewBox="0 0 24 24" fill="none" xmlns="http://www.w3.org/2000/svg">
<path d="M15.1562 3C15.1562 3.49662 14.677 4.62506 14.3491 5.00582C14.0099 5.39969 12.7334 5.92235 12.2078 5.92235C12.7183 5.92235 13.9339 6.42132 14.2941 6.77974C14.654 7.13787 15.1562 8.33937 15.1562 8.84475C15.1562 8.33937 15.6584 7.13787 16.0183 6.77974C16.3785 6.42132 17.5942 5.92235 18.1047 5.92235C17.579 5.92235 16.3025 5.39969 15.9633 5.00582C15.6354 4.62506 15.1562 3.49662 15.1562 3Z" fill="black"/>
<path d="M3.8539 5.92235C3.85389 6.33619 3.6259 7.45588 3.35266 7.77319C3.07001 8.10141 1.83491 8.35764 1.39687 8.35764C1.82228 8.35764 3.05249 8.60449 3.35266 8.90317C3.65258 9.20161 3.85391 10.3718 3.8539 10.793C3.85389 10.3718 4.05521 9.20161 4.35513 8.90317C4.6553 8.60449 5.88551 8.35764 6.31092 8.35764C5.87288 8.35764 4.63778 8.10141 4.35513 7.77319C4.08189 7.45588 3.85391 6.33619 3.8539 5.92235Z" fill="black"/>
<path d="M19.7182 8.48146C20.5841 7.6232 21.4847 7.6232 22.3506 8.48146C23.2165 9.33972 23.2165 10.2323 22.3506 11.0906C21.7581 11.6778 21.1495 11.8632 20.5468 11.6469L16.6573 15.502C16.8755 16.0994 16.6884 16.7027 16.096 17.2899C15.2301 18.1481 14.3295 18.1481 13.4636 17.2899C12.8712 16.7027 12.6841 16.0994 12.9023 15.502L10.4027 13.0245C10.0783 13.141 9.75204 13.141 9.42755 13.0245L4.84312 17.5685C5.06135 18.1658 4.87425 18.7691 4.28181 19.3563C3.4159 20.2146 2.51535 20.2146 1.64944 19.3563C0.783522 18.498 0.783521 17.6055 1.64943 16.7472C2.24188 16.16 2.85054 15.9745 3.45322 16.1908L8.03765 11.6469C7.81941 11.0496 8.00651 10.4463 8.59896 9.85908C9.46487 9.00082 10.3654 9.00082 11.2313 9.85908C11.8238 10.4463 12.0109 11.0496 11.7926 11.6469L14.2922 14.1244C14.6167 14.0079 14.9429 14.0079 15.2674 14.1244L19.1569 10.2693C18.9386 9.67195 19.1257 9.06867 19.7182 8.48146Z" fill="black"/>
</svg>
