<svg width="24" height="24" viewBox="0 0 24 24" fill="none" xmlns="http://www.w3.org/2000/svg">
<path d="M12 3.8023C14.6717 3.8023 14.9853 3.81421 16.0413 3.86185C17.0179 3.90552 17.5459 4.06828 17.8992 4.20722C18.3676 4.38984 18.7011 4.60421 19.0504 4.95355C19.3998 5.3029 19.6181 5.63636 19.7967 6.1048C19.9317 6.45812 20.0985 6.9861 20.1421 7.96268C20.1898 9.01866 20.2017 9.33227 20.2017 12.004C20.2017 14.6757 20.1898 14.9893 20.1421 16.0453C20.0985 17.0218 19.9357 17.5498 19.7967 17.9031C19.6141 18.3716 19.3998 18.705 19.0504 19.0544C18.7011 19.4037 18.3676 19.6221 17.8992 19.8007C17.5459 19.9357 17.0179 20.1024 16.0413 20.1461C14.9853 20.1937 14.6717 20.2056 12 20.2056C9.32831 20.2056 9.01469 20.1937 7.95872 20.1461C6.98214 20.1024 6.45415 19.9397 6.10083 19.8007C5.63239 19.6181 5.29893 19.4037 4.94958 19.0544C4.60024 18.705 4.3819 18.3716 4.20326 17.9031C4.06828 17.5498 3.90155 17.0218 3.85788 16.0453C3.81024 14.9893 3.79833 14.6757 3.79833 12.004C3.79833 9.33227 3.81024 9.01866 3.85788 7.96268C3.90155 6.9861 4.06431 6.45812 4.20326 6.1048C4.38587 5.63636 4.60024 5.3029 4.94958 4.95355C5.29893 4.60421 5.63239 4.38587 6.10083 4.20722C6.45415 4.07225 6.98214 3.90552 7.95872 3.86185C9.01469 3.81024 9.33228 3.8023 12 3.8023ZM12 2C9.28464 2 8.94323 2.01191 7.87535 2.05955C6.81143 2.10719 6.08496 2.27789 5.44978 2.52402C4.79079 2.77809 4.23501 3.12346 3.67924 3.67924C3.12346 4.23501 2.78206 4.79476 2.52402 5.44978C2.27789 6.08495 2.10719 6.81143 2.05955 7.87932C2.01191 8.94323 2 9.28464 2 12C2 14.7154 2.01191 15.0568 2.05955 16.1247C2.10719 17.1886 2.27789 17.915 2.52402 18.5542C2.77809 19.2132 3.12346 19.769 3.67924 20.3247C4.23501 20.8805 4.79476 21.2219 5.44978 21.48C6.08496 21.7261 6.81143 21.8968 7.87932 21.9444C8.9472 21.9921 9.28464 22.004 12.004 22.004C14.7233 22.004 15.0607 21.9921 16.1286 21.9444C17.1925 21.8968 17.919 21.7261 18.5582 21.48C19.2172 21.2259 19.7729 20.8805 20.3287 20.3247C20.8845 19.769 21.2259 19.2092 21.4839 18.5542C21.7301 17.919 21.9008 17.1925 21.9484 16.1247C21.996 15.0568 22.0079 14.7193 22.0079 12C22.0079 9.28067 21.996 8.94323 21.9484 7.87535C21.9008 6.81143 21.7301 6.08495 21.4839 5.44581C21.2299 4.78682 20.8845 4.23104 20.3287 3.67527C19.7729 3.11949 19.2132 2.77809 18.5582 2.52005C17.923 2.27392 17.1965 2.10322 16.1286 2.05558C15.0568 2.01191 14.7154 2 12 2Z" fill="black"/>
<path d="M12 6.86702C9.16554 6.86702 6.86304 9.16555 6.86304 12.004C6.86304 14.8424 9.16157 17.1409 12 17.1409C14.8384 17.1409 17.137 14.8424 17.137 12.004C17.137 9.16555 14.8384 6.86702 12 6.86702ZM12 15.3347C10.158 15.3347 8.66534 13.842 8.66534 12C8.66534 10.158 10.158 8.66535 12 8.66535C13.842 8.66535 15.3347 10.158 15.3347 12C15.3347 13.842 13.842 15.3347 12 15.3347Z" fill="black"/>
<path d="M17.3394 7.85947C18.0015 7.85947 18.5383 7.32271 18.5383 6.66058C18.5383 5.99846 18.0015 5.4617 17.3394 5.4617C16.6773 5.4617 16.1405 5.99846 16.1405 6.66058C16.1405 7.32271 16.6773 7.85947 17.3394 7.85947Z" fill="black"/>
</svg>
