<svg width="24" height="24" viewBox="0 0 24 24" fill="none" xmlns="http://www.w3.org/2000/svg">
<path fill-rule="evenodd" clip-rule="evenodd" d="M11.0176 7.98238C8.37445 5.33921 5.62555 5.33921 2.98238 7.98238C0.339207 10.6256 0.339207 13.3744 2.98238 16.0176C5.62555 18.6608 8.37445 18.6608 11.0176 16.0176C11.6846 15.3507 12.1832 14.677 12.5136 14H17V18H21V14H23V10H12.5136C12.1832 9.32299 11.6846 8.64932 11.0176 7.98238ZM8.33921 10.6608C7.45815 9.77974 6.54185 9.77974 5.66079 10.6608C4.77974 11.5419 4.77974 12.4581 5.66079 13.3392C6.54185 14.2203 7.45815 14.2203 8.33921 13.3392C9.22026 12.4581 9.22026 11.5419 8.33921 10.6608Z" fill="black"/>
</svg>
