<svg width="24" height="24" viewBox="0 0 24 24" fill="none" xmlns="http://www.w3.org/2000/svg">
<path fill-rule="evenodd" clip-rule="evenodd" d="M5.30397 5.30397C9.70925 0.898678 14.2908 0.898678 18.696 5.30397C23.1013 9.70925 23.1013 14.2908 18.696 18.696C14.2908 23.1013 9.70925 23.1013 5.30397 18.696C0.898678 14.2908 0.898678 9.70925 5.30397 5.30397ZM13.8104 4.33333C14.6702 5.55061 15.3239 6.77378 15.7714 8H18.4183C18.0963 7.58287 17.7192 7.15552 17.2818 6.71818C16.0427 5.47905 14.8838 4.72351 13.8104 4.33333ZM13.6167 8C13.2208 7.09718 12.6859 5.43644 12 4.5C11.3141 5.43644 10.7792 7.09718 10.3833 8H13.6167ZM10.1896 4.33333C9.32979 5.55061 8.67612 6.77378 8.2286 8H5.58167C5.90373 7.58287 6.28084 7.15552 6.71818 6.71818C7.9573 5.47906 9.11623 4.72351 10.1896 4.33333ZM4 12C4 11.3702 4.12448 10.703 4.40573 10H7.6819C7.43937 11.3327 7.43937 12.6673 7.6819 14H4.40573C4.12448 13.297 4 12.6298 4 12ZM9.5 12C9.5 11.3447 9.57234 10.6778 9.72257 10H14.2774C14.4277 10.6778 14.5 11.3447 14.5 12C14.5 12.6553 14.4277 13.3222 14.2774 14H9.72257C9.57234 13.3222 9.5 12.6553 9.5 12ZM16.3181 14H19.5943C19.8755 13.297 20 12.6298 20 12C20 11.3702 19.8755 10.703 19.5943 10H16.3181C16.5606 11.3327 16.5606 12.6673 16.3181 14ZM5.58167 16C5.90373 16.4171 6.28084 16.8445 6.71818 17.2818C7.9573 18.5209 9.11623 19.2765 10.1896 19.6667C9.32979 18.4494 8.67611 17.2262 8.2286 16H5.58167ZM12 19.5C12.6859 18.5636 13.2208 16.9028 13.6167 16H10.3833C10.7792 16.9028 11.3141 18.5636 12 19.5ZM15.7714 16C15.3239 17.2262 14.6702 18.4494 13.8104 19.6667C14.8838 19.2765 16.0427 18.5209 17.2818 17.2818C17.7192 16.8445 18.0963 16.4171 18.4183 16H15.7714Z" fill="black"/>
</svg>
