<svg width="24" height="24" viewBox="0 0 24 24" fill="none" xmlns="http://www.w3.org/2000/svg">
<path fill-rule="evenodd" clip-rule="evenodd" d="M10.9954 3C10.9954 2.44772 11.4431 2 11.9954 2C14.0003 2 15.6414 2.06116 16.9559 2.29696C18.2791 2.53433 19.3799 2.96661 20.2064 3.79273C21.0329 4.6189 21.4655 5.71932 21.7029 7.04203C21.9388 8.35589 22 9.9962 22 12C22 14.4617 21.9264 16.6105 21.349 18.1485C21.1549 18.6655 20.5784 18.9273 20.0614 18.7332C19.5443 18.5391 19.2825 17.9626 19.4766 17.4456C19.9038 16.3077 20 14.5383 20 12C20 10.0038 19.9362 8.51911 19.7344 7.39547C19.5343 6.28068 19.2165 5.6311 18.7925 5.20727C18.3684 4.78339 17.7183 4.46567 16.6027 4.26554C15.4784 4.06384 13.9927 4 11.9954 4C11.4431 4 10.9954 3.55228 10.9954 3ZM6.09004 3.4442C6.37737 3.91586 6.22795 4.53114 5.75629 4.81847C5.54719 4.94585 5.3669 5.0879 5.2091 5.24659C4.81968 5.63822 4.18652 5.64 3.79489 5.25058C3.40327 4.86116 3.40148 4.228 3.79091 3.83637C4.06765 3.55806 4.37607 3.3174 4.71577 3.11046C5.18742 2.82312 5.80271 2.97255 6.09004 3.4442ZM3.34618 7.05928C3.89281 7.13815 4.272 7.64521 4.19313 8.19183C4.08077 8.97063 4.021 9.89342 3.99982 10.9922C3.98917 11.5443 3.53291 11.9833 2.98073 11.9727C2.42855 11.9621 1.98955 11.5058 2.00019 10.9536C2.0222 9.81183 2.0849 8.79849 2.21363 7.90623C2.2925 7.35961 2.79956 6.98042 3.34618 7.05928ZM2.9931 13.7773C3.54418 13.7409 4.02048 14.1581 4.05694 14.7091C4.24083 17.4883 4.81588 18.6669 5.87046 19.3084C6.34231 19.5954 6.49216 20.2106 6.20515 20.6824C5.91814 21.1543 5.30296 21.3041 4.83111 21.0171C2.88432 19.8329 2.25319 17.7412 2.0613 14.8412C2.02484 14.2901 2.44202 13.8138 2.9931 13.7773ZM18.739 20.0237C18.9331 20.5408 18.6714 21.1173 18.1544 21.3115C16.6223 21.8869 14.5767 22 12 22C10.8117 22 9.74859 21.968 8.81154 21.8829C8.26152 21.8329 7.85614 21.3466 7.90609 20.7966C7.95605 20.2465 8.44242 19.8411 8.99244 19.8911C9.8452 19.9685 10.8417 20 12 20C14.6112 20 16.3057 19.8694 17.4512 19.4392C17.9682 19.245 18.5448 19.5067 18.739 20.0237Z" fill="black"/>
</svg>
