<svg width="24" height="24" viewBox="0 0 24 24" fill="none" xmlns="http://www.w3.org/2000/svg">
<path d="M8 12C7.15 12 7 12.15 7 13C7 13.85 7.15 14 8 14C8.85 14 9 13.85 9 13C9 12.15 8.85 12 8 12Z" fill="black"/>
<path d="M10.667 12.0024C9.81704 12.0024 9.66704 12.1524 9.66704 13.0024C9.66704 13.8524 9.81704 14.0024 10.667 14.0024C11.517 14.0024 11.667 13.8524 11.667 13.0024C11.667 12.1524 11.517 12.0024 10.667 12.0024Z" fill="black"/>
<path d="M12.3108 13.0098C12.3108 12.1598 12.4608 12.0098 13.3108 12.0098C14.1608 12.0098 14.3108 12.1598 14.3108 13.0098C14.3108 13.8598 14.1608 14.0098 13.3108 14.0098C12.4608 14.0098 12.3108 13.8598 12.3108 13.0098Z" fill="black"/>
<path d="M16 12C15.15 12 15 12.15 15 13C15 13.85 15.15 14 16 14C16.85 14 17 13.85 17 13C17 12.15 16.85 12 16 12Z" fill="black"/>
<path d="M7 16C7 15.15 7.15 15 8 15C8.85 15 9 15.15 9 16C9 16.85 8.85 17 8 17C7.15 17 7 16.85 7 16Z" fill="black"/>
<path d="M10.667 15.0046C9.81704 15.0046 9.66704 15.1546 9.66704 16.0046C9.66704 16.8546 9.81704 17.0046 10.667 17.0046C11.517 17.0046 11.667 16.8546 11.667 16.0046C11.667 15.1546 11.517 15.0046 10.667 15.0046Z" fill="black"/>
<path d="M12.3108 15.9902C12.3108 15.1402 12.4608 14.9902 13.3108 14.9902C14.1608 14.9902 14.3108 15.1402 14.3108 15.9902C14.3108 16.8402 14.1608 16.9902 13.3108 16.9902C12.4608 16.9902 12.3108 16.8402 12.3108 15.9902Z" fill="black"/>
<path fill-rule="evenodd" clip-rule="evenodd" d="M5 1H7V3.33782C8.31189 3.087 9.95295 3 12 3C14.0471 3 15.6881 3.087 17 3.33782V1H19V3.97157C21.4297 5.17934 22 7.75907 22 13C22 21.5 20.5 23 12 23C3.5 23 2 21.5 2 13C2 7.75907 2.57026 5.17934 5 3.97157V1ZM4 13C4 11.3349 4.06012 10.0321 4.20091 9H19.7991C19.9399 10.0321 20 11.3349 20 13C20 15.0953 19.9048 16.617 19.6734 17.7474C19.4465 18.856 19.1203 19.4263 18.7733 19.7733C18.4263 20.1203 17.856 20.4465 16.7474 20.6734C15.617 20.9048 14.0953 21 12 21C9.90466 21 8.38296 20.9048 7.2526 20.6734C6.14397 20.4465 5.5737 20.1203 5.22671 19.7733C4.87973 19.4263 4.55348 18.856 4.32657 17.7474C4.09521 16.617 4 15.0953 4 13Z" fill="black"/>
</svg>
