<svg width="24" height="24" viewBox="0 0 24 24" fill="none" xmlns="http://www.w3.org/2000/svg">
<path d="M8.711 12.022C8.315 12.37 8.105 12.865 8.081 13.507H9.584C9.602 13.303 9.665 13.132 9.773 12.994C9.887 12.856 10.058 12.787 10.286 12.787C10.496 12.787 10.661 12.847 10.781 12.967C10.901 13.087 10.961 13.255 10.961 13.471C10.961 13.741 10.865 13.93 10.673 14.038C10.487 14.14 10.241 14.191 9.935 14.191H9.647V15.442H9.935C10.337 15.442 10.628 15.508 10.808 15.64C10.994 15.766 11.087 15.973 11.087 16.261C11.087 16.483 11.021 16.663 10.889 16.801C10.763 16.933 10.583 16.999 10.349 16.999C10.073 16.999 9.863 16.924 9.719 16.774C9.575 16.618 9.5 16.408 9.494 16.144H8C8.024 16.858 8.249 17.392 8.675 17.746C9.107 18.1 9.683 18.277 10.403 18.277C10.853 18.277 11.24 18.196 11.564 18.034C11.894 17.872 12.143 17.65 12.311 17.368C12.485 17.08 12.572 16.75 12.572 16.378C12.572 15.964 12.473 15.625 12.275 15.361C12.077 15.097 11.807 14.908 11.465 14.794V14.758C11.729 14.668 11.96 14.5 12.158 14.254C12.356 14.002 12.455 13.678 12.455 13.282C12.455 12.946 12.371 12.643 12.203 12.373C12.041 12.103 11.798 11.89 11.474 11.734C11.156 11.578 10.772 11.5 10.322 11.5C9.644 11.5 9.107 11.674 8.711 12.022Z" fill="black"/>
<path d="M13.507 11.6035V13.0345H14.398V18.1735H16V11.6035H13.507Z" fill="black"/>
<path fill-rule="evenodd" clip-rule="evenodd" d="M5 1H7V3.33782C8.31189 3.087 9.95295 3 12 3C14.0471 3 15.6881 3.087 17 3.33782V1H19V3.97157C21.4297 5.17934 22 7.75907 22 13C22 21.5 20.5 23 12 23C3.5 23 2 21.5 2 13C2 7.75907 2.57026 5.17934 5 3.97157V1ZM4 13C4 11.8324 4.02956 10.8429 4.09578 10H19.9042C19.9704 10.8429 20 11.8324 20 13C20 15.0953 19.9048 16.617 19.6734 17.7474C19.4465 18.856 19.1203 19.4263 18.7733 19.7733C18.4263 20.1203 17.856 20.4465 16.7474 20.6734C15.617 20.9048 14.0953 21 12 21C9.90466 21 8.38296 20.9048 7.2526 20.6734C6.14397 20.4465 5.5737 20.1203 5.22671 19.7733C4.87973 19.4263 4.55348 18.856 4.32657 17.7474C4.09521 16.617 4 15.0953 4 13ZM18.7733 6.22671C19.0929 6.54631 19.3949 7.05534 19.6179 8H4.38211C4.60511 7.05534 4.90711 6.54631 5.22671 6.22671C5.5737 5.87973 6.14397 5.55348 7.2526 5.32657C8.38296 5.09521 9.90466 5 12 5C14.0953 5 15.617 5.09521 16.7474 5.32657C17.856 5.55348 18.4263 5.87973 18.7733 6.22671Z" fill="black"/>
</svg>
