<svg width="24" height="24" viewBox="0 0 24 24" fill="none" xmlns="http://www.w3.org/2000/svg">
<path d="M7.00128 15H11V17L7.00128 17C5.87751 17.0004 4.75372 16.4498 3.65198 15.348C1.44934 13.1454 1.44934 10.8546 3.65198 8.65198C4.75372 7.55024 5.87751 6.99958 7.00128 7H11V9H7.00128C6.58111 8.99984 5.93578 9.1966 5.0662 10.0662C4.19692 10.9355 4 11.5799 4 12C4 12.4201 4.19692 13.0645 5.0662 13.9338C5.93579 14.8034 6.58112 15.0002 7.00128 15Z" fill="black"/>
<path d="M13 17V15H16.9987C17.4189 15.0002 18.0642 14.8034 18.9338 13.9338C19.8031 13.0645 20 12.4201 20 12C20 11.5799 19.8031 10.9355 18.9338 10.0662C18.0642 9.1966 17.4196 8.99984 16.9995 9L13 9V7H16.9987C18.1225 6.99958 19.2463 7.55024 20.348 8.65198C22.5507 10.8546 22.5507 13.1454 20.348 15.348C19.2463 16.4498 18.1225 17.0004 16.9987 17L13 17Z" fill="black"/>
<path d="M8 13H16V11H8V13Z" fill="black"/>
</svg>
