<svg width="24" height="24" viewBox="0 0 24 24" fill="none" xmlns="http://www.w3.org/2000/svg">
<path fill-rule="evenodd" clip-rule="evenodd" d="M21 12C21 6.05 19.95 5 14 5H10C4.05 5 3 6.05 3 12C3 17.95 4.05 19 10 19H14C19.95 19 21 17.95 21 12ZM14 7C15.4578 7 16.4733 7.06708 17.2029 7.21641C17.9107 7.36129 18.1857 7.5516 18.317 7.68296C18.4484 7.81433 18.6387 8.08928 18.7836 8.79714C18.797 8.86243 18.8097 8.93001 18.8217 9L9 9V7.01246C9.308 7.00408 9.64056 7 10 7H14ZM9 11L18.9875 11C18.9959 11.308 19 11.6406 19 12C19 12.3594 18.9959 12.692 18.9875 13L9 13V11ZM7 13V11H5.01246C5.00408 11.308 5 11.6406 5 12C5 12.3594 5.00408 12.692 5.01246 13H7ZM5.17828 15H7V16.8217C6.93001 16.8097 6.86243 16.797 6.79714 16.7836C6.08928 16.6387 5.81433 16.4484 5.68296 16.317C5.5516 16.1857 5.36129 15.9107 5.21641 15.2029C5.20305 15.1376 5.19034 15.07 5.17828 15ZM9 15L18.8217 15C18.8097 15.07 18.797 15.1376 18.7836 15.2029C18.6387 15.9107 18.4484 16.1857 18.317 16.317C18.1857 16.4484 17.9107 16.6387 17.2029 16.7836C16.4733 16.9329 15.4578 17 14 17H10C9.64056 17 9.308 16.9959 9 16.9875V15ZM7 7.17828V9H5.17828C5.19034 8.93001 5.20305 8.86243 5.21641 8.79714C5.36129 8.08928 5.5516 7.81433 5.68296 7.68296C5.81433 7.5516 6.08928 7.36129 6.79714 7.21641C6.86243 7.20305 6.93001 7.19034 7 7.17828Z" fill="black"/>
</svg>
