<svg width="24" height="24" viewBox="0 0 24 24" fill="none" xmlns="http://www.w3.org/2000/svg">
<path fill-rule="evenodd" clip-rule="evenodd" d="M4.5 9.5C4.5 8.69289 4.6425 7.90614 4.90285 7.16438L2 4.26153L3.26153 3L20 19.7385L18.7385 21L15.8286 18.0901C13.9278 20.4578 12 22 12 22C12 22 4.5 16 4.5 9.5ZM14.4052 16.6667L6.54901 8.81054C6.51674 9.0377 6.5 9.26791 6.5 9.5C6.5 12.0412 8.00575 14.7107 9.80351 16.9279C10.5857 17.8925 11.3717 18.7089 12 19.3147C12.6283 18.7089 13.4143 17.8925 14.1965 16.9279C14.2665 16.8415 14.3361 16.7544 14.4052 16.6667Z" fill="black"/>
<path d="M10.4475 7.70907L13.7909 11.0525C14.7738 9.98859 14.7349 8.88685 13.674 7.82599C12.6131 6.76513 11.5114 6.72616 10.4475 7.70907Z" fill="black"/>
<path d="M17.5 9.5C17.5 10.8718 17.0612 12.2809 16.3746 13.6361L17.8532 15.1148C18.8122 13.3909 19.5 11.4684 19.5 9.5C19.5 5.49999 16 2 12 2C10.0578 2 8.23351 2.82514 6.87048 4.13202L8.28512 5.54665C9.2853 4.60105 10.6091 4 12 4C14.8954 4 17.5 6.60456 17.5 9.5Z" fill="black"/>
</svg>
