<svg width="24" height="24" viewBox="0 0 24 24" fill="none" xmlns="http://www.w3.org/2000/svg">
<path d="M4.5 9.5C4.5 8.69289 4.6425 7.90613 4.90285 7.16438L2 4.26153L3.26153 3L20 19.7385L18.7385 21L15.8286 18.0901C13.9278 20.4578 12 22 12 22C12 22 4.5 16 4.5 9.5Z" fill="black"/>
<path d="M19.5 9.5C19.5 11.4684 18.8122 13.3909 17.8532 15.1148L13.7909 11.0525C14.7738 9.98859 14.7349 8.88685 13.674 7.82599C12.6131 6.76513 11.5114 6.72616 10.4475 7.70907L6.87049 4.13202C8.23351 2.82514 10.0578 2 12 2C16 2 19.5 5.49999 19.5 9.5Z" fill="black"/>
</svg>
