<svg width="24" height="24" viewBox="0 0 24 24" fill="none" xmlns="http://www.w3.org/2000/svg">
<path d="M10.326 7.82599C11.4273 6.72467 12.5727 6.72467 13.674 7.82599C14.7753 8.92731 14.7753 10.0727 13.674 11.174C12.5727 12.2753 11.4273 12.2753 10.326 11.174C9.22467 10.0727 9.22467 8.92731 10.326 7.82599Z" fill="black"/>
<path fill-rule="evenodd" clip-rule="evenodd" d="M19.5 9.5C19.5 16 12 22 12 22C12 22 4.5 16 4.5 9.5C4.5 5.49999 8 2 12 2C16 2 19.5 5.49999 19.5 9.5ZM6.5 9.5C6.5 6.60456 9.10457 4 12 4C14.8954 4 17.5 6.60456 17.5 9.5C17.5 12.0412 15.9942 14.7107 14.1965 16.9279C13.4143 17.8925 12.6283 18.7089 12 19.3147C11.3717 18.7089 10.5857 17.8925 9.80351 16.9279C8.00575 14.7107 6.5 12.0412 6.5 9.5Z" fill="black"/>
</svg>
