<svg width="24" height="24" viewBox="0 0 24 24" fill="none" xmlns="http://www.w3.org/2000/svg">
<path fill-rule="evenodd" clip-rule="evenodd" d="M7 8.46292V7.00091C7 5.87756 7.55066 4.7533 8.65198 3.65198C10.8546 1.44934 13.1454 1.44934 15.348 3.65198C16.4498 4.75372 17.0004 5.87751 17 7.00128V8.46292C19.4523 9.19689 20 10.9802 20 15C20 20.95 18.8 22 12 22C5.2 22 4 20.95 4 15C4 10.9802 4.54772 9.19689 7 8.46292ZM10.0662 5.0662C10.9355 4.19692 11.5799 4 12 4C12.4201 4 13.0645 4.19692 13.9338 5.0662C14.8031 5.93547 15 6.5799 15 7V8.10957C14.8812 8.09852 14.7597 8.08843 14.6354 8.07923C13.8673 8.02241 12.9934 8 12 8C11.0066 8 10.1327 8.02241 9.36462 8.07923C9.24033 8.08843 9.11881 8.09852 9 8.10957V7.00057C9 6.58047 9.19693 5.93547 10.0662 5.0662ZM10.6608 13.6608C11.5419 12.7797 12.4581 12.7797 13.3392 13.6608C14.2203 14.5419 14.2203 15.4581 13.3392 16.3392C12.4581 17.2203 11.5419 17.2203 10.6608 16.3392C9.77974 15.4581 9.77974 14.5419 10.6608 13.6608Z" fill="black"/>
</svg>
