<svg width="24" height="24" viewBox="0 0 24 24" fill="none" xmlns="http://www.w3.org/2000/svg">
<path d="M13.3392 13.6608C12.4581 12.7797 11.5419 12.7797 10.6608 13.6608C9.77974 14.5419 9.77974 15.4581 10.6608 16.3392C11.5419 17.2203 12.4581 17.2203 13.3392 16.3392C14.2203 15.4581 14.2203 14.5419 13.3392 13.6608Z" fill="black"/>
<path fill-rule="evenodd" clip-rule="evenodd" d="M17 7.00128V8.46292C19.4523 9.19689 20 10.9802 20 15C20 20.95 18.8 22 12 22C5.2 22 4 20.95 4 15C4 10.9802 4.54773 9.19689 7 8.46292V7C7 5.87665 7.55066 4.7533 8.65198 3.65198C10.8546 1.44934 13.1454 1.44934 15.348 3.65198C16.4498 4.75372 17.0004 5.87751 17 7.00128ZM10.0662 5.0662C10.9355 4.19693 11.5799 4 12 4C12.4201 4 13.0645 4.19693 13.9338 5.0662C14.8031 5.93547 15 6.5799 15 7V8.10957C14.147 8.03025 13.1542 8 12 8C10.8458 8 9.85302 8.03025 9 8.10957V7.00057C9 6.58047 9.19693 5.93547 10.0662 5.0662ZM6.24118 11.8516C6.07676 12.5545 6 13.5471 6 15C6 16.4529 6.07676 17.4455 6.24118 18.1484C6.39636 18.8118 6.59729 19.0776 6.76701 19.2261C6.96299 19.3976 7.35328 19.6166 8.23383 19.7743C9.12108 19.9332 10.3255 20 12 20C13.6745 20 14.8789 19.9332 15.7662 19.7743C16.6467 19.6166 17.037 19.3976 17.233 19.2261C17.4027 19.0776 17.6036 18.8118 17.7588 18.1484C17.9232 17.4455 18 16.4529 18 15C18 13.5471 17.9232 12.5545 17.7588 11.8516C17.6036 11.1882 17.4027 10.9224 17.233 10.7739C17.037 10.6024 16.6467 10.3834 15.7662 10.2257C14.8789 10.0668 13.6745 10 12 10C10.3255 10 9.12108 10.0668 8.23383 10.2257C7.35328 10.3834 6.96299 10.6024 6.76701 10.7739C6.59729 10.9224 6.39636 11.1882 6.24118 11.8516Z" fill="black"/>
</svg>
