<svg width="24" height="24" viewBox="0 0 24 24" fill="none" xmlns="http://www.w3.org/2000/svg">
<path d="M21 12C21 19.65 19.65 21 12 21V19C13.8828 19 15.2358 18.9142 16.2326 18.7102C17.2076 18.5106 17.6794 18.2296 17.9545 17.9545C18.2296 17.6794 18.5106 17.2076 18.7102 16.2326C18.9142 15.2358 19 13.8828 19 12C19 10.1172 18.9142 8.76421 18.7102 7.76745C18.5106 6.7924 18.2296 6.32058 17.9545 6.04546C17.6794 5.77035 17.2076 5.48942 16.2326 5.28985C15.2358 5.08583 13.8828 5 12 5V3C19.65 3 21 4.35 21 12Z" fill="black"/>
<path d="M7.928 8.56069C7.98701 8.91294 7.99908 9.26975 7.99995 9.6268L7.99996 10.9998H15V12.9998H7.99998L7.99999 14.3511C7.99955 14.7154 7.98821 15.0795 7.928 15.4389C7.8976 15.62 7.84515 15.8597 7.66605 15.961C7.52695 16.0392 7.36637 15.9852 7.23361 15.9212C6.42824 15.5328 5.74259 14.7321 5.13478 14.0222C5.04464 13.917 4.95621 13.8137 4.86935 13.7141C4.28978 13.0492 4 12.5245 4 11.9998C4 11.475 4.28978 10.9503 4.86935 10.2855C4.95621 10.1859 5.04464 10.0826 5.13478 9.97731C5.7426 9.26747 6.42824 8.46674 7.23361 8.07837C7.36637 8.01431 7.5275 7.96065 7.6666 8.03891C7.84571 8.14016 7.8976 8.37956 7.928 8.56069Z" fill="black"/>
</svg>
