<svg width="24" height="24" viewBox="0 0 24 24" fill="none" xmlns="http://www.w3.org/2000/svg">
<path fill-rule="evenodd" clip-rule="evenodd" d="M11.1992 22.1967C9.77079 22.5924 8.23471 22.5365 6.89389 21.9047C2.84127 19.995 2 17.3686 2 10.8681C2 3.36809 3.1199 1.66206 9 2.97137C9.50638 2.79611 10.3743 2.54081 11.2464 2.29593C12.8878 1.835 15.1173 1.87808 16.6269 2.67028C20.2318 4.56196 21 7.23616 21 13.4481C21 20.9481 19.8801 22.6541 14 21.3448V21.3244C13.0783 21.6434 12.1427 21.9354 11.1992 22.1967ZM9.61477 20.5411C9.30183 20.6215 9 20.3833 9 20.0602V5.09894C9.83662 4.78398 10.8391 4.46195 12.0471 4.11843C12.5245 3.98267 12.9697 3.86151 13.3852 3.75474C13.6982 3.67432 14 3.91247 14 4.23558V19.1969C13.1634 19.5118 12.1609 19.8338 10.9529 20.1774C10.4755 20.3131 10.0303 20.4343 9.61477 20.5411Z" fill="black"/>
</svg>
