<svg width="24" height="24" viewBox="0 0 24 24" fill="none" xmlns="http://www.w3.org/2000/svg">
<path fill-rule="evenodd" clip-rule="evenodd" d="M11.1992 22.1967C9.77079 22.5924 8.23471 22.5365 6.89389 21.9047C2.84127 19.995 2 17.3686 2 10.8681C2 3.36809 3.1199 1.66206 9 2.97137C9.50638 2.79611 10.3743 2.54081 11.2464 2.29593C12.8878 1.835 15.1173 1.87808 16.6269 2.67028C20.2318 4.56196 21 7.23616 21 13.4481C21 20.9481 19.8801 22.6541 14 21.3448V21.3244C13.0783 21.6434 12.1427 21.9354 11.1992 22.1967ZM9.61477 20.5411C9.30183 20.6215 9 20.3833 9 20.0602V5.09894C9.83662 4.78398 10.8391 4.46195 12.0471 4.11843C12.5245 3.98267 12.9697 3.86151 13.3852 3.75474C13.6982 3.67432 14 3.91247 14 4.23558V19.1969C13.1634 19.5118 12.1609 19.8338 10.9529 20.1774C10.4755 20.3131 10.0303 20.4343 9.61477 20.5411ZM4 10.8681C4 15.1358 4.4007 17.0799 5.32134 18.3063C5.65209 18.7469 6.08951 19.1474 6.70449 19.5336C6.83445 19.6153 7 19.5196 7 19.3661L7 4.63949C6.81292 4.61568 6.6363 4.59797 6.46943 4.58629C5.4201 4.5129 5.06236 4.7015 4.93538 4.79843C4.80505 4.89791 4.52382 5.20171 4.30737 6.24814C4.09146 7.29192 4 8.77384 4 10.8681ZM16.5306 19.7299C16.3637 19.7182 16.1871 19.7005 16 19.6767V4.9501C16 4.79663 16.1655 4.70094 16.2955 4.78257C16.9105 5.16885 17.3479 5.56933 17.6787 6.00992C18.5993 7.2363 19 9.18036 19 13.4481C19 15.5424 18.9085 17.0243 18.6926 18.0681C18.4762 19.1145 18.1949 19.4183 18.0646 19.5178C17.9376 19.6147 17.5799 19.8033 16.5306 19.7299Z" fill="black"/>
</svg>
