<svg width="24" height="24" viewBox="0 0 24 24" fill="none" xmlns="http://www.w3.org/2000/svg">
<path d="M13.0239 10.685C13.0298 11.3729 13.0298 12.0611 13.0238 12.7489C13.0181 13.4038 13.0071 14.0584 12.9907 14.7118L12.9906 14.7159C12.9856 14.9136 12.9747 15.3518 12.8379 15.7568C12.7656 15.9707 12.6347 16.2501 12.3857 16.4817C12.1143 16.7341 11.7669 16.8689 11.3894 16.8673C10.9849 16.8656 10.6106 16.7148 10.254 16.5323C9.647 16.2238 9.09295 15.8156 8.53938 15.4078C8.26447 15.2053 7.98967 15.0029 7.70856 14.8127H7V17.9085C7 18.7857 6.85 18.9405 6 18.9405C5.15 18.9405 5 18.7857 5 17.9085V14.8127C2.45 14.8127 2 14.3484 2 11.717C2 9.08554 2.45 8.62117 5 8.62117H7.69742C8.06712 8.37765 8.43058 8.1232 8.79396 7.86878C9.08146 7.6675 9.36893 7.46623 9.6594 7.27045C9.87229 7.12696 10.1235 6.95868 10.254 6.89233C10.6107 6.70986 10.9849 6.55905 11.3894 6.55733C11.7669 6.55576 12.1143 6.69051 12.3857 6.94294C12.6347 7.17452 12.7656 7.45399 12.8379 7.66787C12.9571 8.02084 12.9807 8.39896 12.9881 8.62117C13.0085 9.30893 13.018 9.99697 13.0239 10.685Z" fill="black"/>
<path d="M13.9872 14.8485L13.987 14.8522L14.0132 14.8253C15.9956 12.7796 15.9956 10.6521 14.0132 8.60643L13.9874 8.57988C14.0148 9.55125 14.0264 10.5233 14.0281 11.495C14.03 12.5767 14.0174 13.6594 13.9903 14.7382L13.9872 14.8485Z" fill="black"/>
<path d="M16.7986 5.55566C16.1198 6.0672 16.0903 6.27727 16.6018 6.95611C17.1134 7.63495 17.3234 7.66447 18.0023 7.15293L19.5995 5.9493C20.2784 5.43776 20.3079 5.22769 19.7964 4.54885C19.2848 3.87001 19.0747 3.84049 18.3959 4.35203L16.7986 5.55566Z" fill="black"/>
<path d="M19 10.7502C18.15 10.7502 18 10.9002 18 11.7502C18 12.6002 18.15 12.7502 19 12.7502H21C21.85 12.7502 22 12.6002 22 11.7502C22 10.9002 21.85 10.7502 21 10.7502H19Z" fill="black"/>
<path d="M16.6018 16.5489C17.1134 15.87 17.3234 15.8405 18.0023 16.352L19.5995 17.5557C20.2784 18.0672 20.3079 18.2773 19.7964 18.9561C19.2848 19.635 19.0747 19.6645 18.3959 19.1529L16.7986 17.9493C16.1198 17.4378 16.0903 17.2277 16.6018 16.5489Z" fill="black"/>
</svg>
