<svg width="24" height="24" viewBox="0 0 24 24" fill="none" xmlns="http://www.w3.org/2000/svg">
<path d="M16.7986 5.55566C16.1198 6.0672 16.0903 6.27727 16.6018 6.95611C17.1134 7.63495 17.3234 7.66447 18.0023 7.15293L19.5995 5.9493C20.2784 5.43776 20.3079 5.22769 19.7964 4.54885C19.2848 3.87001 19.0747 3.84049 18.3959 4.35203L16.7986 5.55566Z" fill="black"/>
<path d="M19 10.7502C18.15 10.7502 18 10.9002 18 11.7502C18 12.6002 18.15 12.7502 19 12.7502H21C21.85 12.7502 22 12.6002 22 11.7502C22 10.9002 21.85 10.7502 21 10.7502H19Z" fill="black"/>
<path d="M16.6018 16.5489C17.1134 15.87 17.3234 15.8405 18.0023 16.352L19.5995 17.5557C20.2784 18.0672 20.3079 18.2773 19.7964 18.9561C19.2848 19.635 19.0747 19.6645 18.3959 19.1529L16.7986 17.9493C16.1198 17.4378 16.0903 17.2277 16.6018 16.5489Z" fill="black"/>
<path fill-rule="evenodd" clip-rule="evenodd" d="M12.9907 8.83899C13.0072 9.47523 13.0182 10.1125 13.0239 10.7502C13.0298 11.4168 13.0298 12.0837 13.0238 12.7502C13.0181 13.3849 13.0071 14.0192 12.9907 14.6524L12.9906 14.6564L12.9905 14.6579C12.9899 14.6845 12.9891 14.7155 12.9878 14.7502C12.9801 14.9667 12.9555 15.3277 12.8379 15.6651C12.7656 15.8723 12.6347 16.1431 12.3857 16.3676C12.1143 16.6122 11.7669 16.7428 11.3894 16.7412C10.9027 16.7392 10.4798 16.5289 10.286 16.4325L10.254 16.4166C9.647 16.1176 9.09295 15.7221 8.53938 15.3269C8.26447 15.1306 7.98967 14.9345 7.70856 14.7502H7V17.7502C7 18.6002 6.85 18.7502 6 18.7502C5.15 18.7502 5 18.6002 5 17.7502V14.7502C2.45 14.7502 2 14.3002 2 11.7502C2 9.20022 2.45 8.75022 5 8.75022H7.69742C8.06715 8.51422 8.43113 8.26729 8.79434 8.02086C9.08156 7.82598 9.36905 7.63094 9.6594 7.44129C9.87229 7.30224 10.1235 7.13917 10.254 7.07487L10.286 7.05899C10.4798 6.96257 10.9027 6.75224 11.3894 6.75023C11.7669 6.74871 12.1143 6.87929 12.3857 7.12391C12.6347 7.34832 12.7656 7.61915 12.8379 7.82642C12.9571 8.16847 12.9807 8.53488 12.9881 8.75022L12.9897 8.8027L12.9907 8.83899ZM11.0195 10.7502C11.0246 11.4168 11.0246 12.0836 11.0194 12.7502C11.0174 13.0069 11.0146 13.2636 11.011 13.5201C11.0064 13.8572 11.0004 14.1941 10.993 14.5307C10.5209 14.2296 10.0558 13.9174 9.59079 13.6052L9.58969 13.6045C9.3933 13.4727 9.19691 13.3408 9 13.2098L8.3 12.7502L5 12.7502C4.55049 12.7502 4.24721 12.734 4.04076 12.7095C4.01618 12.503 4 12.1997 4 11.7502C4 11.3007 4.01618 10.9974 4.04076 10.791C4.24721 10.7664 4.55049 10.7502 5 10.7502H8.3L9 10.2816C9.19504 10.1519 9.38958 10.0213 9.58412 9.89071L9.58974 9.88693C9.89633 9.68113 10.2034 9.47497 10.5121 9.27231C10.6718 9.16747 10.832 9.06347 10.993 8.96075C11.006 9.55665 11.0148 10.1533 11.0195 10.7502Z" fill="black"/>
<path d="M13.9872 14.7848L13.987 14.7884L14.0132 14.7624C15.9956 12.78 15.9956 10.7183 14.0132 8.73594L13.9874 8.71021L13.9877 8.71864L13.9894 8.77526L13.9903 8.81201C14.007 9.45395 14.0182 10.097 14.0239 10.7403C14.0298 11.4128 14.0298 12.0857 14.0238 12.7581C14.0181 13.3984 14.0069 14.0391 13.9903 14.678L13.9902 14.6835L13.9872 14.7848Z" fill="black"/>
</svg>
