<svg width="24" height="24" viewBox="0 0 24 24" fill="none" xmlns="http://www.w3.org/2000/svg">
<path d="M4.66079 10.6608C5.54185 9.77974 6.45815 9.77974 7.33921 10.6608C8.22026 11.5419 8.22026 12.4581 7.33921 13.3392C6.45815 14.2203 5.54185 14.2203 4.66079 13.3392C3.77974 12.4581 3.77974 11.5419 4.66079 10.6608Z" fill="black"/>
<path d="M10.6608 10.6608C11.5419 9.77974 12.4581 9.77974 13.3392 10.6608C14.2203 11.5419 14.2203 12.4581 13.3392 13.3392C12.4581 14.2203 11.5419 14.2203 10.6608 13.3392C9.77974 12.4581 9.77974 11.5419 10.6608 10.6608Z" fill="black"/>
<path d="M19.3392 10.6608C18.4581 9.77974 17.5419 9.77974 16.6608 10.6608C15.7797 11.5419 15.7797 12.4581 16.6608 13.3392C17.5419 14.2203 18.4581 14.2203 19.3392 13.3392C20.2203 12.4581 20.2203 11.5419 19.3392 10.6608Z" fill="black"/>
</svg>
