<svg width="24" height="24" viewBox="0 0 24 24" fill="none" xmlns="http://www.w3.org/2000/svg">
<path d="M10.6608 4.66079C11.5419 3.77974 12.4581 3.77974 13.3392 4.66079C14.2203 5.54185 14.2203 6.45815 13.3392 7.33921C12.4581 8.22026 11.5419 8.22026 10.6608 7.33921C9.77974 6.45815 9.77974 5.54185 10.6608 4.66079Z" fill="black"/>
<path d="M10.6608 10.6608C11.5419 9.77974 12.4581 9.77974 13.3392 10.6608C14.2203 11.5419 14.2203 12.4581 13.3392 13.3392C12.4581 14.2203 11.5419 14.2203 10.6608 13.3392C9.77974 12.4581 9.77974 11.5419 10.6608 10.6608Z" fill="black"/>
<path d="M13.3392 16.6608C12.4581 15.7797 11.5419 15.7797 10.6608 16.6608C9.77974 17.5419 9.77974 18.4581 10.6608 19.3392C11.5419 20.2203 12.4581 20.2203 13.3392 19.3392C14.2203 18.4581 14.2203 17.5419 13.3392 16.6608Z" fill="black"/>
</svg>
