<svg width="24" height="24" viewBox="0 0 24 24" fill="none" xmlns="http://www.w3.org/2000/svg">
<path fill-rule="evenodd" clip-rule="evenodd" d="M3 4.27L4.27 3L21 19.73L19.73 21L14 15.27V17C14 17.8987 13.5595 18.7974 12.6784 19.6784C10.9163 21.4405 9.0837 21.4405 7.32159 19.6784C5.55947 17.9163 5.55947 16.0837 7.32159 14.3216C8.85862 12.7846 10.4493 12.5882 12 13.7326V13.27L3 4.27ZM11.2642 15.7358C11.9132 16.3848 12 16.8046 12 17C12 17.1954 11.9132 17.6152 11.2642 18.2642C10.6152 18.9132 10.1954 19 10 19C9.80457 19 9.38481 18.9132 8.7358 18.2642C8.08679 17.6152 8 17.1954 8 17C8 16.8046 8.08679 16.3848 8.7358 15.7358C9.38481 15.0868 9.80457 15 10 15C10.1954 15 10.6152 15.0868 11.2642 15.7358Z" fill="black"/>
<path d="M12 8.27L14 10.27V7H18V3H12V8.27Z" fill="black"/>
</svg>
