<svg width="24" height="24" viewBox="0 0 24 24" fill="none" xmlns="http://www.w3.org/2000/svg">
<path d="M8.65198 8.65198C10.8546 6.44934 13.1454 6.44934 15.348 8.65198C17.5507 10.8546 17.5507 13.1454 15.348 15.348C13.1454 17.5507 10.8546 17.5507 8.65198 15.348C6.44934 13.1454 6.44934 10.8546 8.65198 8.65198Z" fill="black"/>
<path fill-rule="evenodd" clip-rule="evenodd" d="M13 1H11V3.08084C9.31227 3.3538 7.62909 4.31805 5.97357 5.97357C4.31805 7.62909 3.3538 9.31227 3.08084 11H1V13H3.08084C3.3538 14.6877 4.31804 16.3709 5.97357 18.0264C7.62909 19.682 9.31227 20.6462 11 20.9192V23H13V20.9192C14.6877 20.6462 16.3709 19.682 18.0264 18.0264C19.682 16.3709 20.6462 14.6877 20.9192 13H23V11H20.9192C20.6462 9.31227 19.682 7.62909 18.0264 5.97357C16.3709 4.31804 14.6877 3.3538 13 3.08084V1ZM7.38778 7.38778C9.13811 5.63745 10.6812 5 12 5C13.3188 5 14.8619 5.63745 16.6122 7.38778C18.3625 9.13811 19 10.6812 19 12C19 13.3188 18.3625 14.8619 16.6122 16.6122C14.8619 18.3625 13.3188 19 12 19C10.6812 19 9.13811 18.3625 7.38778 16.6122C5.63745 14.8619 5 13.3188 5 12C5 10.6812 5.63745 9.13811 7.38778 7.38778Z" fill="black"/>
</svg>
