<svg width="24" height="24" viewBox="0 0 24 24" fill="none" xmlns="http://www.w3.org/2000/svg">
<path fill-rule="evenodd" clip-rule="evenodd" d="M5.98789 18.9825V19H18.0106H18.0121V18.9825C18.0645 18.987 18.1195 18.9905 18.1772 18.9932C18.2802 18.998 18.3919 19 18.5131 19C18.6954 19 18.8562 18.9954 18.998 18.9839L19.0141 18.9825C19.7122 18.9224 19.9425 18.6877 20 17.9839L18.0283 16.0161L18.0121 16.0175C18.0121 15.9555 18.0123 15.8935 18.0127 15.8314C18.0161 15.3286 18.0321 14.8239 18.048 14.3207L18.0578 14.0066C18.1415 11.2732 18.1456 8.59801 16.0257 6.48238C15.1931 5.65143 14.35 5.08171 13.503 4.77323V4C13.503 3.663 13.3375 3.32599 13.0064 2.99559C12.3443 2.3348 11.6557 2.3348 10.9936 2.99559C10.6625 3.32599 10.497 3.663 10.497 4V4.77322C9.64999 5.08171 8.8069 5.65143 7.97427 6.48238C5.85426 8.59812 5.85853 11.2735 5.94218 14.007L5.95201 14.3207C5.9679 14.8223 5.98384 15.3253 5.98723 15.8265C5.98766 15.8902 5.98789 15.9539 5.98789 16.0175L5.97172 16.0161L4 17.9839C4.05754 18.6877 4.28783 18.9224 4.98584 18.9825L5.00202 18.9839C5.14383 18.9954 5.30465 19 5.48687 19C5.60806 19 5.71979 18.998 5.82275 18.9932C5.88052 18.9905 5.93552 18.987 5.98789 18.9825ZM12.816 6.65201C12.289 6.46008 11.711 6.46008 11.184 6.65201C10.6798 6.83567 10.076 7.2133 9.39134 7.89659C8.49667 8.78946 8.1215 9.83282 7.98515 11.1654C7.88659 12.1287 7.91664 13.0344 7.95126 14.0775C7.97086 14.6683 7.99193 15.3031 7.99193 16.0175V17H16.0081V16.0175C16.0081 15.3031 16.0291 14.6683 16.0488 14.0775C16.0834 13.0344 16.1134 12.1287 16.0149 11.1654C15.8785 9.83282 15.5033 8.78946 14.6087 7.89659C13.924 7.2133 13.3202 6.83567 12.816 6.65201Z" fill="black"/>
<path d="M13.3419 21.3392C12.9005 21.7797 12.4503 22 12 22C11.5498 22 11.0995 21.7797 10.6581 21.3392C10.5453 21.2267 10.447 21.1135 10.363 21C10.1183 20.6691 9.99597 20.3345 9.99597 20H14.004C14.004 20.3345 13.8817 20.6691 13.637 21C13.5531 21.1135 13.4547 21.2267 13.3419 21.3392Z" fill="black"/>
</svg>
