<svg width="24" height="24" viewBox="0 0 24 24" fill="none" xmlns="http://www.w3.org/2000/svg">
<path d="M13.0064 2.99559C12.3443 2.3348 11.6557 2.3348 10.9936 2.99559C10.6625 3.32599 10.497 3.663 10.497 4V4.77322C9.64999 5.08171 8.8069 5.65143 7.97427 6.48238C5.34968 9.10169 6.0085 12.6129 5.98789 16.0175C5.98253 16.017 5.97714 16.0166 5.97172 16.0161L4 17.9839C4.06956 18.8346 4.39152 19 5.48687 19C5.67605 19 5.84217 18.9951 5.98789 18.9825V19H18.0121V18.9825C18.1578 18.9951 18.324 19 18.5131 19C19.6085 19 19.9304 18.8346 20 17.9839L18.0283 16.0161L18.0121 16.0175C18.0121 12.6167 18.6647 9.116 16.0257 6.48238C15.1931 5.65143 14.35 5.08171 13.503 4.77323V4C13.503 3.663 13.3375 3.32599 13.0064 2.99559Z" fill="black"/>
<path d="M10.6581 21.3392C10.2167 20.8987 9.99597 20.4493 9.99597 20H14.004C14.004 20.4493 13.7833 20.8987 13.3419 21.3392C12.4591 22.2203 11.5409 22.2203 10.6581 21.3392Z" fill="black"/>
</svg>
