<svg width="24" height="24" viewBox="0 0 24 24" fill="none" xmlns="http://www.w3.org/2000/svg">
<path fill-rule="evenodd" clip-rule="evenodd" d="M15.5 3H8.50001C6.95808 3 5.83497 3.08975 5.02214 3.37778C3.77405 3.82005 3.25753 4.72981 3.07964 6.5C3.02213 7.07231 3.00001 7.73455 3.00001 8.5C3.00001 13.175 3.82501 14 8.50001 14H15.5C20.175 14 21 13.175 21 8.5C21 7.73454 20.9779 7.0723 20.9204 6.49999C20.7425 4.72981 20.226 3.82004 18.9779 3.37778C18.1651 3.08975 17.0419 3 15.5 3ZM15.5 5C16.6391 5 17.4014 5.05302 17.9306 5.16133C18.544 5.28687 18.7131 5.45604 18.8387 6.0694C18.901 6.37397 18.901 6.62603 18.8387 6.9306C18.7131 7.54396 18.544 7.71313 17.9306 7.83867C17.4829 7.9303 16.8684 7.98236 16 7.99622C15.9508 7.997 15.9009 7.99767 15.8501 7.99821C15.7375 7.9994 15.6209 8 15.5 8H14L14 9C14 9.33455 13.8779 9.66909 13.6337 10C13.5499 10.1135 13.4518 10.2267 13.3392 10.3392C12.4582 11.2203 11.5419 11.2203 10.6608 10.3392C10.5483 10.2267 10.4501 10.1135 10.3663 10C10.1221 9.66909 10 9.33455 10 9V8H8.50001C8.37914 8 8.26251 7.9994 8.14995 7.99821C7.20176 7.98813 6.54244 7.93549 6.06941 7.83867C5.45605 7.71313 5.28688 7.54396 5.16134 6.9306C5.099 6.62603 5.099 6.37397 5.16134 6.0694C5.28688 5.45604 5.45605 5.28687 6.06941 5.16133C6.59859 5.05302 7.36092 5 8.50001 5H15.5ZM6.06941 11.8387C6.59859 11.947 7.36092 12 8.50001 12H9.51063C9.41866 11.92 9.33063 11.8375 9.24659 11.7534C8.78074 11.2876 8.36219 10.6991 8.1489 9.99833C6.7858 9.98489 5.77195 9.88792 5.02214 9.62222C5.04711 10.174 5.09332 10.5983 5.16134 10.9306C5.28688 11.544 5.45605 11.7131 6.06941 11.8387ZM17.9306 11.8387C17.4014 11.947 16.6391 12 15.5 12H14.4894C14.5814 11.92 14.6694 11.8375 14.7534 11.7534C15.2193 11.2876 15.6378 10.6991 15.8511 9.99833C17.2142 9.98489 18.2281 9.88792 18.9779 9.62222C18.9529 10.174 18.9067 10.5983 18.8387 10.9306C18.7131 11.544 18.544 11.7131 17.9306 11.8387Z" fill="black"/>
<path fill-rule="evenodd" clip-rule="evenodd" d="M3 15.5C3 15.01 3.00906 14.5623 3.03067 14.1534C4.16383 14.8118 5.89289 15 8.5 15H10V16C10 16.3345 10.1221 16.6691 10.3663 17C10.4501 17.1135 10.5483 17.2267 10.6608 17.3392C11.5419 18.2203 12.4582 18.2203 13.3392 17.3392C13.4518 17.2267 13.5499 17.1135 13.6337 17C13.8779 16.6691 14 16.3345 14 16L14 15H15.5C18.1071 15 19.8362 14.8118 20.9693 14.1534C20.9909 14.5623 21 15.01 21 15.5C21 20.175 20.175 21 15.5 21H8.5C3.825 21 3 20.175 3 15.5ZM8.5 19C7.36092 19 6.59858 18.947 6.0694 18.8387C5.45604 18.7131 5.28687 18.544 5.16133 17.9306C5.09331 17.5983 5.0471 17.174 5.02213 16.6222C5.77194 16.8879 6.78579 16.9849 8.14889 16.9983C8.36218 17.6991 8.78073 18.2876 9.24658 18.7534C9.33062 18.8375 9.41865 18.92 9.51062 19H8.5ZM15.5 19C16.6391 19 17.4014 18.947 17.9306 18.8387C18.544 18.7131 18.7131 18.544 18.8387 17.9306C18.9067 17.5983 18.9529 17.174 18.9779 16.6222C18.2281 16.8879 17.2142 16.9849 15.8511 16.9983C15.6378 17.6991 15.2193 18.2876 14.7534 18.7534C14.6694 18.8375 14.5813 18.92 14.4894 19H15.5Z" fill="black"/>
</svg>
