<svg width="24" height="24" viewBox="0 0 24 24" fill="none" xmlns="http://www.w3.org/2000/svg">
<path fill-rule="evenodd" clip-rule="evenodd" d="M3.03949 7C3.17321 4.85156 3.68323 3.81494 5.11284 3.34688C5.91792 3.08328 7.01463 3 8.5 3H15.5C16.9854 3 18.0821 3.08328 18.8872 3.34687C20.3168 3.81494 20.8268 4.85156 20.9605 7C20.9885 7.44964 21 7.94798 21 8.5C21 13.175 20.175 14 15.5 14H8.5C3.825 14 3 13.175 3 8.5C3 7.94798 3.0115 7.44964 3.03949 7ZM5.16133 6.0694C5.10973 6.32151 5.07068 6.62653 5.04393 7C5.07068 7.37347 5.10973 7.67849 5.16133 7.9306C5.2652 8.43807 5.38754 8.56536 5.41109 8.58891C5.43464 8.61246 5.56193 8.7348 6.0694 8.83867C6.59858 8.94698 7.36091 9 8.5 9H9C9 9.67401 9.3304 10.348 9.99119 11.0088C11.3128 12.3304 12.6872 12.3304 14.0088 11.0088C14.6696 10.348 15 9.67401 15 9H15.5C16.6391 9 17.4014 8.94698 17.9306 8.83867C18.4381 8.7348 18.5654 8.61246 18.5889 8.58891C18.6125 8.56536 18.7348 8.43807 18.8387 7.9306C18.8903 7.67849 18.9293 7.37347 18.9561 7C18.9293 6.62653 18.8903 6.32151 18.8387 6.0694C18.7348 5.56193 18.6125 5.43464 18.5889 5.41109C18.5654 5.38754 18.4381 5.2652 17.9306 5.16133C17.4014 5.05302 16.6391 5 15.5 5H8.5C7.36092 5 6.59858 5.05302 6.0694 5.16133C5.56193 5.2652 5.43464 5.38754 5.41109 5.41109C5.38754 5.43464 5.2652 5.56193 5.16133 6.0694Z" fill="black"/>
<path d="M3 15.5C3 15.3761 3.00058 15.255 3.00179 15.1364C4.13438 15.8086 5.87064 16 8.5 16H9C9 16.674 9.3304 17.348 9.99119 18.0088C11.3128 19.3304 12.6872 19.3304 14.0088 18.0088C14.6696 17.348 15 16.674 15 16H15.5C18.1294 16 19.8656 15.8086 20.9982 15.1364C20.9994 15.255 21 15.3761 21 15.5C21 20.175 20.175 21 15.5 21H8.5C3.825 21 3 20.175 3 15.5Z" fill="black"/>
</svg>
