<svg width="24" height="24" viewBox="0 0 24 24" fill="none" xmlns="http://www.w3.org/2000/svg">
<path fill-rule="evenodd" clip-rule="evenodd" d="M12 2C5.2 2 4 3.5 4 12C4 20.5 5.2 22 12 22C18.8 22 20 20.5 20 12C20 10.6874 19.9714 9.54167 19.8979 8.54265C19.8643 8.08475 19.6586 7.65858 19.3339 7.33392L14.8543 2.85429C14.3439 2.3439 13.6667 2.0292 12.9451 2.01108C12.6428 2.00349 12.3279 2 12 2ZM6 12C6 9.89811 6.07602 8.34394 6.26747 7.17474C6.45916 6.00403 6.73954 5.40214 7.01174 5.06189C7.44647 4.51848 8.3118 4.09224 11.0338 4.01318C11.0515 4.33961 11.091 4.73016 11.1835 5.18189C11.4895 6.6769 11.9717 7.65451 12.6507 8.33355C13.2512 8.93401 14.1873 9.64972 15.7995 9.97969C16.5218 10.1275 17.1637 10.1107 17.6474 10.0702C17.7603 10.0607 17.8721 10.0492 17.9721 10.0382C17.9914 10.6361 18 11.288 18 12C18 14.1019 17.924 15.6561 17.7325 16.8253C17.5408 17.996 17.2605 18.5979 16.9883 18.9381C16.5058 19.5412 15.4929 20 12 20C8.50713 20 7.49423 19.5412 7.01174 18.9381C6.73954 18.5979 6.45916 17.996 6.26747 16.8253C6.07602 15.6561 6 14.1019 6 12ZM17.2634 8.09179L13.4401 4.2685C13.3099 4.13837 13.1691 4.06371 13.0389 4.03075C13.0552 4.25172 13.0855 4.50038 13.1429 4.78085C13.4021 6.04748 13.7571 6.61152 14.0649 6.91933C14.4513 7.30572 15.051 7.78503 16.2005 8.02031C16.5797 8.09792 16.9374 8.10801 17.2634 8.09179Z" fill="black"/>
</svg>
