<svg width="24" height="24" viewBox="0 0 24 24" fill="none" xmlns="http://www.w3.org/2000/svg">
<path fill-rule="evenodd" clip-rule="evenodd" d="M12 2C5.2 2 4 3.5 4 12C4 20.5 5.2 22 12 22C18.8 22 20 20.5 20 12C20 10.6874 19.9714 9.54167 19.8979 8.54265C19.8643 8.08475 19.6586 7.65858 19.3339 7.33392L14.8543 2.85429C14.3439 2.3439 13.6667 2.0292 12.9451 2.01108C12.6428 2.00349 12.3279 2 12 2ZM17.2634 8.09179L13.4401 4.2685C13.3099 4.13837 13.1691 4.06371 13.0389 4.03075C13.0552 4.25172 13.0855 4.50038 13.1429 4.78085C13.4021 6.04748 13.7571 6.61152 14.0649 6.91933C14.4513 7.30572 15.051 7.78503 16.2005 8.02031C16.5797 8.09792 16.9374 8.10801 17.2634 8.09179Z" fill="black"/>
</svg>
