<svg width="24" height="24" viewBox="0 0 24 24" fill="none" xmlns="http://www.w3.org/2000/svg">
<path d="M10.0088 3.99119C8.68723 2.6696 7.31278 2.6696 5.99119 3.99119C4.6696 5.31278 4.6696 6.68722 5.99119 8.00881C7.31278 9.3304 8.68723 9.3304 10.0088 8.00881C11.3304 6.68722 11.3304 5.31278 10.0088 3.99119Z" fill="black"/>
<path d="M14.8715 15C15.0438 16.0135 15.0959 17.1061 14.686 18.0291C14.4142 18.6413 13.9863 19.0727 13.3326 19.3722C12.2626 19.8626 10.5872 20 7.99999 20C5.41275 20 3.73742 19.8626 2.66736 19.3722C2.01366 19.0727 1.58583 18.6413 1.31398 18.0291C0.904093 17.1061 0.956235 16.0135 1.12849 15C1.69079 11.6916 3.41082 11 8 11C12.5892 11 14.3092 11.6916 14.8715 15Z" fill="black"/>
<path d="M13.9912 3.99119C15.3128 2.6696 16.6872 2.6696 18.0088 3.99119C19.3304 5.31278 19.3304 6.68722 18.0088 8.00881C16.6872 9.3304 15.3128 9.3304 13.9912 8.00881C12.6696 6.68722 12.6696 5.31278 13.9912 3.99119Z" fill="black"/>
<path d="M22.686 18.0291C23.0959 17.1061 23.0438 16.0135 22.8715 15C22.3092 11.6916 20.5892 11 16 11C15.2644 11 14.6025 11.0178 14.0072 11.0612C15.659 11.6533 16.4796 12.8077 16.8532 14.9444C17.05 16.0705 17.1096 17.2845 16.6412 18.3102C16.3305 18.9904 15.8415 19.4696 15.0944 19.8025C14.9464 19.8685 14.7882 19.9287 14.6192 19.9836C15.0478 19.995 15.5074 20 16 20C18.5872 20 20.2626 19.8626 21.3326 19.3722C21.9863 19.0727 22.4142 18.6413 22.686 18.0291Z" fill="black"/>
</svg>
