<svg width="24" height="24" viewBox="0 0 24 24" fill="none" xmlns="http://www.w3.org/2000/svg">
<path d="M13.4316 9.48586C14.7308 10.3427 16.0586 10.1286 17.3436 8.84361C18.8854 7.30176 18.8854 5.69824 17.3436 4.15639C16.0586 2.87142 14.7308 2.65734 13.4316 3.51414C14.0747 4.36932 14.5 5.37012 14.5 6.5C14.5 7.62988 14.0747 8.63068 13.4316 9.48586Z" fill="black"/>
<path d="M20.3326 19.442C19.3693 19.8344 17.9154 19.9725 15.7473 19.9962C15.8688 19.9576 15.9844 19.9163 16.0944 19.8722C16.8415 19.5727 17.3305 19.1413 17.6411 18.5291C18.1096 17.6061 18.05 16.5135 17.8531 15.5C17.4784 13.5707 16.6537 12.5313 14.9913 12L15 12C19.5892 12 21.3092 12.6148 21.8715 15.5556C22.0437 16.4564 22.0959 17.4276 21.686 18.2481C21.4142 18.7923 20.9863 19.1757 20.3326 19.442Z" fill="black"/>
<path fill-rule="evenodd" clip-rule="evenodd" d="M6.65639 4.15639C8.19824 2.61454 9.80176 2.61454 11.3436 4.15639C12.8855 5.69824 12.8855 7.30176 11.3436 8.84361C9.80176 10.3855 8.19824 10.3855 6.65639 8.84361C5.11454 7.30176 5.11454 5.69824 6.65639 4.15639ZM9 5C8.9169 5 8.60948 5.03173 8.0706 5.5706C7.53173 6.10948 7.5 6.4169 7.5 6.5C7.5 6.5831 7.53173 6.89052 8.0706 7.4294C8.60948 7.96827 8.9169 8 9 8C9.0831 8 9.39052 7.96827 9.9294 7.4294C10.4683 6.89052 10.5 6.5831 10.5 6.5C10.5 6.4169 10.4683 6.10948 9.9294 5.5706C9.39052 5.03173 9.0831 5 9 5Z" fill="black"/>
<path fill-rule="evenodd" clip-rule="evenodd" d="M15.8715 15.5556C16.0438 16.4564 16.0959 17.4276 15.686 18.2481C15.4142 18.7923 14.9863 19.1757 14.3326 19.442C13.2626 19.8779 11.5872 20 9 20C6.41275 20 4.73742 19.8779 3.66736 19.442C3.01366 19.1757 2.58583 18.7923 2.31398 18.2481C1.90409 17.4276 1.95623 16.4564 2.12849 15.5556C2.69079 12.6148 4.41082 12 9 12C13.5892 12 15.3092 12.6148 15.8715 15.5556ZM3.8912 15.8065C3.88081 15.8573 3.8708 15.9093 3.86117 15.9627L3.85392 16.0028C3.7462 16.5983 3.607 17.3678 4.11365 17.6832L4.11955 17.6869C4.31239 17.8074 4.71625 17.9649 5.56415 18.0734C6.39732 18.18 7.50449 18.2222 9 18.2222C10.4955 18.2222 11.6027 18.18 12.4358 18.0734C13.2837 17.9649 13.6876 17.8074 13.8804 17.6869L13.8863 17.6832C14.393 17.3678 14.2538 16.5983 14.1461 16.0028L14.1388 15.9627C14.1292 15.9093 14.1192 15.8573 14.1088 15.8065C13.9557 15.0585 13.7462 14.7266 13.5656 14.546C13.3849 14.3653 13.053 14.1559 12.3049 14.0028C11.5376 13.8457 10.4849 13.7778 9 13.7778C7.51513 13.7778 6.4624 13.8457 5.69507 14.0028C4.94705 14.1559 4.61511 14.3653 4.43444 14.546C4.25377 14.7266 4.04431 15.0585 3.8912 15.8065Z" fill="black"/>
</svg>
