<svg width="24" height="24" viewBox="0 0 24 24" fill="none" xmlns="http://www.w3.org/2000/svg">
<path fill-rule="evenodd" clip-rule="evenodd" d="M17.6784 3.32159C15.9163 1.55947 14.0837 1.55947 12.3216 3.32159C10.5595 5.0837 10.5595 6.9163 12.3216 8.67841C14.0837 10.4405 15.9163 10.4405 17.6784 8.67841C19.4405 6.9163 19.4405 5.0837 17.6784 3.32159ZM13.7358 4.7358C14.3848 4.08679 14.8046 4 15 4C15.1954 4 15.6152 4.08679 16.2642 4.7358C16.9132 5.38481 17 5.80457 17 6C17 6.19543 16.9132 6.61519 16.2642 7.2642C15.6152 7.91321 15.1954 8 15 8C14.8046 8 14.3848 7.91321 13.7358 7.2642C13.0868 6.61519 13 6.19543 13 6C13 5.80457 13.0868 5.38481 13.7358 4.7358Z" fill="black"/>
<path fill-rule="evenodd" clip-rule="evenodd" d="M22.3954 19.0291C22.8564 18.1061 22.7978 17.0135 22.604 16C21.9715 12.6916 20.0366 12 14.8743 12C9.71192 12 7.77707 12.6916 7.14454 16C6.95077 17.0135 6.89211 18.1061 7.3532 19.0291C7.659 19.6413 8.14026 20.0727 8.87561 20.3722C10.0793 20.8626 11.9639 21 14.8743 21C17.7847 21 19.6692 20.8626 20.8729 20.3722C21.6083 20.0727 22.0896 19.6413 22.3954 19.0291ZM9.09363 16.458C9.10445 16.398 9.11571 16.3394 9.12741 16.2823C9.29964 15.4408 9.53526 15.0675 9.73849 14.8642C9.94173 14.661 10.3151 14.4254 11.1566 14.2531C12.0197 14.0765 13.2039 14 14.8743 14C16.5446 14 17.7288 14.0765 18.592 14.2531C19.4334 14.4254 19.8068 14.661 20.0101 14.8642C20.2133 15.0675 20.4489 15.4408 20.6212 16.2823C20.6329 16.3394 20.6441 16.398 20.6549 16.458C20.6576 16.4729 20.6603 16.488 20.6631 16.5031C20.7843 17.173 20.9409 18.0388 20.3709 18.3936L20.3643 18.3978C20.1473 18.5333 19.693 18.7106 18.7392 18.8326C17.802 18.9525 16.5566 19 14.8743 19C13.192 19 11.9465 18.9525 11.0093 18.8326C10.0555 18.7106 9.6012 18.5333 9.38427 18.3978L9.37763 18.3936C8.80771 18.0388 8.96429 17.1731 9.08547 16.5032C9.08821 16.488 9.09093 16.473 9.09363 16.458Z" fill="black"/>
<path d="M5 5C4.15 5 4 5.15 4 6V8H2C1.15 8 1 8.15 1 9C1 9.85 1.15 10 2 10H4V12C4 12.85 4.15 13 5 13C5.85 13 6 12.85 6 12V10H8C8.85 10 9 9.85 9 9C9 8.15 8.85 8 8 8H6V6C6 5.15 5.85 5 5 5Z" fill="black"/>
</svg>
