<svg width="24" height="24" viewBox="0 0 24 24" fill="none" xmlns="http://www.w3.org/2000/svg">
<path d="M12.3216 3.32159C14.0837 1.55947 15.9163 1.55947 17.6784 3.32159C19.4405 5.0837 19.4405 6.9163 17.6784 8.67841C15.9163 10.4405 14.0837 10.4405 12.3216 8.67841C10.5595 6.9163 10.5595 5.0837 12.3216 3.32159Z" fill="black"/>
<path d="M22.3954 19.0291C22.8564 18.1061 22.7978 17.0135 22.604 16C21.9715 12.6916 20.0366 12 14.8743 12C9.71192 12 7.77707 12.6916 7.14454 16C6.95077 17.0135 6.89211 18.1061 7.3532 19.0291C7.659 19.6413 8.14026 20.0727 8.87561 20.3722C10.0793 20.8626 11.9639 21 14.8743 21C17.7847 21 19.6692 20.8626 20.8729 20.3722C21.6083 20.0727 22.0896 19.6413 22.3954 19.0291Z" fill="black"/>
<path d="M5 5C4.15 5 4 5.15 4 6V8H2C1.15 8 1 8.15 1 9C1 9.85 1.15 10 2 10H4V12C4 12.85 4.15 13 5 13C5.85 13 6 12.85 6 12V10H8C8.85 10 9 9.85 9 9C9 8.15 8.85 8 8 8H6V6C6 5.15 5.85 5 5 5Z" fill="black"/>
</svg>
