<svg width="24" height="24" viewBox="0 0 24 24" fill="none" xmlns="http://www.w3.org/2000/svg">
<path fill-rule="evenodd" clip-rule="evenodd" d="M14.6784 3.32159C12.9163 1.55947 11.0837 1.55947 9.32159 3.32159C7.55947 5.0837 7.55947 6.9163 9.32159 8.67841C11.0837 10.4405 12.9163 10.4405 14.6784 8.67841C16.4405 6.9163 16.4405 5.0837 14.6784 3.32159ZM10.7358 4.7358C11.3848 4.08679 11.8046 4 12 4C12.1954 4 12.6152 4.08679 13.2642 4.7358C13.9132 5.38481 14 5.80457 14 6C14 6.19543 13.9132 6.61519 13.2642 7.2642C12.6152 7.91321 12.1954 8 12 8C11.8046 8 11.3848 7.91321 10.7358 7.2642C10.0868 6.61519 10 6.19543 10 6C10 5.80457 10.0868 5.38481 10.7358 4.7358Z" fill="black"/>
<path fill-rule="evenodd" clip-rule="evenodd" d="M19.3954 19.0291C19.8564 18.1061 19.7978 17.0135 19.604 16C18.9715 12.6916 17.0366 12 11.8743 12C6.71192 12 4.77707 12.6916 4.14454 16C3.95077 17.0135 3.89211 18.1061 4.3532 19.0291C4.659 19.6413 5.14026 20.0727 5.87561 20.3722C7.07932 20.8626 8.96388 21 11.8743 21C14.7847 21 16.6692 20.8626 17.8729 20.3722C18.6083 20.0727 19.0896 19.6413 19.3954 19.0291ZM6.09363 16.458C6.10445 16.398 6.11571 16.3394 6.12741 16.2823C6.29964 15.4408 6.53526 15.0675 6.73849 14.8642C6.94173 14.661 7.31512 14.4254 8.15657 14.2531C9.01974 14.0765 10.2039 14 11.8743 14C13.5446 14 14.7288 14.0765 15.592 14.2531C16.4334 14.4254 16.8068 14.661 17.0101 14.8642C17.2133 15.0675 17.4489 15.4408 17.6212 16.2823C17.6329 16.3394 17.6441 16.398 17.6549 16.458C17.6576 16.4729 17.6603 16.488 17.6631 16.5031C17.7843 17.173 17.9409 18.0388 17.3709 18.3936L17.3643 18.3978C17.1473 18.5333 16.693 18.7106 15.7392 18.8326C14.802 18.9525 13.5566 19 11.8743 19C10.192 19 8.94653 18.9525 8.0093 18.8326C7.0555 18.7106 6.6012 18.5333 6.38427 18.3978L6.37763 18.3936C5.80771 18.0388 5.96429 17.1731 6.08547 16.5032C6.08821 16.488 6.09093 16.473 6.09363 16.458Z" fill="black"/>
</svg>
