<svg width="24" height="24" viewBox="0 0 24 24" fill="none" xmlns="http://www.w3.org/2000/svg">
<path d="M9.32159 3.32159C11.0837 1.55947 12.9163 1.55947 14.6784 3.32159C16.4405 5.0837 16.4405 6.9163 14.6784 8.67841C12.9163 10.4405 11.0837 10.4405 9.32159 8.67841C7.55947 6.9163 7.55947 5.0837 9.32159 3.32159Z" fill="black"/>
<path d="M19.3954 19.0291C19.8564 18.1061 19.7978 17.0135 19.604 16C18.9715 12.6916 17.0366 12 11.8743 12C6.71192 12 4.77707 12.6916 4.14454 16C3.95077 17.0135 3.89211 18.1061 4.3532 19.0291C4.659 19.6413 5.14026 20.0727 5.87561 20.3722C7.07932 20.8626 8.96388 21 11.8743 21C14.7847 21 16.6692 20.8626 17.8729 20.3722C18.6083 20.0727 19.0896 19.6413 19.3954 19.0291Z" fill="black"/>
</svg>
