<svg width="24" height="24" viewBox="0 0 24 24" fill="none" xmlns="http://www.w3.org/2000/svg">
<path d="M20.0001 21C20.5524 21 21.0001 20.5523 21.0001 20V17.1127C21.0001 16.5438 20.5261 16.0922 19.9572 16.0904C18.5601 16.0862 17.1571 15.9464 15.8059 15.5981C15.4385 15.5033 15.0446 15.6033 14.783 15.878L12.8743 17.8821C11.1882 17.253 9.81345 16.3731 8.72025 15.2799C7.62706 14.1867 6.74709 12.8119 6.11799 11.1258L8.37583 8.97552C8.65687 8.70786 8.75439 8.30261 8.64983 7.92885C8.29439 6.65832 8.13337 5.33705 8.09662 4.01717C8.08106 3.4584 7.63344 3 7.07446 3H4.00012C3.44784 3 2.99787 3.44772 3.00001 4C3.0013 4.33338 3.00528 4.66673 3.01607 4.99998C3.11092 7.93157 3.62866 10.4709 4.56047 12.6092C5.93966 15.7741 8.22599 18.0605 11.3909 19.4397C13.7688 20.4758 16.6425 21 20.0001 21Z" fill="black"/>
</svg>
