<svg width="24" height="24" viewBox="0 0 24 24" fill="none" xmlns="http://www.w3.org/2000/svg">
<path fill-rule="evenodd" clip-rule="evenodd" d="M7.43007 16.8164C7.38842 16.7759 7.34707 16.7351 7.30604 16.6941C7.25696 16.645 7.20829 16.5955 7.16001 16.5456C6.08791 15.4366 5.22035 14.1235 4.56047 12.6092C4.44018 12.3332 4.32679 12.0504 4.22032 11.7611C4.07597 11.3687 3.94433 10.9641 3.82546 10.5473C3.35286 8.89011 3.08208 7.04002 3.01607 4.99998C3.00528 4.66673 3.0013 4.33338 3.00001 4C2.99787 3.44772 3.44784 3 4.00012 3H7.07446C7.63344 3 8.08106 3.4584 8.09662 4.01717C8.13337 5.33705 8.29439 6.65832 8.64983 7.92885C8.75439 8.30261 8.65687 8.70786 8.37583 8.97552L6.11799 11.1258C6.73322 12.7747 7.58838 14.1259 8.64826 15.2072C8.67215 15.2315 8.69615 15.2558 8.72025 15.2799C8.74435 15.304 8.76859 15.328 8.79297 15.3519C9.87422 16.4117 11.2254 17.2669 12.8743 17.8821L14.783 15.878C15.0446 15.6033 15.4385 15.5033 15.8059 15.5981C17.1571 15.9464 18.5601 16.0862 19.9572 16.0904C20.5261 16.0922 21.0001 16.5438 21.0001 17.1127V20C21.0001 20.5523 20.5524 21 20.0001 21C17.5608 21 15.3768 20.7233 13.4528 20.1747C13.0359 20.0558 12.6312 19.9241 12.2387 19.7797C11.9495 19.6732 11.6669 19.5599 11.3909 19.4397C9.86546 18.7749 8.54412 17.8994 7.43007 16.8164ZM15.0371 18.5111C16.233 18.7723 17.5523 18.9327 19.0001 18.9829V18.0678C17.9563 18.0204 16.8964 17.8959 15.8445 17.6634L15.0371 18.5111ZM5.48897 8.963L6.58198 7.92203C6.34782 6.94821 6.21068 5.96702 6.14258 5H5.01719C5.06746 6.44834 5.22795 7.7675 5.48897 8.963Z" fill="black"/>
</svg>
