<svg width="24" height="24" viewBox="0 0 24 24" fill="none" xmlns="http://www.w3.org/2000/svg">
<path d="M11.066 2C9.13945 2.28039 7.21772 3.36535 5.32818 5.25489C0.890607 9.69246 0.890607 14.3075 5.32818 18.7451C7.21772 20.6347 9.13945 21.7196 11.066 22V18.9215C10.0481 18.6639 8.84642 17.9896 7.46504 16.6082C5.59688 14.7401 5.02198 13.2006 5.02198 12C5.02198 10.7994 5.59688 9.25992 7.46504 7.39176C8.84642 6.01038 10.0481 5.33611 11.066 5.07851V2Z" fill="black"/>
<path d="M13.0806 5.07851V2C15.0071 2.28038 16.9288 3.36535 18.8184 5.25489C20.7079 7.14444 21.7929 9.06617 22.0733 10.9927H18.9948C18.7372 9.97484 18.0629 8.77314 16.6815 7.39176C15.3001 6.01038 14.0984 5.3361 13.0806 5.07851Z" fill="black"/>
<path d="M13.0806 18.9215C14.0984 18.6639 15.3001 17.9896 16.6815 16.6082C18.0629 15.2269 18.7372 14.0252 18.9948 13.0073H22.0733C21.7929 14.9338 20.7079 16.8556 18.8184 18.7451C16.9288 20.6347 15.0071 21.7196 13.0806 22V18.9215Z" fill="black"/>
</svg>
