<svg width="24" height="24" viewBox="0 0 24 24" fill="none" xmlns="http://www.w3.org/2000/svg">
<path fill-rule="evenodd" clip-rule="evenodd" d="M4 12C4 8.50713 4.45878 7.49423 5.06189 7.01174C5.40214 6.73954 6.00403 6.45916 7.17474 6.26747C7.4308 6.22554 7.70531 6.18915 8 6.15788V17.8421C7.70531 17.8109 7.4308 17.7745 7.17474 17.7325C6.00403 17.5408 5.40214 17.2605 5.06189 16.9883C4.45878 16.5058 4 15.4929 4 12ZM10 17.9708C10.6051 17.9908 11.2694 18 12 18C12.7306 18 13.3949 17.9908 14 17.9708V6.02921C13.3949 6.00918 12.7306 6 12 6C11.2694 6 10.6051 6.00918 10 6.02921V17.9708ZM16 6.15788V17.8421C16.2947 17.8109 16.5692 17.7745 16.8253 17.7325C17.996 17.5408 18.5979 17.2605 18.9381 16.9883C19.5412 16.5058 20 15.4929 20 12C20 8.50713 19.5412 7.49423 18.9381 7.01174C18.5979 6.73954 17.996 6.45916 16.8253 6.26747C16.5692 6.22554 16.2947 6.18915 16 6.15788ZM12 4C3.5 4 2 5.2 2 12C2 18.8 3.5 20 12 20C20.5 20 22 18.8 22 12C22 5.2 20.5 4 12 4Z" fill="black"/>
</svg>
