<svg width="24" height="24" viewBox="0 0 24 24" fill="none" xmlns="http://www.w3.org/2000/svg">
<path d="M2 6.66V17.335C2 19.6002 2.39975 20 4.665 20C6.93025 20 7.33 19.6002 7.33 17.335V6.66C7.32941 4.39916 6.92858 4 4.665 4C2.40142 4 2.00059 4.39916 2 6.66Z" fill="black"/>
<path d="M9.33 6.66C9.33059 4.39916 9.73142 4 11.995 4C14.2586 4 14.6594 4.39916 14.66 6.66V17.335C14.66 19.6002 14.2603 20 11.995 20C9.72975 20 9.33 19.6002 9.33 17.335V6.66Z" fill="black"/>
<path d="M16.67 6.66C16.6706 4.39916 17.0714 4 19.335 4C21.5986 4 21.9994 4.39916 22 6.66V17.335C22 19.6002 21.6002 20 19.335 20C17.0697 20 16.67 19.6002 16.67 17.335V6.66Z" fill="black"/>
</svg>
