<svg width="24" height="24" viewBox="0 0 24 24" fill="none" xmlns="http://www.w3.org/2000/svg">
<path d="M12 1L3 5V11C3 16.55 6.84 21.74 12 23C14.2952 22.4396 16.3291 21.1016 17.8802 19.3002L14.5938 16.0137C12.6258 17.5222 10.6043 17.3003 8.65198 15.348C6.44934 13.1454 6.44934 10.8546 8.65198 8.65198C10.8546 6.44934 13.1454 6.44934 15.348 8.65198C17.3003 10.6042 17.5222 12.6257 16.0138 14.5937L19.0801 17.6601C20.2938 15.694 21 13.3801 21 11V5L12 1Z" fill="black"/>
<path d="M12 9C11.5799 9 10.9355 9.19693 10.0662 10.0662C9.19693 10.9355 9 11.5799 9 12C9 12.4201 9.19693 13.0645 10.0662 13.9338C10.9355 14.8031 11.5799 15 12 15C12.4201 15 13.0645 14.8031 13.9338 13.9338C14.8031 13.0645 15 12.4201 15 12C15 11.5799 14.8031 10.9355 13.9338 10.0662C13.0645 9.19693 12.4201 9 12 9Z" fill="black"/>
</svg>
