<svg width="24" height="24" viewBox="0 0 24 24" fill="none" xmlns="http://www.w3.org/2000/svg">
<path fill-rule="evenodd" clip-rule="evenodd" d="M12 1L3 5V11C3 16.55 6.84 21.74 12 23C17.16 21.74 21 16.55 21 11V5L12 1ZM19 11C19 12.85 18.49 14.65 17.62 16.21L16.0094 14.5994C17.5226 12.6296 17.3022 10.6061 15.348 8.65198C13.1454 6.44934 10.8546 6.44934 8.65198 8.65198C6.44934 10.8546 6.44934 13.1454 8.65198 15.348C10.6024 17.2984 12.6219 17.5218 14.5881 16.0181L16.47 17.9C15.28 19.32 13.74 20.41 12 20.94C7.98 19.69 5 15.52 5 11V6.3L12 3.19L19 6.3V11ZM10.0662 10.0662C10.9355 9.19693 11.5799 9 12 9C12.4201 9 13.0645 9.19693 13.9338 10.0662C14.8031 10.9355 15 11.5799 15 12C15 12.4201 14.8031 13.0645 13.9338 13.9338C13.0645 14.8031 12.4201 15 12 15C11.5799 15 10.9355 14.8031 10.0662 13.9338C9.19693 13.0645 9 12.4201 9 12C9 11.5799 9.19693 10.9355 10.0662 10.0662Z" fill="black"/>
</svg>
