<svg width="24" height="24" viewBox="0 0 24 24" fill="none" xmlns="http://www.w3.org/2000/svg">
<path fill-rule="evenodd" clip-rule="evenodd" d="M6 21.0015V19.0015H11V13.2839C10.0463 12.9468 9.01722 12.1358 7.70002 10.8501L7.69794 10.8522L5.54778 8.70203L5.54986 8.69992C4.84819 7.98099 4.28781 7.34784 3.8687 6.76587C3.48739 6.23641 3.27088 5.63538 3.14937 5.00345C3.02461 4.35467 3 3.67333 3 3.00345H21C21 3.67335 20.9754 4.35473 20.8503 5.00345C20.729 5.63306 20.5131 6.23191 20.1333 6.75964C19.7133 7.34329 19.1511 7.97845 18.4467 8.69998L18.4488 8.70203L16.2986 10.8522C16.2986 10.8522 16.2861 10.8637 16.2631 10.8857C15.9899 11.1467 14.2001 12.8571 13 13.2827V19.0015H18V21.0015H6ZM6.68932 7H17.3074C17.8329 6.44676 18.2248 5.98763 18.5099 5.59145C18.6281 5.42721 18.7215 5.23465 18.7936 5.00345H5.20573C5.27824 5.23704 5.37234 5.43143 5.49164 5.59709C5.77601 5.99196 6.16644 6.44931 6.68932 7Z" fill="black"/>
</svg>
