<svg width="24" height="24" viewBox="0 0 24 24" fill="none" xmlns="http://www.w3.org/2000/svg">
<path fill-rule="evenodd" clip-rule="evenodd" d="M6 21.0015V19.0015H11V13.2839C10.0463 12.9468 9.01721 12.1357 7.70001 10.8501L7.69794 10.8522L5.54778 8.70203L5.54987 8.69995C4.84819 7.98096 4.28781 7.34784 3.8687 6.76587C3.4874 6.23639 3.27087 5.63538 3.14937 5.00342C3.02461 4.35468 3 3.67334 3 3.00342H21C21 3.67334 20.9754 4.35474 20.8503 5.00342C20.729 5.63306 20.5131 6.23193 20.1333 6.75964C19.7133 7.34326 19.1511 7.97845 18.4467 8.69995L18.4488 8.70203L16.2986 10.8522C16.2986 10.8522 16.2861 10.8636 16.2631 10.8857C15.9899 11.1467 14.2001 12.8571 13 13.2827V19.0015H18V21.0015H6ZM9.097 9.41888L8.9319 9.25769L8.67419 9H15.3223L14.9081 9.41425L14.8311 9.48767C14.779 9.53723 14.7033 9.6087 14.6087 9.69604C14.4181 9.87183 14.1545 10.1085 13.8573 10.3557C13.1842 10.9155 12.6067 11.3001 12.3315 11.3977L11.9988 11.5157L11.6666 11.3983C11.1654 11.2211 10.409 10.6995 9.097 9.41888ZM17.3074 7H6.68935C6.16646 6.44928 5.77602 5.99194 5.49164 5.59711C5.37233 5.4314 5.27824 5.23706 5.20573 5.00342H18.7936C18.7215 5.23468 18.6281 5.42719 18.5099 5.59143C18.2248 5.98767 17.8329 6.44678 17.3074 7Z" fill="black"/>
</svg>
