<svg width="24" height="24" viewBox="0 0 24 24" fill="none" xmlns="http://www.w3.org/2000/svg">
<path d="M17.9284 3.32159C16.1663 1.55947 14.3337 1.55947 12.5716 3.32159C10.8095 5.0837 10.8095 6.9163 12.5716 8.67841C14.3337 10.4405 16.1663 10.4405 17.9284 8.67841C19.6905 6.9163 19.6905 5.0837 17.9284 3.32159Z" fill="black"/>
<path d="M22.854 16C23.0478 17.0135 23.1064 18.1061 22.6454 19.0291C22.3396 19.6413 21.8583 20.0727 21.1229 20.3722C19.9192 20.8626 18.0347 21 15.1243 21C12.2139 21 10.3293 20.8626 9.12561 20.3722C8.39026 20.0727 7.909 19.6413 7.6032 19.0291C7.14211 18.1061 7.20077 17.0135 7.39454 16C8.02707 12.6916 9.96192 12 15.1243 12C20.2866 12 22.2215 12.6916 22.854 16Z" fill="black"/>
<path d="M5.6181 5.17947C5.43722 4.94018 5.07278 4.94018 4.8919 5.17947L3.50761 7.01079L1.30818 7.73915C1.02079 7.83432 0.908176 8.17506 1.08377 8.41811L2.42767 10.2783L2.45264 12.5598C2.4559 12.8579 2.75074 13.0685 3.04014 12.9794L5.255 12.2977L7.46986 12.9794C7.75926 13.0685 8.0541 12.8579 8.05736 12.5598L8.08233 10.2783L9.42623 8.41811C9.60182 8.17506 9.48921 7.83432 9.20182 7.73915L7.00239 7.01079L5.6181 5.17947Z" fill="black"/>
</svg>
