<svg width="24" height="24" viewBox="0 0 24 24" fill="none" xmlns="http://www.w3.org/2000/svg">
<path fill-rule="evenodd" clip-rule="evenodd" d="M12.5716 3.32159C14.3337 1.55947 16.1663 1.55947 17.9284 3.32159C19.6905 5.0837 19.6905 6.9163 17.9284 8.67841C16.1663 10.4405 14.3337 10.4405 12.5716 8.67841C10.8095 6.9163 10.8095 5.0837 12.5716 3.32159ZM15.25 4C15.0546 4 14.6348 4.08679 13.9858 4.7358C13.3368 5.38481 13.25 5.80457 13.25 6C13.25 6.19543 13.3368 6.61519 13.9858 7.2642C14.6348 7.91321 15.0546 8 15.25 8C15.4454 8 15.8652 7.91321 16.5142 7.2642C17.1632 6.61519 17.25 6.19543 17.25 6C17.25 5.80457 17.1632 5.38481 16.5142 4.7358C15.8652 4.08679 15.4454 4 15.25 4Z" fill="black"/>
<path fill-rule="evenodd" clip-rule="evenodd" d="M22.854 16C23.0478 17.0135 23.1064 18.1061 22.6454 19.0291C22.3396 19.6413 21.8583 20.0727 21.1229 20.3722C19.9192 20.8626 18.0347 21 15.1243 21C12.2139 21 10.3293 20.8626 9.12561 20.3722C8.39026 20.0727 7.909 19.6413 7.6032 19.0291C7.14211 18.1061 7.20077 17.0135 7.39454 16C8.02707 12.6916 9.96192 12 15.1243 12C20.2866 12 22.2215 12.6916 22.854 16ZM9.37741 16.2823C9.36571 16.3394 9.35445 16.398 9.34363 16.458L9.33547 16.5032C9.21429 17.1731 9.0577 18.0388 9.62763 18.3936L9.63427 18.3978C9.8512 18.5333 10.3055 18.7106 11.2593 18.8326C12.1965 18.9525 13.442 19 15.1243 19C16.8066 19 18.052 18.9525 18.9892 18.8326C19.943 18.7106 20.3973 18.5333 20.6143 18.3978L20.6209 18.3936C21.1909 18.0388 21.0343 17.173 20.9131 16.5031L20.9049 16.458C20.8941 16.398 20.8829 16.3394 20.8712 16.2823C20.6989 15.4408 20.4633 15.0675 20.2601 14.8642C20.0568 14.661 19.6834 14.4254 18.842 14.2531C17.9788 14.0765 16.7946 14 15.1243 14C13.4539 14 12.2697 14.0765 11.4066 14.2531C10.5651 14.4254 10.1917 14.661 9.98849 14.8642C9.78526 15.0675 9.54964 15.4408 9.37741 16.2823Z" fill="black"/>
<path d="M5.6181 5.17947C5.43722 4.94018 5.07278 4.94018 4.8919 5.17947L3.50761 7.01079L1.30818 7.73915C1.02079 7.83432 0.908176 8.17506 1.08377 8.41811L2.42767 10.2783L2.45264 12.5598C2.4559 12.8579 2.75074 13.0685 3.04014 12.9794L5.255 12.2977L7.46986 12.9794C7.75926 13.0685 8.0541 12.8579 8.05736 12.5598L8.08233 10.2783L9.42623 8.41811C9.60182 8.17506 9.48921 7.83432 9.20182 7.73915L7.00239 7.01079L5.6181 5.17947Z" fill="black"/>
</svg>
