<svg width="24" height="24" viewBox="0 0 24 24" fill="none" xmlns="http://www.w3.org/2000/svg">
<path fill-rule="evenodd" clip-rule="evenodd" d="M7 3C3.6 3 3 3.6 3 7C3 10.4 3.6 11 7 11C10.4 11 11 10.4 11 7C11 3.6 10.4 3 7 3ZM5 7C5 6.17967 5.03896 5.67046 5.10625 5.34167C5.12393 5.25528 5.14094 5.19481 5.15439 5.15439C5.19481 5.14094 5.25528 5.12393 5.34167 5.10625C5.67046 5.03896 6.17967 5 7 5C7.82033 5 8.32954 5.03896 8.65833 5.10625C8.74472 5.12393 8.80519 5.14094 8.84561 5.15439C8.85906 5.19481 8.87607 5.25528 8.89375 5.34167C8.96104 5.67046 9 6.17967 9 7C9 7.82033 8.96104 8.32954 8.89375 8.65833C8.87607 8.74472 8.85906 8.80519 8.84561 8.84561C8.80519 8.85906 8.74472 8.87607 8.65833 8.89375C8.32954 8.96104 7.82033 9 7 9C6.17967 9 5.67046 8.96104 5.34167 8.89375C5.25528 8.87607 5.19481 8.85906 5.15439 8.84561C5.14094 8.80519 5.12393 8.74472 5.10625 8.65833C5.03896 8.32954 5 7.82033 5 7Z" fill="black"/>
<path d="M14 13C13.15 13 13 13.15 13 14C13 14.85 13.15 15 14 15C14.85 15 15 14.85 15 14C15 13.15 14.85 13 14 13Z" fill="black"/>
<path d="M14 17C13.15 17 13 17.15 13 18C13 18.85 13.15 19 14 19C14.85 19 15 18.85 15 18C15 17.15 14.85 17 14 17Z" fill="black"/>
<path d="M15 16C15 15.15 15.15 15 16 15C16.85 15 17 15.15 17 16C17 16.85 16.85 17 16 17C15.15 17 15 16.85 15 16Z" fill="black"/>
<path d="M16 19C15.15 19 15 19.15 15 20C15 20.85 15.15 21 16 21C16.85 21 17 20.85 17 20C17 19.15 16.85 19 16 19Z" fill="black"/>
<path d="M17 14C17 13.15 17.15 13 18 13C18.85 13 19 13.15 19 14C19 14.85 18.85 15 18 15C17.15 15 17 14.85 17 14Z" fill="black"/>
<path d="M18 17C17.15 17 17 17.15 17 18C17 18.85 17.15 19 18 19C18.85 19 19 18.85 19 18C19 17.15 18.85 17 18 17Z" fill="black"/>
<path d="M19 16C19 15.15 19.15 15 20 15C20.85 15 21 15.15 21 16C21 16.85 20.85 17 20 17C19.15 17 19 16.85 19 16Z" fill="black"/>
<path d="M20 19C19.15 19 19 19.15 19 20C19 20.85 19.15 21 20 21C20.85 21 21 20.85 21 20C21 19.15 20.85 19 20 19Z" fill="black"/>
<path fill-rule="evenodd" clip-rule="evenodd" d="M13 7C13 3.6 13.6 3 17 3C20.4 3 21 3.6 21 7C21 10.4 20.4 11 17 11C13.6 11 13 10.4 13 7ZM15.1063 5.34167C15.039 5.67046 15 6.17967 15 7C15 7.82033 15.039 8.32954 15.1063 8.65833C15.1239 8.74472 15.1409 8.80519 15.1544 8.84561C15.1948 8.85906 15.2553 8.87607 15.3417 8.89375C15.6705 8.96104 16.1797 9 17 9C17.8203 9 18.3295 8.96104 18.6583 8.89375C18.7447 8.87607 18.8052 8.85906 18.8456 8.84561C18.8591 8.80519 18.8761 8.74472 18.8937 8.65833C18.961 8.32954 19 7.82033 19 7C19 6.17967 18.961 5.67046 18.8937 5.34167C18.8761 5.25528 18.8591 5.19481 18.8456 5.15439C18.8052 5.14094 18.7447 5.12393 18.6583 5.10625C18.3295 5.03896 17.8203 5 17 5C16.1797 5 15.6705 5.03896 15.3417 5.10625C15.2553 5.12393 15.1948 5.14094 15.1544 5.15439C15.1409 5.19481 15.1239 5.25528 15.1063 5.34167ZM15.0906 5.17944C15.0872 5.18151 15.0854 5.18245 15.0853 5.1824C15.0853 5.18239 15.0852 5.18246 15.0853 5.1824C15.0854 5.18231 15.0857 5.18204 15.0861 5.18182L15.0906 5.17944ZM18.9147 5.1824L18.913 5.18157L18.9094 5.17944C18.9132 5.18131 18.9148 5.18235 18.9147 5.1824Z" fill="black"/>
<path fill-rule="evenodd" clip-rule="evenodd" d="M7 13C3.6 13 3 13.6 3 17C3 20.4 3.6 21 7 21C10.4 21 11 20.4 11 17C11 13.6 10.4 13 7 13ZM5 17C5 16.1797 5.03896 15.6705 5.10625 15.3417C5.12393 15.2553 5.14094 15.1948 5.15439 15.1544C5.19481 15.1409 5.25528 15.1239 5.34167 15.1063C5.67046 15.039 6.17967 15 7 15C7.82033 15 8.32954 15.039 8.65833 15.1063C8.74472 15.1239 8.80519 15.1409 8.84561 15.1544C8.85906 15.1948 8.87607 15.2553 8.89375 15.3417C8.96104 15.6705 9 16.1797 9 17C9 17.8203 8.96104 18.3295 8.89375 18.6583C8.87607 18.7447 8.85906 18.8052 8.84561 18.8456C8.80519 18.8591 8.74472 18.8761 8.65833 18.8937C8.32954 18.961 7.82033 19 7 19C6.17967 19 5.67046 18.961 5.34167 18.8937C5.25528 18.8761 5.19481 18.8591 5.15439 18.8456C5.14094 18.8052 5.12393 18.7447 5.10625 18.6583C5.03896 18.3295 5 17.8203 5 17ZM8.81845 15.087C8.81894 15.0879 8.81964 15.0891 8.82056 15.0906C8.81869 15.0868 8.81765 15.0852 8.8176 15.0853C8.81757 15.0853 8.81785 15.0859 8.81845 15.087ZM8.9129 18.8185C8.91204 18.819 8.91087 18.8197 8.90944 18.8206C8.91317 18.8187 8.91482 18.8176 8.91472 18.8176C8.91467 18.8176 8.91404 18.8179 8.9129 18.8185Z" fill="black"/>
</svg>
