<svg width="24" height="24" viewBox="0 0 24 24" fill="none" xmlns="http://www.w3.org/2000/svg">
<path d="M4 8C4 7.3494 4.02722 6.75938 4.13047 6.25495C4.2361 5.73886 4.43597 5.23731 4.83664 4.83664C5.23731 4.43597 5.73886 4.2361 6.25495 4.13047C6.75938 4.02722 7.3494 4 8 4V2C7.31937 2 6.56374 2.0258 5.8539 2.17109C5.11027 2.32329 4.19474 2.65012 3.42243 3.42243C2.65012 4.19474 2.32329 5.11027 2.17109 5.85391C2.0258 6.56374 2 7.31937 2 8H4Z" fill="black"/>
<path fill-rule="evenodd" clip-rule="evenodd" d="M8 5C5.45 5 5 5.45 5 8C5 10.55 5.45 11 8 11C10.55 11 11 10.55 11 8C11 5.45 10.55 5 8 5ZM6.5 8C6.5 7.38475 6.52922 7.00284 6.57969 6.75625C6.59295 6.69146 6.60571 6.64611 6.61579 6.61579C6.64611 6.60571 6.69146 6.59295 6.75625 6.57969C7.00284 6.52922 7.38475 6.5 8 6.5C8.61525 6.5 8.99716 6.52922 9.24375 6.57969C9.30854 6.59295 9.35389 6.60571 9.38421 6.61579C9.39429 6.64611 9.40705 6.69146 9.42031 6.75625C9.47078 7.00284 9.5 7.38475 9.5 8C9.5 8.61525 9.47078 8.99716 9.42031 9.24375C9.40705 9.30854 9.39429 9.35389 9.38421 9.38421C9.35389 9.39429 9.30854 9.40705 9.24375 9.42031C8.99716 9.47078 8.61525 9.5 8 9.5C7.38475 9.5 7.00284 9.47078 6.75625 9.42031C6.69146 9.40705 6.64611 9.39429 6.61579 9.38421C6.60571 9.35389 6.59295 9.30854 6.57969 9.24375C6.52922 8.99716 6.5 8.61525 6.5 8ZM9.36386 6.56529L9.36542 6.56792C9.36401 6.56513 9.36324 6.56388 9.3632 6.56396L9.36386 6.56529Z" fill="black"/>
<path fill-rule="evenodd" clip-rule="evenodd" d="M16 5C13.45 5 13 5.45 13 8C13 10.55 13.45 11 16 11C18.55 11 19 10.55 19 8C19 5.45 18.55 5 16 5ZM14.5 8C14.5 7.38475 14.5292 7.00284 14.5797 6.75625C14.593 6.69146 14.6057 6.64611 14.6158 6.61579C14.6461 6.60571 14.6915 6.59295 14.7563 6.57969C15.0028 6.52922 15.3847 6.5 16 6.5C16.6153 6.5 16.9972 6.52922 17.2437 6.57969C17.3085 6.59295 17.3539 6.60571 17.3842 6.61579C17.3943 6.64611 17.407 6.69146 17.4203 6.75625C17.4708 7.00284 17.5 7.38475 17.5 8C17.5 8.61525 17.4708 8.99716 17.4203 9.24375C17.407 9.30854 17.3943 9.35389 17.3842 9.38421C17.3539 9.39429 17.3085 9.40705 17.2437 9.42031C16.9972 9.47078 16.6153 9.5 16 9.5C15.3847 9.5 15.0028 9.47078 14.7563 9.42031C14.6915 9.40705 14.6461 9.39429 14.6158 9.38421C14.6057 9.35389 14.593 9.30854 14.5797 9.24375C14.5292 8.99716 14.5 8.61525 14.5 8ZM17.4321 6.63458C17.4346 6.63613 17.436 6.63684 17.436 6.6368C17.4361 6.63679 17.4364 6.63702 17.436 6.6368L17.4349 6.63606L17.4321 6.63458ZM17.3638 6.56514L17.3654 6.56792C17.364 6.56513 17.3632 6.56388 17.3632 6.56396L17.3638 6.56514ZM14.6359 9.43422L14.6346 9.43208C14.636 9.43487 14.6368 9.43612 14.6368 9.43604L14.6359 9.43422Z" fill="black"/>
<path fill-rule="evenodd" clip-rule="evenodd" d="M5 16C5 13.45 5.45 13 8 13C10.55 13 11 13.45 11 16C11 18.55 10.55 19 8 19C5.45 19 5 18.55 5 16ZM6.57969 14.7563C6.52922 15.0028 6.5 15.3847 6.5 16C6.5 16.6153 6.52922 16.9972 6.57969 17.2437C6.59295 17.3085 6.60571 17.3539 6.61579 17.3842C6.64611 17.3943 6.69146 17.407 6.75625 17.4203C7.00284 17.4708 7.38475 17.5 8 17.5C8.61525 17.5 8.99716 17.4708 9.24375 17.4203C9.30854 17.407 9.35389 17.3943 9.38421 17.3842C9.39429 17.3539 9.40705 17.3085 9.42031 17.2437C9.47078 16.9972 9.5 16.6153 9.5 16C9.5 15.3847 9.47078 15.0028 9.42031 14.7563C9.40705 14.6915 9.39429 14.6461 9.38421 14.6158C9.35389 14.6057 9.30854 14.593 9.24375 14.5797C8.99716 14.5292 8.61525 14.5 8 14.5C7.38475 14.5 7.00284 14.5292 6.75625 14.5797C6.69146 14.593 6.64611 14.6057 6.61579 14.6158C6.60571 14.6461 6.59295 14.6915 6.57969 14.7563ZM9.43604 14.6368C9.43597 14.6368 9.43457 14.6361 9.43208 14.6346L9.43464 14.6359C9.43564 14.6365 9.43609 14.6368 9.43604 14.6368Z" fill="black"/>
<path d="M13 13.75C13 13.1125 13.1125 13 13.75 13C14.3875 13 14.5 13.1125 14.5 13.75C14.5 14.3875 14.3875 14.5 13.75 14.5C13.1125 14.5 13 14.3875 13 13.75Z" fill="black"/>
<path d="M13 16.75C13 16.1125 13.1125 16 13.75 16C14.3875 16 14.5 16.1125 14.5 16.75C14.5 17.3875 14.3875 17.5 13.75 17.5C13.1125 17.5 13 17.3875 13 16.75Z" fill="black"/>
<path d="M14.5 15.25C14.5 14.6125 14.6125 14.5 15.25 14.5C15.8875 14.5 16 14.6125 16 15.25C16 15.8875 15.8875 16 15.25 16C14.6125 16 14.5 15.8875 14.5 15.25Z" fill="black"/>
<path d="M14.5 18.25C14.5 17.6125 14.6125 17.5 15.25 17.5C15.8875 17.5 16 17.6125 16 18.25C16 18.8875 15.8875 19 15.25 19C14.6125 19 14.5 18.8875 14.5 18.25Z" fill="black"/>
<path d="M16 13.75C16 13.1125 16.1125 13 16.75 13C17.3875 13 17.5 13.1125 17.5 13.75C17.5 14.3875 17.3875 14.5 16.75 14.5C16.1125 14.5 16 14.3875 16 13.75Z" fill="black"/>
<path d="M16 16.75C16 16.1125 16.1125 16 16.75 16C17.3875 16 17.5 16.1125 17.5 16.75C17.5 17.3875 17.3875 17.5 16.75 17.5C16.1125 17.5 16 17.3875 16 16.75Z" fill="black"/>
<path d="M17.5 15.25C17.5 14.6125 17.6125 14.5 18.25 14.5C18.8875 14.5 19 14.6125 19 15.25C19 15.8875 18.8875 16 18.25 16C17.6125 16 17.5 15.8875 17.5 15.25Z" fill="black"/>
<path d="M17.5 18.25C17.5 17.6125 17.6125 17.5 18.25 17.5C18.8875 17.5 19 17.6125 19 18.25C19 18.8875 18.8875 19 18.25 19C17.6125 19 17.5 18.8875 17.5 18.25Z" fill="black"/>
<path d="M19.8695 17.7451C19.9728 17.2406 20 16.6506 20 16H22C22 16.6806 21.9742 17.4363 21.8289 18.1461C21.6767 18.8897 21.3499 19.8053 20.5776 20.5776C19.8053 21.3499 18.8897 21.6767 18.1461 21.8289C17.4363 21.9742 16.6806 22 16 22V20C16.6506 20 17.2406 19.9728 17.7451 19.8695C18.2611 19.7639 18.7627 19.564 19.1634 19.1634C19.564 18.7627 19.7639 18.2611 19.8695 17.7451Z" fill="black"/>
<path d="M16 4C16.6506 4 17.2406 4.02722 17.7451 4.13047C18.2611 4.2361 18.7627 4.43597 19.1634 4.83664C19.564 5.23731 19.7639 5.73886 19.8695 6.25495C19.9728 6.75938 20 7.3494 20 8H22C22 7.31937 21.9742 6.56374 21.8289 5.8539C21.6767 5.11027 21.3499 4.19474 20.5776 3.42243C19.8053 2.65012 18.8897 2.32329 18.1461 2.17109C17.4363 2.0258 16.6806 2 16 2V4Z" fill="black"/>
<path d="M6.25495 19.8695C6.75938 19.9728 7.3494 20 8 20L8 22C7.31937 22 6.56374 21.9742 5.85391 21.8289C5.11027 21.6767 4.19474 21.3499 3.42243 20.5776C2.65012 19.8053 2.32329 18.8897 2.17109 18.1461C2.0258 17.4363 2 16.6806 2 16H4C4 16.6506 4.02722 17.2406 4.13047 17.7451C4.2361 18.2611 4.43597 18.7627 4.83664 19.1634C5.23731 19.564 5.73886 19.7639 6.25495 19.8695Z" fill="black"/>
</svg>
