<svg width="24" height="24" viewBox="0 0 24 24" fill="none" xmlns="http://www.w3.org/2000/svg">
<path d="M8 6V8H16V6H8Z" fill="black"/>
<path d="M8 12V10H16V12H8Z" fill="black"/>
<path d="M8 16H16V14H8V16Z" fill="black"/>
<path fill-rule="evenodd" clip-rule="evenodd" d="M4 12C4 16.005 4.26641 18.4559 5.25948 19.9282C5.67129 20.5387 6.20806 20.9809 6.90261 21.2958C7.38731 20.9707 7.90918 20.5331 8.49395 19.9828C11.3518 22.672 12.7071 22.672 15.565 19.9828C16.1402 20.5241 16.6545 20.9564 17.1325 21.2797C17.8173 20.9625 18.3469 20.519 18.7535 19.9089C19.7359 18.4345 20 15.9875 20 12C20 3.5 18.8 2 12 2C5.2 2 4 3.5 4 12ZM17.7325 16.8253C17.924 15.6561 18 14.1019 18 12C18 9.89811 17.924 8.34394 17.7325 7.17474C17.5408 6.00403 17.2605 5.40214 16.9883 5.06189C16.5058 4.45878 15.4929 4 12 4C8.50713 4 7.49423 4.45878 7.01174 5.06189C6.73954 5.40214 6.45916 6.00403 6.26747 7.17474C6.07602 8.34394 6 9.89811 6 12C6 14.1019 6.07602 15.6561 6.26747 16.8253C6.42825 17.8072 6.65142 18.3889 6.87982 18.7518C7.15123 18.5046 7.45157 18.2161 7.78685 17.8808C8.38789 17.2797 8.60002 17.2797 9.20106 17.8808C10.0816 18.7614 10.7212 19.3193 11.2288 19.6544C11.718 19.9774 11.9454 19.9997 12.0295 19.9997C12.1136 19.9997 12.341 19.9774 12.8301 19.6544C13.3378 19.3193 13.9773 18.7614 14.8579 17.8808C15.459 17.2797 15.6711 17.2797 16.2721 17.8808C16.592 18.2006 16.88 18.4779 17.1414 18.7174C17.3624 18.3524 17.5767 17.7767 17.7325 16.8253Z" fill="black"/>
</svg>
