<svg width="24" height="24" viewBox="0 0 24 24" fill="none" xmlns="http://www.w3.org/2000/svg">
<path fill-rule="evenodd" clip-rule="evenodd" d="M5.25948 19.9282C4.26641 18.4559 4 16.005 4 12C4 3.5 5.2 2 12 2C18.8 2 20 3.5 20 12C20 15.9875 19.7359 18.4345 18.7535 19.9089C18.3469 20.519 17.8173 20.9625 17.1325 21.2797C16.6545 20.9564 16.1402 20.5241 15.565 19.9828C12.7071 22.672 11.3518 22.672 8.49395 19.9828C7.90918 20.5331 7.38731 20.9707 6.90261 21.2958C6.20806 20.9809 5.67129 20.5387 5.25948 19.9282ZM16 8H8V6H16V8ZM16 12H8V10H16V12ZM8 16H16V14H8V16Z" fill="black"/>
</svg>
