<svg width="24" height="24" viewBox="0 0 24 24" fill="none" xmlns="http://www.w3.org/2000/svg">
<path d="M8.05738 8.05739C9.58745 6.52732 10.9059 6 12 6C12.9582 6 14.0884 6.40442 15.3821 7.53258L14.1064 8.80833L14.0325 8.88227C13.7435 9.17261 13.4639 9.47183 13.226 9.80544C13.1037 9.97702 12.9516 10.2133 13.0148 10.4407C13.0641 10.6171 13.2384 10.7042 13.398 10.76C14.3664 11.0982 15.5721 11.0049 16.6409 10.9221C16.7995 10.9098 16.955 10.8978 17.1062 10.8874C17.3587 10.8701 17.5893 10.8452 17.7999 10.811C18.4314 10.7083 18.8828 10.5212 19.202 10.202C19.3337 10.0703 19.4429 9.91614 19.533 9.73607C19.734 9.33415 19.8397 8.80335 19.8874 8.10624C19.8978 7.95497 19.9098 7.79947 19.9221 7.64096C20.0049 6.57211 20.0982 5.36638 19.76 4.39803C19.7042 4.23838 19.6178 4.06434 19.4414 4.01498C19.214 3.95183 18.977 4.10373 18.8054 4.226C18.4651 4.46869 18.1605 4.75487 17.8646 5.05002L17.8267 5.08793L16.7989 6.11573C13.447 3.12872 9.98181 3.30453 6.64317 6.64317C3.11894 10.1674 3.11894 13.8326 6.64317 17.3568C10.1674 20.8811 13.8326 20.8811 17.3568 17.3568C18.4648 16.2489 19.2244 15.127 19.6357 14H17.446C17.1203 14.6036 16.6337 15.2515 15.9426 15.9426C14.4125 17.4727 13.0941 18 12 18C10.9059 18 9.58745 17.4727 8.05738 15.9426C6.52732 14.4126 6 13.0941 6 12C6 10.9059 6.52732 9.58745 8.05738 8.05739Z" fill="black"/>
</svg>
