<svg width="24" height="24" viewBox="0 0 24 24" fill="none" xmlns="http://www.w3.org/2000/svg">
<path d="M7.41655 5.06848L7.41558 5.06793C7.17216 4.93098 6.89115 5.02543 6.65882 5.13754C5.24942 5.81719 4.04954 7.21847 2.98587 8.46068C2.82812 8.64491 2.67336 8.82564 2.52136 9C1.50712 10.1634 1 11.0817 1 12C1 12.9183 1.50712 13.8366 2.52136 15C2.67328 15.1743 2.82795 15.3549 2.98561 15.539C4.04928 16.7812 5.24942 18.1828 6.65882 18.8625C6.89115 18.9746 7.17216 19.069 7.41558 18.9321L7.41655 18.9315C7.59758 18.8292 7.70435 18.6462 7.7725 18.4488C7.09576 17.8477 6.42418 17.1896 5.84649 16.5149C5.68791 16.3297 5.53755 16.1542 5.39068 15.9857C4.33181 14.771 3.5 13.4942 3.5 12C3.5 10.5058 4.33181 9.22897 5.39068 8.01433C5.53755 7.84585 5.68792 7.67027 5.8465 7.48506C6.42418 6.81042 7.09576 6.15232 7.7725 5.55122C7.70435 5.35381 7.59759 5.17082 7.41655 5.06848Z" fill="black"/>
<path d="M11.874 18.0184C11.9794 17.3895 11.9992 16.7523 12 16.1147L12 14.9L12.1169 14.9003C12.5057 14.9022 12.8854 14.914 13.2561 14.9356C13.3304 14.94 13.4044 14.9447 13.478 14.9499L13.5 14.9514C16.244 15.1462 18.4934 15.8978 20.348 17.2662C20.472 17.3577 20.5942 17.4519 20.7147 17.549L20.7452 17.5736C21.5764 18.2477 22.3247 19.0545 23 20C22.7812 18.9062 22.4668 17.8125 22.0357 16.7606C22.0225 16.7284 22.0092 16.6962 21.9958 16.6641C20.4456 12.9527 17.4282 9.78116 12.0169 9.00243L12 9L11.9999 8.0068V8.00177V7.99814L11.9846 7.09745C11.9683 6.72372 11.9359 6.35122 11.874 5.98159C11.8208 5.66462 11.73 5.24568 11.4166 5.06848L11.4156 5.06793C11.1722 4.93098 10.8911 5.02543 10.6588 5.13754C9.83672 5.74939 8.86785 6.54042 7.99443 7.39198C7.63668 7.74078 7.29495 8.09972 6.98587 8.46068L6.83881 8.63232C6.73164 8.75727 6.62585 8.88014 6.52137 9C5.50712 10.1634 5 11.0817 5 12C5 12.9183 5.50712 13.8366 6.52136 15C6.67336 15.1744 6.82812 15.3551 6.98587 15.5393C7.29494 15.9003 7.63668 16.2592 7.99443 16.608C8.86785 17.4596 9.83672 18.2506 10.6588 18.8625C10.8911 18.9746 11.1722 19.069 11.4156 18.9321L11.4166 18.9315C11.73 18.7543 11.8208 18.3354 11.874 18.0184Z" fill="black"/>
</svg>
