<svg width="24" height="24" viewBox="0 0 24 24" fill="none" xmlns="http://www.w3.org/2000/svg">
<path d="M9.99119 12.9912C8.6696 14.3128 8.6696 15.6872 9.99119 17.0088C11.3128 18.3304 12.6872 18.3304 14.0088 17.0088C15.3304 15.6872 15.3304 14.3128 14.0088 12.9912C12.6872 11.6696 11.3128 11.6696 9.99119 12.9912Z" fill="black"/>
<path d="M13.002 10C14.702 10 15.002 9.7 15.002 8C15.002 7.27213 14.947 6.80091 14.7506 6.5C14.4884 6.0981 13.9741 6 13.002 6H12.002C10.134 6 8.86391 6.08656 7.96994 6.26954C7.15471 6.4364 6.91458 6.68263 6.81555 6.78418C6.80994 6.78993 6.80478 6.79522 6.8 6.8C6.79521 6.80479 6.78993 6.80994 6.78418 6.81555C6.68281 6.9144 6.43836 7.15278 6.27151 7.96797C6.0952 8.82937 6.30197 10 8.00197 10H13.002Z" fill="black"/>
<path fill-rule="evenodd" clip-rule="evenodd" d="M21 12C20.9983 10.6284 20.8539 9.20557 20.5456 8.46161C19.9337 6.98478 17.0235 4.07634 15.547 3.46162C14.8071 3.15357 13.4032 2.99984 12 3C4.35 3 3 4.35 3 12C3 19.65 4.4082 21 12.0582 21C19.6569 20.9931 21 19.6306 21 12ZM12 5C10.1172 5 8.76421 5.08583 7.76745 5.28985C6.7924 5.48942 6.32058 5.77035 6.04546 6.04546C5.77035 6.32058 5.48942 6.7924 5.28985 7.76745C5.08583 8.76421 5 10.1172 5 12C5 13.88 5.08931 15.2305 5.29718 16.224C5.50026 17.1947 5.78504 17.6682 6.06663 17.9466C6.34993 18.2268 6.83233 18.5096 7.81481 18.7098C8.81804 18.9142 10.1754 19 12.0574 19C13.926 18.9983 15.2673 18.9105 16.2546 18.7056C17.2195 18.5053 17.6862 18.2249 17.9591 17.95C18.2331 17.6739 18.513 17.2004 18.7117 16.2252C18.9146 15.229 19 13.8783 19 12.0009C18.9992 11.379 18.9657 10.7618 18.9022 10.2351C18.8341 9.67154 18.7468 9.34514 18.6979 9.2272C18.5545 8.88098 17.9253 8.02152 16.9563 7.05256C15.988 6.08425 15.1268 5.45309 14.7783 5.30799C14.4326 5.16406 13.3759 4.99985 12 5Z" fill="black"/>
</svg>
