<svg width="24" height="24" viewBox="0 0 24 24" fill="none" xmlns="http://www.w3.org/2000/svg">
<path fill-rule="evenodd" clip-rule="evenodd" d="M12 3C13.4032 2.99984 14.8071 3.15358 15.547 3.46162C17.0235 4.07634 19.9337 6.98478 20.5456 8.46161C20.8539 9.20557 20.9983 10.6284 21 12C21 19.6306 19.6569 20.9931 12.0582 21C4.4082 21 3 19.65 3 12C3 4.35 4.35 3 12 3ZM9.99119 13.9912C8.6696 15.3128 8.6696 16.6872 9.99119 18.0088C11.3128 19.3304 12.6872 19.3304 14.0088 18.0088C15.3304 16.6872 15.3304 15.3128 14.0088 13.9912C12.6872 12.6696 11.3128 12.6696 9.99119 13.9912ZM12.0013 5C10.1185 5 8.76555 5.08583 7.76879 5.28985C6.79375 5.48942 6.32191 5.77035 6.04681 6.04546C5.77169 6.32058 5.49076 6.7924 5.29119 7.76745C5.1759 8.3307 5.50133 9 7.00134 9H13.0013C14.7013 9 15.0013 8.7 15.0013 7C15.0013 5.96783 14.8907 5.45175 14.4233 5.20557C14.0335 5.00023 13.0544 5.00012 12.0048 5H12.0013Z" fill="black"/>
</svg>
