<svg width="24" height="24" viewBox="0 0 24 24" fill="none" xmlns="http://www.w3.org/2000/svg">
<path fill-rule="evenodd" clip-rule="evenodd" d="M14.6872 5.31278C11.6035 2.22908 8.39648 2.22907 5.31278 5.31278C2.22907 8.39648 2.22907 11.6035 5.31278 14.6872C8.30089 17.6753 11.4048 17.768 14.4001 14.9651L14.7383 15.3033L14.7383 16.0104L20.0416 21.3137L21.4559 19.8995L16.1526 14.5962H15.4454L15.1013 14.252C17.7641 11.3026 17.6261 8.25166 14.6872 5.31278ZM6.72699 6.72699C8.03679 5.41719 9.13056 5 10 5C10.8694 5 11.9632 5.41719 13.273 6.72699C14.5828 8.03679 15 9.13056 15 10C15 10.8694 14.5828 11.9632 13.273 13.273C11.9632 14.5828 10.8694 15 10 15C9.13056 15 8.03679 14.5828 6.72699 13.273C5.41719 11.9632 5 10.8694 5 10C5 9.13056 5.41719 8.03679 6.72699 6.72699Z" fill="black"/>
</svg>
