<svg width="24" height="24" viewBox="0 0 24 24" fill="none" xmlns="http://www.w3.org/2000/svg">
<path d="M14.0001 7.8473C14.0016 7.22245 14.0227 6.59804 14.126 5.98159C14.1792 5.66462 14.27 5.24568 14.5834 5.06848L14.5844 5.06793C14.8278 4.93098 15.1089 5.02543 15.3412 5.13754C16.5 6 17.9505 7.21847 19.0141 8.46068C19.1719 8.64491 19.3266 8.82564 19.4786 9C20.4929 10.1634 21 11.0817 21 12C21 12.9183 20.4929 13.8366 19.4786 15C19.3266 15.1744 19.1719 15.3551 19.0141 15.5393C17.9505 16.7815 16.5 18 15.3412 18.8625C15.1089 18.9746 14.8278 19.069 14.5844 18.9321L14.5834 18.9315C14.27 18.7543 14.1792 18.3354 14.126 18.0184C14.0206 17.3895 14.0008 16.7523 14 16.1147L14 14.9C9 14.9 5.5 16.5 3 20C4 15 7 10 14 9L14.0001 8.0068L14.0001 7.8473Z" fill="black"/>
</svg>
