<svg width="24" height="24" viewBox="0 0 24 24" fill="none" xmlns="http://www.w3.org/2000/svg">
<path fill-rule="evenodd" clip-rule="evenodd" d="M14.4664 9.59134C12.8805 8.00668 11.2312 8.00668 9.64527 9.59134C8.05937 11.176 8.05937 12.824 9.64527 14.4087C11.2312 15.9934 12.8805 15.9934 14.4664 14.4087C16.0523 12.824 16.0523 11.176 14.4664 9.59134ZM11.0595 11.0044C11.6204 10.444 11.9503 10.4013 12.0558 10.4013C12.1614 10.4013 12.4913 10.444 13.0522 11.0044C13.6131 11.5649 13.6558 11.8945 13.6558 12C13.6558 12.1055 13.6131 12.4351 13.0522 12.9956C12.4913 13.5561 12.1614 13.5988 12.0558 13.5988C11.9503 13.5988 11.6204 13.5561 11.0595 12.9956C10.4986 12.4351 10.4558 12.1055 10.4558 12C10.4558 11.8945 10.4986 11.5649 11.0595 11.0044Z" fill="black"/>
<path fill-rule="evenodd" clip-rule="evenodd" d="M12.3955 2.40392C12.9221 2.39357 13.5195 2.38184 13.9484 2.6786C14.4158 3.00202 14.6158 3.7114 14.6993 5.26726C14.7087 5.44144 14.8067 5.59868 14.9563 5.68863C15.249 5.86468 15.5411 6.06705 15.8323 6.29575C15.9925 6.42151 16.2114 6.44552 16.3925 6.35249C17.8486 5.60478 18.5852 5.40854 19.1114 5.65704C19.5259 5.85282 19.8099 6.32464 20.2123 7.02031C20.2653 7.11213 20.3231 7.20693 20.3825 7.30428C20.6869 7.80354 21.0323 8.3699 20.9887 8.94341C20.9468 9.4964 20.4965 10.0184 19.3799 10.7927C19.2127 10.9087 19.1302 11.1123 19.1582 11.3138C19.2277 11.8144 19.2211 12.3154 19.1384 12.8159C19.1217 12.9171 19.1649 13.0196 19.2507 13.0758C20.5106 13.9018 21.0095 14.4215 21.0553 14.9784C21.0981 15.498 20.7892 16.0091 20.5169 16.4596C20.4682 16.5403 20.4206 16.619 20.3765 16.6954C19.9201 17.4853 19.6089 18.0238 19.1457 18.2462C18.6031 18.5067 17.852 18.3334 16.4146 17.6221C16.2338 17.5326 16.0174 17.558 15.8592 17.6832C15.559 17.9206 15.258 18.13 14.9563 18.3115C14.8067 18.4014 14.7087 18.5586 14.6993 18.7328C14.6157 20.2886 14.4158 20.998 13.9484 21.3214C13.5195 21.6182 12.9221 21.6064 12.3955 21.5961C12.3012 21.5942 12.2092 21.5924 12.1209 21.5924C11.2081 21.5924 10.5857 21.5924 10.1614 21.3028C9.67669 20.9719 9.45033 20.2632 9.34463 18.7448C9.33264 18.5726 9.23427 18.418 9.08578 18.3297C8.77354 18.1439 8.46201 17.9281 8.15145 17.6824C7.99319 17.5572 7.7768 17.5317 7.59591 17.6212C6.15744 18.3332 5.40593 18.5068 4.86316 18.2462C4.3443 17.9971 4.02611 17.4151 3.7456 16.902C3.69092 16.802 3.63767 16.7045 3.58464 16.6127C3.18289 15.9167 2.91594 15.4351 2.95353 14.9784C2.99765 14.4425 3.46126 13.9411 4.61878 13.168C4.78928 13.0541 4.87469 12.8497 4.8481 12.6465C4.79006 12.2029 4.79177 11.759 4.85325 11.3154C4.88118 11.1139 4.79867 10.9103 4.63141 10.7944C3.51302 10.0192 3.06213 9.4968 3.02012 8.94341C2.98126 8.43139 3.29243 7.89283 3.74882 7.10298C3.79301 7.02652 3.83745 6.946 3.88298 6.8635C4.13733 6.40261 4.42587 5.87978 4.8975 5.65704C5.42387 5.40845 6.16078 5.60493 7.61798 6.35334C7.79918 6.4464 8.0181 6.42238 8.17827 6.29657C8.47995 6.05961 8.78252 5.85089 9.08578 5.67042C9.23426 5.58206 9.33263 5.42751 9.34462 5.25524C9.45032 3.73684 9.67668 3.02805 10.1614 2.6972C10.5857 2.40756 11.2081 2.40756 12.1209 2.40756C12.2092 2.40757 12.3012 2.40577 12.3955 2.40392ZM18.4804 8.01978L18.2785 7.6757C18.0539 7.76456 17.7409 7.907 17.3067 8.12994C16.2029 8.69671 15.2112 8.28577 14.2886 7.638C13.4674 7.06133 12.7612 6.47255 12.7022 5.37438C12.6874 5.09785 12.6694 4.8716 12.6499 4.6869C12.6383 4.57675 12.6261 4.48137 12.6138 4.39893L12.605 4.39903C12.5508 4.39969 12.4987 4.40071 12.4392 4.40187L12.3839 4.40295C12.3054 4.40444 12.214 4.406 12.1209 4.40599C11.887 4.40599 11.7015 4.40609 11.5361 4.40996C11.506 4.41067 11.4777 4.41148 11.4511 4.41239C11.4314 4.51863 11.4115 4.64989 11.3926 4.81136C11.3737 4.97338 11.3557 5.16581 11.3398 5.39391C11.2657 6.45847 10.5842 7.04541 9.77608 7.60111C8.82847 8.25275 7.84491 8.71684 6.70369 8.13072C6.43226 7.99132 6.20812 7.88335 6.0233 7.80024C5.90794 7.74837 5.80789 7.70619 5.72122 7.6721L5.7169 7.67978C5.69038 7.727 5.66522 7.77258 5.63648 7.82466L5.60974 7.87308C5.57182 7.94169 5.52747 8.02157 5.48087 8.10219C5.36394 8.30456 5.27126 8.46517 5.19195 8.61017C5.17753 8.63653 5.16409 8.66142 5.15155 8.68493C5.23177 8.75335 5.33378 8.83494 5.4628 8.93113C5.55213 8.99772 5.6544 9.07131 5.77136 9.15238C6.80224 9.86693 6.81478 10.8665 6.80591 11.9765L6.80573 11.9999C6.79685 13.1169 6.78886 14.1224 5.7302 14.8294C5.57543 14.9328 5.44241 15.0255 5.32817 15.1089C5.25029 15.1658 5.18114 15.2184 5.11978 15.267C5.17516 15.367 5.23965 15.48 5.31715 15.6143C5.38152 15.7258 5.4576 15.8648 5.51824 15.9757C5.54335 16.0216 5.56582 16.0626 5.58371 16.0949C5.62271 16.1652 5.65708 16.2256 5.68841 16.2784C5.80772 16.2368 5.95669 16.1781 6.14185 16.0967C6.30209 16.0262 6.48945 15.9387 6.70814 15.8305C7.83917 15.2707 8.81072 15.7265 9.74279 16.3759C10.5591 16.9447 11.2641 17.5193 11.3398 18.6062C11.355 18.8239 11.3721 19.0092 11.3901 19.1665C11.4097 19.3382 11.4305 19.4766 11.4511 19.5876C11.4777 19.5885 11.506 19.5893 11.5361 19.59C11.7015 19.5939 11.887 19.594 12.1209 19.594C12.214 19.594 12.3055 19.5955 12.3839 19.597L12.4391 19.5981L12.4485 19.5983C12.5042 19.5994 12.5537 19.6003 12.605 19.601L12.6138 19.6011C12.6262 19.5178 12.6385 19.4212 12.6502 19.3096C12.6696 19.1256 12.6874 18.9005 12.7022 18.6257C12.7605 17.5409 13.4524 16.9448 14.2688 16.3759C15.2005 15.7268 16.1719 15.2719 17.3022 15.8312C17.7613 16.0584 18.0822 16.1941 18.304 16.2726L18.6444 15.6962C18.691 15.6156 18.738 15.5372 18.7786 15.4701L18.8071 15.4228C18.8379 15.3719 18.8648 15.3273 18.8925 15.2807L18.897 15.2732C18.8237 15.215 18.7359 15.1486 18.6311 15.0731C18.5002 14.9789 18.3427 14.8707 18.1535 14.7466C17.1769 14.1063 17.1894 13.2094 17.2033 12.2169C17.2042 12.1549 17.205 12.0926 17.2057 12.03L17.207 11.8834C17.2158 10.8131 17.2237 9.8554 18.2397 9.15088C18.3364 9.08383 18.423 9.0219 18.5005 8.96483C18.659 8.84826 18.7795 8.75194 18.8706 8.67357C18.8405 8.62006 18.8053 8.56015 18.7639 8.49128C18.7449 8.45976 18.7207 8.41996 18.6936 8.37546C18.6278 8.26756 18.5448 8.13127 18.4804 8.01978Z" fill="black"/>
</svg>
