<svg width="24" height="24" viewBox="0 0 24 24" fill="none" xmlns="http://www.w3.org/2000/svg">
<path fill-rule="evenodd" clip-rule="evenodd" d="M10.1614 2.68986C10.5857 2.39999 11.2081 2.39999 12.1209 2.39999L12.2164 2.40001C13.0205 2.40038 13.5714 2.41021 13.9484 2.67124C14.4158 2.99493 14.6158 3.70486 14.6993 5.26195C14.7087 5.43626 14.8067 5.59363 14.9563 5.68365C15.249 5.85983 15.5411 6.06236 15.8323 6.29124C15.9925 6.4171 16.2114 6.44113 16.3925 6.34802C17.8486 5.59973 18.5852 5.40334 19.1114 5.65203C19.5259 5.84797 19.8099 6.32016 20.2123 7.01638L20.26 7.0991C20.7164 7.88958 21.0276 8.42856 20.9887 8.94098C20.9468 9.49441 20.4965 10.0169 19.3799 10.7917C19.2126 10.9078 19.1302 11.1116 19.1582 11.3133C19.2277 11.8142 19.2211 12.3157 19.1384 12.8166C19.1217 12.9178 19.1649 13.0203 19.2507 13.0766C20.5106 13.9033 21.0095 14.4234 21.0553 14.9808C21.0929 15.4377 20.826 15.9197 20.4242 16.6163L20.3765 16.6991C19.9201 17.4896 19.6089 18.0285 19.1457 18.2511C18.6031 18.5118 17.852 18.3383 16.4146 17.6265C16.2338 17.5369 16.0174 17.5624 15.8592 17.6876C15.559 17.9252 15.258 18.1348 14.9563 18.3164C14.8067 18.4064 14.7087 18.5638 14.6993 18.7381C14.6157 20.2951 14.4158 21.005 13.9484 21.3287C13.5714 21.5897 13.0205 21.5996 12.2164 21.5999L12.1209 21.5999C11.2081 21.5999 10.5857 21.5999 10.1614 21.3101C9.67669 20.979 9.45033 20.2697 9.34463 18.7501C9.33264 18.5777 9.23427 18.4231 9.08578 18.3346C8.77354 18.1487 8.46201 17.9327 8.15145 17.6868C7.99319 17.5615 7.7768 17.536 7.59591 17.6256C6.15744 18.3382 5.40593 18.5119 4.86316 18.2511C4.39995 18.0285 4.08878 17.4896 3.63239 16.6991L3.58464 16.6163C3.18289 15.9197 2.91594 15.4377 2.95353 14.9808C2.99765 14.4444 3.46126 13.9426 4.61878 13.1689C4.78928 13.0549 4.87469 12.8503 4.8481 12.6469C4.79006 12.203 4.79177 11.7588 4.85325 11.3148C4.88118 11.1132 4.79867 10.9095 4.63141 10.7934C3.51302 10.0176 3.06213 9.49481 3.02012 8.94098C2.98126 8.42856 3.29243 7.88958 3.74882 7.0991L3.7966 7.01638C4.19899 6.32016 4.48296 5.84797 4.8975 5.65203C5.42387 5.40324 6.16078 5.59988 7.61798 6.34887C7.79918 6.44201 8.0181 6.41797 8.17827 6.29206C8.47995 6.05491 8.78252 5.84603 9.08578 5.66542C9.23426 5.57699 9.33263 5.42232 9.34462 5.24992C9.45032 3.73032 9.67668 3.02098 10.1614 2.68986ZM14.4664 9.58942C12.8805 8.00352 11.2312 8.00352 9.64527 9.58942C8.05937 11.1753 8.05937 12.8247 9.64527 14.4106C11.2312 15.9965 12.8805 15.9965 14.4664 14.4106C16.0523 12.8247 16.0523 11.1753 14.4664 9.58942Z" fill="black"/>
</svg>
