<svg width="24" height="24" viewBox="0 0 24 24" fill="none" xmlns="http://www.w3.org/2000/svg">
<path fill-rule="evenodd" clip-rule="evenodd" d="M15.1099 5.67289C14.8166 4.77637 15.1103 3.87204 15.9912 2.99119C17.3128 1.6696 18.6872 1.6696 20.0088 2.99119C21.3304 4.31278 21.3304 5.68722 20.0088 7.00881C18.7249 8.29268 17.3912 8.32932 16.1045 7.11872L8.89008 11.3271C9.03664 11.7751 9.03664 12.2249 8.89007 12.6729L16.1045 16.8813C17.3912 15.6707 18.7249 15.7073 20.0088 16.9912C21.3304 18.3128 21.3304 19.6872 20.0088 21.0088C18.6872 22.3304 17.3128 22.3304 15.9912 21.0088C15.1103 20.128 14.8166 19.2236 15.1099 18.3271L7.89554 14.1187C6.60882 15.3293 5.27506 15.2927 3.99119 14.0088C2.6696 12.6872 2.6696 11.3128 3.99119 9.99119C5.27506 8.70732 6.60882 8.67068 7.89554 9.88128L15.1099 5.67289ZM17.566 4.25594C17.6989 4.14177 17.8029 4.07715 17.8744 4.04192C17.922 4.01848 17.954 4.00857 17.9714 4.00432C17.988 4.00023 17.9965 4 18 4C18.0035 4 18.012 4.00023 18.0286 4.00432C18.046 4.00857 18.078 4.01848 18.1256 4.04192C18.2237 4.09029 18.3832 4.19405 18.5946 4.4054C18.806 4.61676 18.9097 4.77626 18.9581 4.87444C18.9815 4.92203 18.9914 4.95403 18.9957 4.97136C18.9998 4.98801 19 4.99654 19 5C19 5.00346 18.9998 5.01199 18.9957 5.02865C18.9914 5.04597 18.9815 5.07797 18.9581 5.12556C18.9097 5.22374 18.806 5.38324 18.5946 5.5946C18.5372 5.65201 18.4836 5.70148 18.434 5.74406C18.4118 5.76316 18.3904 5.78088 18.3698 5.7973C18.2672 5.87903 18.1851 5.92874 18.1256 5.95808C18.0796 5.98073 18.0481 5.99075 18.0304 5.99523C18.0298 5.99539 18.0292 5.99554 18.0286 5.99568C18.012 5.99977 18.0035 6 18 6C17.9965 6 17.988 5.99977 17.9714 5.99568C17.954 5.99143 17.922 5.98152 17.8744 5.95808C17.7763 5.90971 17.6168 5.80595 17.4054 5.5946C17.194 5.38324 17.0903 5.22374 17.0419 5.12556C17.0185 5.07797 17.0086 5.04597 17.0043 5.02865C17.0002 5.01199 17 5.00346 17 5C17 4.99654 17.0002 4.98801 17.0043 4.97136C17.0086 4.95403 17.0185 4.92203 17.0419 4.87444C17.0903 4.77626 17.194 4.61676 17.4054 4.4054C17.4628 4.34799 17.5164 4.29852 17.566 4.25594ZM5.96957 12.9952C5.97018 12.9954 5.97078 12.9955 5.97136 12.9957C5.98801 12.9998 5.99654 13 6 13C6.00346 13 6.01199 12.9998 6.02865 12.9957C6.04597 12.9914 6.07797 12.9815 6.12556 12.9581C6.12555 12.9581 6.12556 12.9581 6.12556 12.9581C6.19306 12.9248 6.28955 12.8654 6.41193 12.7628C6.41921 12.7567 6.42657 12.7505 6.43403 12.7441C6.4836 12.7015 6.53719 12.652 6.5946 12.5946C6.80595 12.3832 6.90971 12.2237 6.95808 12.1256C6.98152 12.078 6.99143 12.046 6.99568 12.0286C6.99977 12.012 7 12.0035 7 12C7 11.9965 6.99977 11.988 6.99568 11.9714C6.99143 11.954 6.98152 11.922 6.95808 11.8744C6.90971 11.7763 6.80595 11.6168 6.5946 11.4054C6.54176 11.3526 6.49216 11.3064 6.44595 11.2662C6.44195 11.2628 6.43798 11.2593 6.43403 11.2559C6.30112 11.1418 6.19707 11.0772 6.12556 11.0419C6.07797 11.0185 6.04597 11.0086 6.02865 11.0043C6.01199 11.0002 6.00346 11 6 11C5.99654 11 5.98801 11.0002 5.97136 11.0043C5.97078 11.0045 5.97019 11.0046 5.96958 11.0048C5.96959 11.0048 5.96957 11.0048 5.96958 11.0048C5.95188 11.0092 5.92043 11.0193 5.87444 11.0419C5.81489 11.0713 5.73279 11.121 5.63023 11.2027C5.61566 11.2143 5.60068 11.2266 5.58528 11.2395C5.5304 11.2857 5.47035 11.3405 5.4054 11.4054C5.19405 11.6168 5.09029 11.7763 5.04192 11.8744C5.01848 11.922 5.00857 11.954 5.00432 11.9714C5.00023 11.988 5 11.9965 5 12C5 12.0035 5.00023 12.012 5.00432 12.0286C5.00857 12.046 5.01848 12.078 5.04192 12.1256C5.09029 12.2237 5.19405 12.3832 5.4054 12.5946C5.46281 12.652 5.5164 12.7015 5.56597 12.7441C5.5882 12.7632 5.60963 12.7809 5.63024 12.7973C5.73279 12.879 5.81489 12.9287 5.87444 12.9581C5.92044 12.9807 5.95188 12.9908 5.96957 12.9952ZM18.0301 18.0047C18.0296 18.0046 18.0291 18.0044 18.0286 18.0043C18.012 18.0002 18.0035 18 18 18C17.9965 18 17.988 18.0002 17.9714 18.0043C17.954 18.0086 17.922 18.0185 17.8744 18.0419C17.8622 18.048 17.8489 18.0549 17.8348 18.0628C17.7356 18.1179 17.5903 18.2205 17.4054 18.4054C17.194 18.6168 17.0903 18.7763 17.0419 18.8744C17.0185 18.922 17.0086 18.954 17.0043 18.9714C17.0002 18.988 17 18.9965 17 19C17 19.0035 17.0002 19.012 17.0043 19.0286C17.0086 19.046 17.0185 19.078 17.0419 19.1255C17.0419 19.1255 17.0419 19.1255 17.0419 19.1255C17.0903 19.2237 17.194 19.3832 17.4054 19.5946C17.4628 19.652 17.5164 19.7015 17.566 19.744C17.566 19.7441 17.566 19.744 17.566 19.744C17.6989 19.8582 17.8029 19.9228 17.8744 19.9581C17.922 19.9815 17.954 19.9914 17.9714 19.9957C17.988 19.9998 17.9965 20 18 20C18.0035 20 18.012 19.9998 18.0286 19.9957C18.046 19.9914 18.078 19.9815 18.1256 19.9581C18.2237 19.9097 18.3832 19.806 18.5946 19.5946C18.806 19.3832 18.9097 19.2237 18.9581 19.1256C18.9815 19.078 18.9914 19.046 18.9957 19.0286C18.9998 19.012 19 19.0035 19 19C19 18.9965 18.9998 18.988 18.9957 18.9714C18.9914 18.954 18.9815 18.922 18.9581 18.8744C18.9097 18.7763 18.806 18.6168 18.5946 18.4054C18.5372 18.348 18.4836 18.2985 18.434 18.2559C18.4118 18.2368 18.3904 18.2191 18.3698 18.2027C18.2672 18.121 18.1851 18.0713 18.1256 18.0419C18.0793 18.0191 18.0477 18.0091 18.0301 18.0047Z" fill="black"/>
</svg>
