<svg width="24" height="24" viewBox="0 0 24 24" fill="none" xmlns="http://www.w3.org/2000/svg">
<path d="M20.0088 2.99119C18.6872 1.6696 17.3128 1.6696 15.9912 2.99119C15.1103 3.87204 14.8166 4.77637 15.1099 5.67289L7.89554 9.88128C6.60882 8.67068 5.27506 8.70732 3.99119 9.99119C2.6696 11.3128 2.6696 12.6872 3.99119 14.0088C5.27506 15.2927 6.60882 15.3293 7.89554 14.1187L15.1099 18.3271C14.8166 19.2236 15.1103 20.128 15.9912 21.0088C17.3128 22.3304 18.6872 22.3304 20.0088 21.0088C21.3304 19.6872 21.3304 18.3128 20.0088 16.9912C18.7249 15.7073 17.3912 15.6707 16.1045 16.8813L8.89008 12.6729C9.03664 12.2249 9.03664 11.7751 8.89008 11.3271L16.1045 7.11872C17.3912 8.32932 18.7249 8.29268 20.0088 7.00881C21.3304 5.68722 21.3304 4.31278 20.0088 2.99119Z" fill="black"/>
</svg>
