<svg width="24" height="24" viewBox="0 0 24 24" fill="none" xmlns="http://www.w3.org/2000/svg">
<path fill-rule="evenodd" clip-rule="evenodd" d="M14.6309 8.89353L12 5.35315L9.36911 8.89353L5.18903 10.3016L7.74314 13.8978L7.79058 18.3084L12 16.9905L16.2094 18.3084L16.2568 13.8978L18.8109 10.3016L14.6309 8.89353ZM8.13727 7.19805L3.27528 8.83584C2.63999 9.04983 2.39104 9.81602 2.77921 10.3626L5.74999 14.5454L5.80517 19.6755C5.81238 20.3458 6.46414 20.8194 7.10388 20.6191L12 19.0863L16.8961 20.6191C17.5358 20.8194 18.1876 20.3458 18.1948 19.6755L18.25 14.5454L21.2208 10.3626C21.6089 9.81602 21.36 9.04983 20.7247 8.83584L15.8627 7.19805L12.8026 3.08012C12.4028 2.54206 11.5972 2.54206 11.1973 3.08012L8.13727 7.19805Z" fill="black"/>
</svg>
