<svg width="24" height="24" viewBox="0 0 24 24" fill="none" xmlns="http://www.w3.org/2000/svg">
<path fill-rule="evenodd" clip-rule="evenodd" d="M5.97357 5.97357C9.93833 2.00881 14.0617 2.00881 18.0264 5.97357C21.9912 9.93833 21.9912 14.0617 18.0264 18.0264C14.0617 21.9912 9.93833 21.9912 5.97357 18.0264C2.00881 14.0617 2.00881 9.93833 5.97357 5.97357ZM12 7L12 5C13.3188 5 14.8619 5.63745 16.6122 7.38778C18.3625 9.13811 19 10.6812 19 12C19 13.3188 18.3625 14.8619 16.6122 16.6122C14.8619 18.3625 13.3188 19 12 19L12 17H10V15H12V13H10V11H12V9H10V7H12ZM10 7V5.46887C9.30791 5.78732 8.57128 6.2829 7.79171 7H10ZM7 9V7.79171C6.61824 8.20672 6.29927 8.60957 6.03637 9H7ZM8 9V11H10V9H8ZM7 13V11H5.11954C5.03758 11.3464 5 11.6798 5 12C5 12.3202 5.03758 12.6536 5.11954 13H7ZM8 13V15H10V13H8ZM7.79171 17C8.57128 17.7171 9.30791 18.2127 10 18.5311V17H7.79171ZM7 16.2083V15H6.03637C6.29927 15.3904 6.61824 15.7933 7 16.2083Z" fill="black"/>
</svg>
