<svg width="24" height="24" viewBox="0 0 24 24" fill="none" xmlns="http://www.w3.org/2000/svg">
<path d="M9.0515 16L11.9815 14.12L14.9115 16L14.0215 12.64L16.7115 10.44L13.2415 10.23L11.9815 7L10.7115 10.22L7.2415 10.43L9.9315 12.63L9.0515 16Z" fill="black"/>
<path fill-rule="evenodd" clip-rule="evenodd" d="M11.8645 20C4.45464 19.9951 2.39519 19.0637 2.00084 14.2573C1.9893 14.1172 2.09819 13.9957 2.23521 13.9645C2.58006 13.8861 2.92375 13.6776 3.26219 13.3392C4.14323 12.4581 4.14323 11.5418 3.26219 10.6608C2.92375 10.3223 2.58006 10.1139 2.23521 10.0355C2.09819 10.0043 1.9893 9.88279 2.00084 9.74269C2.39519 4.93631 4.45464 4.00484 11.8645 4C19.2745 4.00484 21.3339 4.93631 21.7283 9.74269C21.7397 9.88279 21.6309 10.0043 21.4938 10.0355C21.149 10.1139 20.8053 10.3223 20.4668 10.6608C19.5858 11.5418 19.5858 12.4581 20.4668 13.3392C20.8053 13.6776 21.149 13.8861 21.4938 13.9645C21.6309 13.9957 21.7397 14.1172 21.7283 14.2573C21.3339 19.0637 19.2745 19.9951 11.8645 20ZM7.51329 17.7936C8.62425 17.9395 10.0392 17.9987 11.8645 18C13.6899 17.9987 15.1048 17.9395 16.2158 17.7936C17.3346 17.6465 18.0174 17.4263 18.4504 17.184C18.9432 16.9081 19.3545 16.4817 19.5907 15.2221C19.3963 15.0764 19.2171 14.9178 19.0527 14.7534C18.3801 14.0808 17.8061 13.1526 17.8061 12C17.8061 10.8474 18.3801 9.91914 19.0527 9.24656C19.2171 9.08215 19.3963 8.92361 19.5907 8.77785C19.3545 7.51823 18.9432 7.09185 18.4504 6.81596C18.0174 6.57365 17.3346 6.35342 16.2158 6.20639C15.1048 6.06041 13.6899 6.00122 11.8645 6C10.0392 6.00122 8.62425 6.06041 7.51329 6.20639C6.39445 6.35342 5.71159 6.57365 5.27873 6.81596C4.78587 7.09185 4.37462 7.51823 4.13841 8.77785C4.33275 8.92361 4.51201 9.08215 4.67644 9.24656C6.46379 11.0339 6.09001 13.7585 4.13841 15.2221C4.37462 16.4817 4.78587 16.9081 5.27873 17.184C5.71159 17.4263 6.39445 17.6465 7.51329 17.7936Z" fill="black"/>
</svg>
