<svg width="24" height="24" viewBox="0 0 24 24" fill="none" xmlns="http://www.w3.org/2000/svg">
<path fill-rule="evenodd" clip-rule="evenodd" d="M2.00083 14.2573C1.98934 14.1172 2.09818 13.9957 2.23525 13.9645C2.58011 13.8861 2.92376 13.6776 3.26221 13.3392C4.14327 12.4581 4.14327 11.5418 3.26221 10.6608C2.92376 10.3223 2.58011 10.1139 2.23525 10.0355C2.09818 10.0043 1.98934 9.88279 2.00083 9.74269C2.39517 4.93631 4.45462 4.00484 11.8645 4C19.2745 4.00484 21.3339 4.93631 21.7283 9.74269C21.7398 9.88279 21.6309 10.0043 21.4939 10.0355C21.149 10.1139 20.8053 10.3223 20.4669 10.6608C19.5858 11.5418 19.5858 12.4581 20.4669 13.3392C20.8053 13.6776 21.149 13.8861 21.4939 13.9645C21.6309 13.9957 21.7398 14.1172 21.7283 14.2573C21.3339 19.0637 19.2745 19.9951 11.8645 20C4.45462 19.9951 2.39517 19.0637 2.00083 14.2573ZM15.4445 17L11.8645 14.7L8.28454 17L9.36454 12.88L6.07454 10.19L10.3145 9.93998L11.8645 5.99998L13.4045 9.94998L17.6445 10.2L14.3545 12.89L15.4445 17Z" fill="black"/>
</svg>
