<svg width="24" height="24" viewBox="0 0 24 24" fill="none" xmlns="http://www.w3.org/2000/svg">
<path fill-rule="evenodd" clip-rule="evenodd" d="M3 12C3 4.35 4.35 3 12 3C19.65 3 21 4.35 21 12C21 19.65 19.65 21 12 21C4.35 21 3 19.65 3 12ZM13 7C12.15 7 12 7.15 12 8C12 8.85 12.15 9 13 9H16C16.85 9 17 8.85 17 8C17 7.15 16.85 7 16 7H13ZM10 11C9.15 11 9 11.15 9 12C9 12.85 9.15 13 10 13H14C14.85 13 15 12.85 15 12C15 11.15 14.85 11 14 11H10ZM8 15C7.15 15 7 15.15 7 16C7 16.85 7.15 17 8 17H11C11.85 17 12 16.85 12 16C12 15.15 11.85 15 11 15H8Z" fill="black"/>
</svg>
