<svg width="24" height="24" viewBox="0 0 24 24" fill="none" xmlns="http://www.w3.org/2000/svg">
<path d="M12 8C12 7.15 12.15 7 13 7H16C16.85 7 17 7.15 17 8C17 8.85 16.85 9 16 9H13C12.15 9 12 8.85 12 8Z" fill="black"/>
<path d="M10 11C9.15 11 9 11.15 9 12C9 12.85 9.15 13 10 13H14C14.85 13 15 12.85 15 12C15 11.15 14.85 11 14 11H10Z" fill="black"/>
<path d="M7 16C7 15.15 7.15 15 8 15H11C11.85 15 12 15.15 12 16C12 16.85 11.85 17 11 17H8C7.15 17 7 16.85 7 16Z" fill="black"/>
<path fill-rule="evenodd" clip-rule="evenodd" d="M12 3C4.35 3 3 4.35 3 12C3 19.65 4.35 21 12 21C19.65 21 21 19.65 21 12C21 4.35 19.65 3 12 3ZM5 12C5 10.1172 5.08583 8.76421 5.28985 7.76745C5.48942 6.7924 5.77035 6.32058 6.04546 6.04546C6.32058 5.77035 6.7924 5.48942 7.76745 5.28985C8.76421 5.08583 10.1172 5 12 5C13.8828 5 15.2358 5.08583 16.2326 5.28985C17.2076 5.48942 17.6794 5.77035 17.9545 6.04546C18.2296 6.32058 18.5106 6.7924 18.7102 7.76745C18.9142 8.76421 19 10.1172 19 12C19 13.8828 18.9142 15.2358 18.7102 16.2326C18.5106 17.2076 18.2296 17.6794 17.9545 17.9545C17.6794 18.2296 17.2076 18.5106 16.2326 18.7102C15.2358 18.9142 13.8828 19 12 19C10.1172 19 8.76421 18.9142 7.76745 18.7102C6.7924 18.5106 6.32058 18.2296 6.04546 17.9545C5.77035 17.6794 5.48942 17.2076 5.28985 16.2326C5.08583 15.2358 5 13.8828 5 12Z" fill="black"/>
</svg>
