<svg width="24" height="24" viewBox="0 0 24 24" fill="none" xmlns="http://www.w3.org/2000/svg">
<path fill-rule="evenodd" clip-rule="evenodd" d="M19 4H15.5L14.5 3H9.5L8.5 4H5V6H19V4ZM18 7H6V15C6 20.1 6.9 21 12 21C17.1 21 18 20.1 18 15V7ZM16 9V15C16 16.2453 15.9423 17.092 15.8203 17.688C15.7028 18.2623 15.5578 18.4388 15.4983 18.4983C15.4388 18.5578 15.2623 18.7028 14.688 18.8203C14.092 18.9423 13.2453 19 12 19C10.7547 19 9.90796 18.9423 9.31198 18.8203C8.73772 18.7028 8.5612 18.5578 8.50171 18.4983C8.44223 18.4388 8.29723 18.2623 8.17969 17.688C8.05771 17.092 8 16.2453 8 15V9H16Z" fill="black"/>
</svg>
