<svg width="24" height="24" viewBox="0 0 24 24" fill="none" xmlns="http://www.w3.org/2000/svg">
<path fill-rule="evenodd" clip-rule="evenodd" d="M5.30396 5.30397C9.70923 0.898678 14.2908 0.898678 18.696 5.30397C20.8987 7.5066 22 9.75331 22 12V13C22 13.7863 21.6146 14.5727 20.8436 15.3436C19.3018 16.8855 17.6982 16.8855 16.1564 15.3436C16.0106 15.1979 15.8787 15.0516 15.7605 14.9048C15.6329 15.0529 15.4954 15.2007 15.348 15.348C13.1454 17.5507 10.8546 17.5507 8.65198 15.348C6.44934 13.1454 6.44934 10.8546 8.65198 8.65197C10.8546 6.44934 13.1454 6.44934 15.348 8.65197C16.4493 9.75331 17 10.8766 17 12V13C17 13.0831 17.0317 13.3905 17.5706 13.9294C18.1095 14.4683 18.4169 14.5 18.5 14.5C18.5831 14.5 18.8905 14.4683 19.4294 13.9294C19.9683 13.3905 20 13.0831 20 13V12C20 10.4566 19.2524 8.68876 17.2818 6.71818C15.3112 4.74759 13.5435 4 12 4C10.4565 4 8.68878 4.74759 6.7182 6.71818C4.74756 8.68876 4 10.4566 4 12C4 13.5434 4.74756 15.3112 6.7182 17.2818C8.68878 19.2524 10.4565 20 12 20H17V22H12C9.7533 22 7.50659 20.8987 5.30396 18.696C0.898682 14.2908 0.898682 9.70926 5.30396 5.30397ZM12 9C11.5799 9 10.9355 9.19693 10.0662 10.0662C9.1969 10.9355 9 11.5799 9 12C9 12.4201 9.1969 13.0645 10.0662 13.9338C10.9355 14.8031 11.5799 15 12 15C12.4201 15 13.0645 14.8031 13.9338 13.9338C14.8031 13.0645 15 12.4201 15 12C15 11.5799 14.8031 10.9355 13.9338 10.0662C13.0645 9.19693 12.4201 9 12 9Z" fill="black"/>
</svg>
