<svg width="24" height="24" viewBox="0 0 24 24" fill="none" xmlns="http://www.w3.org/2000/svg">
<path fill-rule="evenodd" clip-rule="evenodd" d="M20.7457 16.2206C20.089 20.1833 17.9502 21 12 21C4.35 21 3 19.65 3 12C3 4.35 4.35 3 12 3C17.9502 3 20.089 3.81672 20.7457 7.77938C21.7464 8.47431 22 9.74409 22 12C22 14.2559 21.7464 15.5257 20.7457 16.2206ZM5 12C5 10.1172 5.08583 8.76421 5.28985 7.76745C5.48942 6.7924 5.77035 6.32058 6.04546 6.04546C6.32058 5.77035 6.7924 5.48942 7.76745 5.28985C8.76421 5.08583 10.1172 5 12 5C13.8828 5 15.2358 5.08583 16.2326 5.28985C17.2076 5.48942 17.6794 5.77035 17.9545 6.04546C18.1586 6.24951 18.3658 6.56176 18.5407 7.10727C17.8387 7.02884 17.0001 7 16 7C10.9 7 10 7.75 10 12C10 16.25 10.9 17 16 17C17.0001 17 17.8387 16.9712 18.5407 16.8927C18.3658 17.4382 18.1586 17.7505 17.9545 17.9545C17.6794 18.2296 17.2076 18.5106 16.2326 18.7102C15.2358 18.9142 13.8828 19 12 19C10.1172 19 8.76421 18.9142 7.76745 18.7102C6.7924 18.5106 6.32058 18.2296 6.04546 17.9545C5.77035 17.6794 5.48942 17.2076 5.28985 16.2326C5.08583 15.2358 5 13.8828 5 12ZM18.9035 9.18297C18.8563 9.17352 18.8061 9.16421 18.7528 9.15512C18.1246 9.04797 17.2508 9 16 9C14.7492 9 13.8754 9.04797 13.2472 9.15512C12.621 9.26193 12.4199 9.39936 12.3679 9.44269C12.3109 9.49014 12 9.76985 12 12C12 14.2302 12.3109 14.5099 12.3679 14.5573C12.4199 14.6006 12.621 14.7381 13.2472 14.8449C13.8754 14.952 14.7492 15 16 15C17.2508 15 18.1246 14.952 18.7528 14.8449C18.8061 14.8358 18.8563 14.8265 18.9035 14.817C19.4121 14.7154 19.5846 14.597 19.6321 14.5573C19.6891 14.5099 20 14.2302 20 12C20 9.76985 19.6891 9.49013 19.6321 9.44269C19.5846 9.40304 19.4121 9.28463 18.9035 9.18297Z" fill="black"/>
<path fill-rule="evenodd" clip-rule="evenodd" d="M14.9956 10.9956C15.6564 10.3348 16.3436 10.3348 17.0044 10.9956C17.6652 11.6564 17.6652 12.3436 17.0044 13.0044C16.3436 13.6652 15.6564 13.6652 14.9956 13.0044C14.3348 12.3436 14.3348 11.6564 14.9956 10.9956Z" fill="black"/>
</svg>
