<svg width="24" height="24" viewBox="0 0 24 24" fill="none" xmlns="http://www.w3.org/2000/svg">
<path d="M12.5 3C4.425 3 3 4.35 3 12C3 19.65 4.425 21 12.5 21C17.8184 21 20.2521 20.4144 21.294 17.8289C20.4114 17.9552 19.3277 18 18 18C12.05 18 11 17.1 11 12C11 6.9 12.05 6 18 6C19.3277 6 20.4114 6.04482 21.294 6.17111C20.2521 3.58562 17.8184 3 12.5 3Z" fill="black"/>
<path fill-rule="evenodd" clip-rule="evenodd" d="M13.2023 9.37546C13.0674 9.94042 13 10.7605 13 12C13 13.2395 13.0674 14.0596 13.2023 14.6245C13.3271 15.1471 13.4768 15.3139 13.5703 15.394C13.6942 15.5002 13.9892 15.6778 14.7417 15.8098C15.4988 15.9426 16.5374 16 18 16C19.4626 16 20.5012 15.9426 21.2583 15.8098C22.0108 15.6778 22.3058 15.5002 22.4297 15.394C22.5232 15.3139 22.6729 15.1471 22.7977 14.6245C22.9326 14.0596 23 13.2395 23 12C23 10.7605 22.9326 9.94042 22.7977 9.37546C22.6729 8.85295 22.5232 8.68614 22.4297 8.60601C22.3058 8.49985 22.0108 8.32224 21.2583 8.19023C20.5012 8.05739 19.4626 8 18 8C16.5374 8 15.4988 8.05739 14.7417 8.19023C13.9892 8.32224 13.6942 8.49985 13.5703 8.60601C13.4768 8.68614 13.3271 8.85295 13.2023 9.37546ZM18.0044 10.9956C17.3436 10.3348 16.6564 10.3348 15.9956 10.9956C15.3348 11.6564 15.3348 12.3436 15.9956 13.0044C16.6564 13.6652 17.3436 13.6652 18.0044 13.0044C18.6652 12.3436 18.6652 11.6564 18.0044 10.9956Z" fill="black"/>
</svg>
