<svg width="24" height="24" viewBox="0 0 24 24" fill="none" xmlns="http://www.w3.org/2000/svg">
<path d="M10.8785 14.3712H12.8785V16.3712H10.8785V14.3712Z" fill="black"/>
<path d="M12.8785 7.3712H10.8785V12.3712H12.8785V7.3712Z" fill="black"/>
<path fill-rule="evenodd" clip-rule="evenodd" d="M9.95705 3.65044C11.0921 2.78323 12.6612 2.78367 13.7979 3.64887C17.7145 6.6302 20.1247 11.0009 20.7298 15.6518C20.9146 17.0716 20.1283 18.4335 18.8063 18.9834C14.476 20.7847 9.48573 20.8828 4.9455 18.9816C3.6279 18.4298 2.84298 17.0712 3.02645 15.6546C3.64217 10.9006 6.14782 6.56066 9.95705 3.65044ZM11.1712 5.2397C7.78582 7.82613 5.5571 11.6864 5.00989 15.9115C4.9424 16.4325 5.22919 16.9321 5.71801 17.1368C9.7489 18.8248 14.1841 18.74 18.0382 17.1368C18.5265 16.9337 18.8148 16.4343 18.7465 15.9099C18.2079 11.7705 16.0637 7.88715 12.5865 5.24027C12.1648 4.91929 11.5887 4.92072 11.1712 5.2397Z" fill="black"/>
</svg>
