<svg width="24" height="24" viewBox="0 0 24 24" fill="none" xmlns="http://www.w3.org/2000/svg">
<path fill-rule="evenodd" clip-rule="evenodd" d="M8.00035 6.13855C8.00011 6.09289 8 6.04671 8 6C8 2.6 8.6 2 12 2C15.4 2 16 2.6 16 6C16 6.04671 15.9999 6.09289 15.9997 6.13855C20.9991 6.58819 22 8.29257 22 13.5C22 19.875 20.5 21 12 21C3.5 21 2 19.875 2 13.5C2 8.29257 3.00087 6.58819 8.00035 6.13855ZM10.1063 4.34167C10.1239 4.25528 10.1409 4.19481 10.1544 4.15439C10.1948 4.14094 10.2553 4.12393 10.3417 4.10625C10.6705 4.03896 11.1797 4 12 4C12.8203 4 13.3295 4.03896 13.6583 4.10625C13.7447 4.12393 13.8052 4.14094 13.8456 4.15439C13.8591 4.19481 13.8761 4.25528 13.8937 4.34167C14.0061 4.8908 14.0005 5.46873 14 6.02635C13.3807 6.00796 12.7151 6 12 6C11.2849 6 10.6193 6.00796 10 6.02635C9.99947 5.46873 9.99386 4.8908 10.1063 4.34167Z" fill="black"/>
</svg>
