<svg width="24" height="24" viewBox="0 0 24 24" fill="none" xmlns="http://www.w3.org/2000/svg">
<path fill-rule="evenodd" clip-rule="evenodd" d="M15.9997 6.13855C15.9999 6.09289 16 6.04671 16 6C16 2.6 15.4 2 12 2C8.6 2 8 2.6 8 6C8 6.04671 8.00011 6.09289 8.00035 6.13855C3.00087 6.58818 2 8.29257 2 13.5C2 19.875 3.5 21 12 21C20.5 21 22 19.875 22 13.5C22 8.29257 20.9991 6.58819 15.9997 6.13855ZM10.1063 4.34167C10.039 4.67046 10 5.17967 10 6L10 6.02635C10.6193 6.00796 11.2849 6 12 6C12.7151 6 13.3807 6.00796 14 6.02635L14 6C14 5.17967 13.961 4.67046 13.8937 4.34167C13.8761 4.25528 13.8591 4.19481 13.8456 4.15439C13.8052 4.14094 13.7447 4.12393 13.6583 4.10625C13.3295 4.03896 12.8203 4 12 4C11.1797 4 10.6705 4.03896 10.3417 4.10625C10.2553 4.12393 10.1948 4.14094 10.1544 4.15439C10.1409 4.19481 10.1239 4.25528 10.1063 4.34167ZM4 13.5C4 10.2422 4.45351 9.37862 5.0125 8.95937C5.3556 8.70205 5.96938 8.43424 7.15503 8.25223C8.33417 8.07122 9.89654 8 12 8C14.1035 8 15.6658 8.07122 16.845 8.25223C18.0306 8.43424 18.6444 8.70205 18.9875 8.95937C19.5465 9.37862 20 10.2422 20 13.5C20 16.7578 19.5465 17.6214 18.9875 18.0406C18.6444 18.2979 18.0306 18.5658 16.845 18.7478C15.6658 18.9288 14.1035 19 12 19C9.89654 19 8.33417 18.9288 7.15503 18.7478C5.96938 18.5658 5.3556 18.2979 5.0125 18.0406C4.45351 17.6214 4 16.7578 4 13.5Z" fill="black"/>
</svg>
