<svg width="24" height="24" viewBox="0 0 24 24" fill="none" xmlns="http://www.w3.org/2000/svg">
<path fill-rule="evenodd" clip-rule="evenodd" d="M15.5683 6.81902L15 0H9.00001L8.43176 6.81902C6.82397 7.75865 6 9.49903 6 12C6 14.501 6.82397 16.2413 8.43176 17.181L9.00001 24H15L15.5683 17.181C17.176 16.2413 18 14.501 18 12C18 9.49904 17.176 7.75866 15.5683 6.81902ZM15.066 8.93395C14.5567 8.42464 13.6455 8 12 8C10.3545 8 9.44326 8.42464 8.93395 8.93395C8.42464 9.44326 8 10.3545 8 12C8 13.6455 8.42464 14.5567 8.93395 15.066C9.44326 15.5754 10.3545 16 12 16C13.6455 16 14.5567 15.5754 15.066 15.066C15.5754 14.5567 16 13.6455 16 12C16 10.3545 15.5754 9.44326 15.066 8.93395Z" fill="black"/>
<path d="M5.04486 18.9551L3.9842 20.0158C1.73445 17.766 1 14.7941 1 12C1 9.2059 1.73445 6.23396 3.9842 3.98421L5.04486 5.04487C3.16806 6.92167 2.5 9.45202 2.5 12C2.5 14.548 3.16806 17.0783 5.04486 18.9551Z" fill="black"/>
<path d="M20.0158 3.98421C22.2656 6.23396 23 9.2059 23 12C23 14.7941 22.2656 17.766 20.0158 20.0158L18.9551 18.9551C20.8319 17.0783 21.5 14.548 21.5 12C21.5 9.45202 20.8319 6.92167 18.9551 5.04487L20.0158 3.98421Z" fill="black"/>
<path d="M5.75197 5.75197C4.1238 7.38014 3.5 9.61611 3.5 12C3.5 14.3839 4.1238 16.6199 5.75197 18.248L6.81263 17.1874C5.55742 15.9322 5 14.1378 5 12C5 9.86224 5.55742 8.06785 6.81263 6.81263L5.75197 5.75197Z" fill="black"/>
<path d="M17.1874 6.81263L18.248 5.75197C19.8762 7.38014 20.5 9.61611 20.5 12C20.5 14.3839 19.8762 16.6199 18.248 18.248L17.1874 17.1874C18.4426 15.9322 19 14.1378 19 12C19 9.86224 18.4426 8.06785 17.1874 6.81263Z" fill="black"/>
</svg>
