<svg width="24" height="24" viewBox="0 0 24 24" fill="none" xmlns="http://www.w3.org/2000/svg">
<path d="M8.16794 16.8321C6.61069 15.2748 6.61069 14.7252 8.16794 13.1679C8.98866 12.3472 9.52951 11.959 10.0855 12.0034V14H17V16H10.0855V17.9966C9.52951 18.041 8.98866 17.6528 8.16794 16.8321Z" fill="black"/>
<path fill-rule="evenodd" clip-rule="evenodd" d="M5 1H7V3.33782C8.31189 3.087 9.95294 3 12 3C14.0471 3 15.6881 3.087 17 3.33782V1H19V3.97157C21.4297 5.17934 22 7.75907 22 13C22 21.5 20.5 23 12 23C3.5 23 2 21.5 2 13C2 7.75907 2.57025 5.17934 5 3.97157V1ZM4 13C4 11.3349 4.06012 10.0321 4.20091 9H19.7991C19.9399 10.0321 20 11.3349 20 13C20 15.0953 19.9048 16.617 19.6734 17.7474C19.4465 18.856 19.1203 19.4263 18.7733 19.7733C18.4263 20.1203 17.856 20.4465 16.7474 20.6734C15.617 20.9048 14.0953 21 12 21C9.90466 21 8.38297 20.9048 7.25261 20.6734C6.14397 20.4465 5.5737 20.1203 5.22672 19.7733C4.87973 19.4263 4.55348 18.856 4.32657 17.7474C4.09521 16.617 4 15.0953 4 13Z" fill="black"/>
</svg>
